<?xml version="1.0" encoding="UTF-8"?>
<svg id="Layer_2" data-name="Layer 2" xmlns="http://www.w3.org/2000/svg" viewBox="0 0 281.05 319.49">
  <defs>
    <style>
      .cls-1 {
        fill: #fac893;
      }

      .cls-1, .cls-2, .cls-3, .cls-4, .cls-5, .cls-6, .cls-7, .cls-8 {
        stroke-width: 0px;
      }

      .cls-2 {
        fill: #f3bf8f;
      }

      .cls-3 {
        fill: #efede6;
      }

      .cls-4 {
        fill: #603818;
      }

      .cls-5 {
        fill: #e4b085;
      }

      .cls-6 {
        fill: #d1d3d4;
      }

      .cls-7 {
        fill: #c6c2bf;
      }

      .cls-8 {
        fill: #ddd8d4;
      }
    </style>
  </defs>
  <g id="Layer_1-2" data-name="Layer 1">
    <g>
      <g>
        <path class="cls-6" d="m171.81,41.93c-.11-.02-.21-.05-.32-.07-10.09-2.27-20.51-3.43-30.96-3.43-16.2,0-32.09,2.74-47.2,8.14.04,1.38.13,2.76.24,4.16.15-.06.3-.11.45-.17.03,0,.06-.02.09-.03,8.96-3.24,18.21-5.52,27.64-6.81h.03c6.18-.86,12.44-1.29,18.75-1.29,10.27,0,20.49,1.14,30.4,3.4.09.02.18.04.27.06,2.53.58,5.1,1.25,7.65,2,.15.04.31.09.46.14.09-1.38.14-2.75.14-4.13-2.55-.74-5.11-1.4-7.64-1.97Z"/>
        <path class="cls-6" d="m281.05,178.95c0,45.84-22.45,88.91-60.05,115.22-5.08,3.56-10.43,6.8-15.91,9.64-19.8,10.25-42.12,15.67-64.56,15.67-24.08,0-47.85-6.19-68.72-17.91C27.52,276.69,0,229.7,0,178.95,0,119.94,37.27,66.82,92.75,46.77c.19-.07.39-.14.58-.2.04,1.38.13,2.76.24,4.16C39.97,70.36,4,121.81,4,178.95c0,48.93,26.33,94.27,68.81,118.59.32.19.64.37.96.55,20.28,11.37,43.36,17.39,66.76,17.39,22.11,0,43.21-5.12,62.72-15.23.31-.16.61-.32.92-.49,5-2.63,9.88-5.61,14.53-8.87.33-.23.65-.46.97-.69,35.96-25.62,57.38-67.12,57.38-111.25,0-60.14-40.17-113.9-97.74-130.92.09-1.38.14-2.75.14-4.13.17.05.35.1.52.15,28.58,8.34,54.31,26.05,72.44,49.87,18.74,24.62,28.64,54.02,28.64,85.03Z"/>
      </g>
      <g>
        <path class="cls-8" d="m205.94,255.42c-.02,14.81-1.99,29.53-1.77,44.35-.31.17-.61.33-.92.49-19.51,10.11-40.61,15.23-62.72,15.23-23.4,0-46.48-6.02-66.76-17.39-.32-.18-.64-.36-.96-.55.06-10.64.24-21.27.53-31.9.09-3.37-.77-5.67-3.21-8.17-10.09-10.34-17.63-22.6-25.19-34.82-2.13-3.43-4.13-6.95-6.14-10.46-.62-1.1-1.58-2.17-.93-3.62,6.21-.99,12.44-1.87,17.51-6.22,1.15-.98,1.15-1.89.92-3.07.13-.07.26-.13.39-.2.21-.17.4-.34.61-.52.08-.27.16-.53.23-.8,5.11-1.01,3.82-6.79,6.91-9.3,3.77-.37,3.98,3.72,6.37,5.07.86,2.56,4.39,3.63,3.9,6.93-1.2,8.16-.7,16.41-1.18,24.61-.53,9.01-.12,18.08-.12,27.5.31-.59.48-.8.52-1.03,1.22-7.21,1.1-14.54,1.7-21.81,1.08-13.11,2.03-26.23,3.05-39.35.45-5.71,1.2-11.42,1.32-17.14.17-8.05,1.5-16.04,1.09-24.11,2.06-8.56,8.41-13.64,15.17-18.21,5.32-3.59,11.26-6.06,17.36-8.07,3.19,3.72,6.43,7.43,11.89,7.36,3.25-.05,3.43,1.39,3.05,4.2-1.35,10.07-2.68,20.16-3.45,30.3-.9,11.87.69,23.75.76,35.64.01,1.37.55,2.74.84,4.11,1.43-11.96,2.49-23.87,2.89-35.8.39-11.51.18-23.03.07-34.54-.03-2.88.91-3.95,3.84-3.91,7.58.1,14.59-2.11,21.45-5.32,2.85-1.33,5.67-4.04,9.41-2.45,4.32,1.84,8.76,3.42,12.93,5.56,4.94,2.55,10.42,4.23,14.48,8.34-2.04.85-5.68-1.46-6.09,2.35-.39,3.54-.48,7.12.7,10.8,1.66,5.2-.07,10.89,1.88,16.19-1.43-.85-2.43-1.65-3.32-2.58-1.64-1.72-3.61-2.02-5.76-1.36-2.33.72-1.73,2.81-1.55,4.32,1.39,11.67,5.44,22.34,12.5,31.81.62,1.44,1.55,2.83,1.79,4.33.39,2.4,4.67,4.71.39,7.39-.12.08.18.95.37,1.41,1.56,3.59,2.82,7.29,4.66,10.78,2.54,4.84,5.29,9.76,6.67,14.98,1.58,6,1.93,12.33,1.92,18.65Z"/>
        <path class="cls-7" d="m247.81,224.54c-3.17-.23-3.88-3.29-5.6-5.08-6.05-6.29-11.79-12.88-16.67-20.14-.48-.72-1.7-1.41-.7-2.78,2.69,1.1,3.15,5.1,7.17,5.5-3.54-8.91-5.56-17.82-10.68-25.59-.12,4.99.43,9.86.25,14.75-.08,2.2-.59,4.57.39,6.59,1.39,2.81.24,4.67-1.61,6.56-5.22,5.33-11.49,7.88-19,7.65-5.16-.16-5.17,0-2.86,4.78,1.3,2.7,2.59,5.41,3.96,8.06,4.84,9.34,8.39,19.41,15.6,27.42,1,1.11,2.09,2.39,2.02,4.13-1.03-.04-1.63-1.8-2.67-.93-.48.4-.37,1.68-.3,2.55.85,10.73,1.7,21.46,2.56,32.19-.32.23-.64.46-.97.69-4.65,3.26-9.53,6.24-14.53,8.87-.22-14.82,1.75-29.54,1.77-44.35.01-6.32-.34-12.65-1.92-18.65-1.38-5.22-4.13-10.14-6.67-14.98-1.84-3.49-3.1-7.19-4.66-10.78-.19-.46-.49-1.33-.37-1.41,4.28-2.68,0-4.99-.39-7.39-.24-1.5-1.17-2.89-1.79-4.33,2.45.78,3.65,3.03,5.41,4.62.31.51.62,1.01.93,1.52,2.72,4.79,10.39,6.8,16.04,3.97,4.81-2.42,8.21-5.76,7.63-11.91-.57-6.05-.38-12.09-1.28-18.2-1.27-8.66-1.19-17.44-4.79-25.74-1.01-2.34-1.78-4.05-4.2-5.04-2.33-.95-4.09-2.34-4.09-5.49.01-2.2-1.51-3.91-4.3-3.01-.45.15-1.32.33-1.37.21-1.85-4.05-5.6-1.57-8.34-2.46-4.06-4.11-9.54-5.79-14.48-8.34-4.17-2.14-8.61-3.72-12.93-5.56-3.74-1.59-6.56,1.12-9.41,2.45-6.86,3.21-13.87,5.42-21.45,5.32-2.93-.04-3.87,1.03-3.84,3.91.11,11.51.32,23.03-.07,34.54-.4,11.93-1.46,23.84-2.89,35.8-.29-1.37-.83-2.74-.84-4.11-.07-11.89-1.66-23.77-.76-35.64.77-10.14,2.1-20.23,3.45-30.3.38-2.81.2-4.25-3.05-4.2-5.46.07-8.7-3.64-11.89-7.36.25-1.69.5-3.38.74-5.07,1.76.75,3.51,1.5,5.26,2.26,3.36,1.22,6.65,1.38,9.95-.34,2.25-1.18,4.55-2.38,7.25-2.13,1.45-.07,3.19.63,3.87-1.47,3.97-1.12,7.99-1.52,11.87-3.55,3.74-1.96,7.34-5.39,12.27-4.39.34,6.42,4.06,8.87,10.07,10.53,11.6,3.21,22.6,8.17,31.99,16,6.94,5.8,11.3,13.6,15.83,21.23,1.86,3.14,3.48,6.42,5.21,9.64,2.35,5.5,4.7,11,7.05,16.51,5.26,13.86,10.05,27.86,12.83,42.47Z"/>
        <path class="cls-1" d="m119.62,120.04c-1.75-.75-3.5-1.51-5.25-2.26-1.92-2.28-3.89-4.53-5.76-6.86-5.67-7.05-8.27-15.37-9.27-24.13-1.37-12.04-3.33-23.97-5.74-35.83,2.78-2.7,6.17-4.37,9.82-5.38,9.33-2.59,18.8-2.23,28.26-.9,6.66.94,13.46,1.45,19.6,4.64,1.84,3.8,3.87,7.52,4.72,11.73-2.31.21-2.86,3.65-5.55,3.09-3.26-.68-2.8,1.3-2.27,3.17,2.12,7.44,3.19,14.92,1.99,22.68-1.21,7.81-4.3,14.44-10.2,19.94-5.85,5.45-13.11,7.66-20.33,10.11Z"/>
        <path class="cls-3" d="m171.49,41.86c-.06,1.34-.16,2.69-.29,4.03-.34,3.58-.92,7.16-1.49,10.74-6.05-2.68-11.81-6.1-18.45-7.31-6.14-3.19-12.93-3.7-19.6-4.64-.82-.12-1.64-.22-2.47-.32-.82-.1-1.64-.19-2.47-.28-.82-.08-1.64-.15-2.47-.21-.82-.06-1.65-.11-2.47-.15h-.03c-6.14-.27-12.28.17-18.34,1.86-.87.24-1.72.52-2.55.84-.22.08-.43.16-.64.26-.26.1-.52.21-.78.34,0-.01-.02-.01-.02.01-.42.18-.84.39-1.25.61-.2.1-.41.21-.61.34-.2.11-.41.23-.61.36-.2.12-.4.25-.59.38-.2.13-.39.26-.58.4-.19.14-.38.28-.57.43-.19.14-.37.29-.55.45-.22.18-.43.37-.64.56-.15.13-.29.26-.43.4-.01-.08-.01-.15-.02-.23-.11-1.4-.2-2.78-.24-4.16-.55-14.53,2.68-27.91,15.01-37.58C120.06-.21,133.62-2.11,147.95,2.19l.22.12h.24c.3.05.6.11.9.17.68,2.29,2.89,2.84,4.56,3.98,7.04,4.8,12.18,11.08,15.23,19.07,2.08,5.43,2.6,10.87,2.39,16.33Z"/>
        <path class="cls-8" d="m220.08,256.39c.07-1.74-1.02-3.02-2.02-4.13-7.2-8.01-10.75-18.07-15.59-27.41-1.38-2.66-2.67-5.36-3.97-8.06-2.31-4.79-2.29-4.94,2.86-4.79,7.5.23,13.78-2.32,19-7.65,1.85-1.89,3-3.74,1.61-6.56-.99-2.01-.47-4.39-.39-6.59.18-4.89-.37-9.76-.25-14.75,5.12,7.77,7.14,16.68,10.68,25.59-4.02-.41-4.48-4.4-7.17-5.5-1,1.37.22,2.06.7,2.78,4.89,7.26,10.62,13.85,16.67,20.14,1.73,1.79,2.43,4.85,5.6,5.08,2.2,4.4,4.83,8.6,5.95,13.5,2.29,10.08-.49,19.21-7.26,23.41-6.83,4.25-17.4,2.67-25-3.73-.5-.42-.95-.89-1.43-1.33Z"/>
        <path class="cls-1" d="m70.96,162.17c-.08-1.47-.32-3.01-1.98-3.48-1.7-.48-2.69.83-3.48,2-1.05,1.57-1.86,3.3-2.78,4.96-.17-5.09.21-9.99.59-14.89.32-4.04.79-8.08-.17-12.08-.91-3.76-2.05-4.31-5.19-2.3-.89.57-1.27.4-1.96-.06-1.34-.9-2.19-.03-2.9.98-.49.71-.45,1.99-1.67,1.87-2.74-.26-3.18,1.64-3.7,3.61-.26.94-.14,2.15-1.39,2.61-3.13,1.15-3.9,4-4.72,6.75-.74,2.5-1.39,5.03-1.96,7.58-2.23,10.04-5.34,19.94-5.14,30.39.07,3.4.33,6.83,3.27,9.27,7.04,3.29,13.37.96,19.54-2.52.26-.35.53-.7.79-1.05.09.07.18.13.27.2-.28.35-.56.7-.83,1.05-.01.23-.02.47-.02.7,5.11-1.01,3.82-6.79,6.91-9.3-.17-2.11,1.29-3.64,2.01-5.42,2.7-6.71,4.87-13.52,4.51-20.87Zm-26.18,2.53c.08-5.42.53-10.8,2.05-17.08,1.09,4.83-.18,8.46-.66,12.13-.15,1.15-.71,2.26.18,3.34.45-.28.55-.2.27.26-.22.86-.78,1.37-1.63,1.56-.08.06-.15.13-.24.17-.04,0-.14-.1-.14-.14.04-.09.11-.16.17-.24Zm-1.96,1.72l.14-.21.08.23-.22-.02Zm4.33,19.51c-1-3.14-2-6.28-2.99-9.42,3.43,2.37,3.58,5.77,3.96,9.11-.32.1-.65.2-.97.31Zm4.97-42.99c1.16,3.49-.4,6.83-.38,10.25.01.77-.38,1.53-.43,2.3-.07,1-.41,2.38.97,2.61,1.55.26,1.84-1.05,1.98-2.3.52-4.66,1.06-9.31,1.61-13.97.06-.48.27-.94,1.28-1.39-.21,2.65-.38,5.3-.64,7.94-.2,2.08-.27,4.21-.85,6.19-.64,2.17.91,1.87,2.52,2.32-3.08,2.55-6.11,3.94-9.57,5.32,1.93-6.47,1.56-13.07,3.51-19.27Zm1.93,40.69c.46-4.51,2.08-8.52,5.21-11.9-.82,4.36-2.89,8.18-5.21,11.9Z"/>
        <path class="cls-2" d="m119.62,120.04c7.23-2.46,14.48-4.66,20.33-10.11,5.9-5.5,8.99-12.13,10.2-19.94,1.2-7.76.13-15.24-1.99-22.68-.53-1.87-1-3.86,2.27-3.17,2.69.56,3.24-2.88,5.55-3.09,1.65,3.91,1.88,8.19,3.1,12.34,8.25-9.55,10.33-10.3,16.18-5.97,2.41,7.55.37,14.64-5.73,19.71-1.9,1.58-3.89,3.05-5.84,4.57-2.53.2-3.69,1.85-3.95,4.11-.26,2.29-1.04,4.3-2.48,6.04-3.72,4.52-7.55,8.9-13,11.51-1.31.63-3.09.93-3.57,2.75,0,0,0,0,0,0-1.4.21-3.17-.55-3.87,1.47-2.7-.25-5,.95-7.25,2.13-3.3,1.73-6.59,1.56-9.95.34Z"/>
        <path class="cls-8" d="m179.45,43.9c0,1.38-.05,2.75-.14,4.13-.3,4.43-1.1,8.83-2.51,13.16-2.37-1.52-4.73-3.04-7.09-4.56.57-3.58,1.15-7.16,1.49-10.74.13-1.34.23-2.69.29-4.03.21-5.46-.31-10.9-2.39-16.33-3.05-7.99-8.19-14.27-15.23-19.07-1.67-1.14-3.88-1.69-4.56-3.98,16.68,4.08,27.96,17.02,29.76,34.32.25,2.38.38,4.74.38,7.1Z"/>
        <path class="cls-7" d="m81.09,149.13c.41,8.07-.92,16.06-1.09,24.12-.12,5.72-.88,11.42-1.32,17.13-1.02,13.12-1.97,26.24-3.05,39.35-.6,7.27-.48,14.59-1.7,21.81-.04.23-.22.43-.52,1.02,0-9.42-.41-18.49.12-27.5.48-8.2-.02-16.45,1.19-24.61.49-3.3-3.04-4.37-3.9-6.93,1.87-9.58,3.63-19.18,5.64-28.74,1.12-5.33,2.09-10.74,4.64-15.67Z"/>
        <path class="cls-4" d="m169.71,56.63c2.36,1.52,4.73,3.04,7.09,4.56-.51,2.07-1.03,4.15-1.54,6.22-5.85-4.33-7.93-3.58-16.18,5.97-1.21-4.14-1.44-8.43-3.1-12.34-.85-4.2-2.88-7.92-4.72-11.73,6.64,1.21,12.39,4.62,18.44,7.31Z"/>
        <path class="cls-5" d="m140.69,116.1c.48-1.82,2.26-2.12,3.57-2.75,5.45-2.61,9.28-6.99,13-11.51,1.44-1.75,2.22-3.75,2.48-6.04.26-2.26,1.42-3.91,3.95-4.11.96,5.45-.46,11.07,1.14,16.48-4.93-1-8.54,2.43-12.27,4.39-3.88,2.03-7.91,2.44-11.87,3.55Z"/>
        <path class="cls-1" d="m56.3,199.29c.23,1.18.23,2.09-.92,3.07-5.07,4.34-11.3,5.23-17.52,6.22-.63-2.33,2.37-3.73,1.55-6.1.47-.18,1.01-.6,1.39-.49,5.62,1.66,10.66.11,15.49-2.7Z"/>
        <path class="cls-5" d="m56.3,199.29c-4.83,2.81-9.87,4.35-15.49,2.7-.38-.11-.92.31-1.39.49-1.04-.77-1.42-1.89-1.64-3.09,7.05,3.29,13.37.96,19.54-2.52l.23.2c-.01.23-.02.47-.02.7-.08.27-.15.53-.23.8-.2.17-.41.35-.61.52-.13.07-.26.13-.39.2Z"/>
        <polygon class="cls-8" points="148.41 2.3 148.17 2.31 147.96 2.19 148.21 2.1 148.41 2.3"/>
        <path class="cls-1" d="m220.15,196.07c-.57-6.05-.38-12.09-1.28-18.2-1.27-8.66-1.19-17.44-4.79-25.74-1.01-2.34-1.78-4.05-4.2-5.04-2.33-.95-4.09-2.34-4.09-5.49.01-2.2-1.51-3.91-4.3-3.01-.45.15-1.32.33-1.37.21-1.85-4.05-5.6-1.57-8.34-2.46-2.04.85-5.68-1.46-6.09,2.35-.39,3.54-.48,7.12.7,10.8,1.66,5.2-.07,10.89,1.88,16.19-1.43-.85-2.43-1.65-3.32-2.58-1.64-1.72-3.61-2.02-5.76-1.36-2.33.72-1.73,2.81-1.55,4.32,1.39,11.67,5.44,22.34,12.5,31.81,2.45.78,3.65,3.03,5.41,4.62,4.57.67,8.86,2.83,13.78,1.67,3.28-.77,5.59-3,8.55-4.19-1.7,4-5.11,5.32-9.08,5.71-4.23.41-8.33-.29-12.32-1.67,2.72,4.79,10.39,6.8,16.04,3.97,4.81-2.42,8.21-5.76,7.63-11.91Zm-21.05-9.7c-2.88-4.54-5.76-9.08-8.65-13.62,4.72,3.44,8.17,7.7,9.57,13.31-.31.1-.61.21-.92.31Zm4.23,3.3c-.01-4.4.76-8.58,4.15-11.84-.13,4.34-3.45,7.62-4.15,11.84Zm5.77-13.46c-.15-.12-.31-.23-.46-.35.15-.13.28-.27.45-.37.04-.02.26.13.25.17-.06.19-.16.37-.24.55Zm.49-8.88c-3.68-2.4-7.83-3.53-11.99-4.64-1.1-.29-1.85-.95-2.14-2.07-1.79-6.93-3.84-13.82-2.9-21.24,1.26,6.47,2.56,12.94,3.76,19.43.29,1.55.63,2.65,2.55,2.8,2.68.21,3.91-.28,3.06-3.39-.96-3.52-1.55-7.14-2.11-10.75-.26-1.63-.05-3.34.25-5.08,1.79,3.68,1.66,7.81,2.65,11.67.23.88.4,1.81.38,2.71-.11,4.66,2.37,7.11,6.69,8.05l.04-.04c-.04-4.89-2.7-9.55-1.11-15.51,1.87,6.17,2.08,11.76,2.97,17.2.3,1.86-1.29,1.39-2.1.86Z"/>
        <path class="cls-1" d="m56.7,199.08c.2-.17.41-.35.61-.52-.2.17-.41.35-.61.52Z"/>
        <path class="cls-5" d="m195.56,202.5c4.57.67,8.85,2.83,13.78,1.67,3.28-.77,5.59-3,8.55-4.19-1.7,4-5.12,5.31-9.08,5.7-4.23.42-8.33-.28-12.33-1.67-.31-.51-.61-1.01-.92-1.52Z"/>
        <path class="cls-5" d="m136.82,117.57c.71-2.02,2.47-1.27,3.87-1.47-.68,2.1-2.42,1.4-3.87,1.47Z"/>
        <path class="cls-5" d="m58.18,156.89c-3.08,2.55-6.11,3.94-9.57,5.32,1.94-6.47,1.56-13.07,3.52-19.27,1.16,3.49-.4,6.84-.38,10.25,0,.77-.38,1.53-.43,2.3-.07,1-.41,2.38.97,2.61,1.55.26,1.84-1.05,1.98-2.3.52-4.66,1.06-9.31,1.61-13.97.06-.48.27-.95,1.27-1.4-.21,2.65-.38,5.3-.64,7.95-.2,2.07-.27,4.21-.85,6.18-.64,2.17.91,1.87,2.52,2.32Z"/>
        <path class="cls-5" d="m54.05,183.63c.46-4.51,2.07-8.52,5.21-11.9-.82,4.35-2.89,8.18-5.21,11.9Z"/>
        <path class="cls-5" d="m44.78,164.71c.09-5.42.53-10.8,2.05-17.08,1.09,4.83-.17,8.46-.65,12.13-.15,1.15-.72,2.26.18,3.34l.27.27c-.22.86-.78,1.36-1.63,1.56l-.21-.21Z"/>
        <path class="cls-5" d="m47.15,185.93c-1-3.14-1.99-6.28-2.99-9.42,3.43,2.37,3.59,5.77,3.96,9.11-.32.1-.65.21-.97.31Z"/>
        <path class="cls-5" d="m57.32,196.87c.26-.35.53-.7.79-1.05.09.07.18.14.27.2-.28.35-.55.7-.83,1.05,0,0-.23-.2-.23-.2Z"/>
        <polygon class="cls-5" points="42.82 166.42 42.96 166.21 43.05 166.45 42.82 166.42"/>
        <path class="cls-5" d="m46.35,163.09c.45-.28.55-.2.27.27,0,0-.27-.27-.27-.27Z"/>
        <path class="cls-5" d="m44.99,164.92c-.08.06-.15.13-.24.16-.03.01-.15-.11-.14-.14.03-.09.11-.16.16-.24,0,0,.21.21.21.21Z"/>
        <path class="cls-5" d="m209.83,164.78c-.04-4.89-2.71-9.55-1.12-15.51,1.87,6.17,2.08,11.76,2.97,17.21.3,1.85-1.29,1.39-2.1.86-3.68-2.4-7.83-3.53-12-4.64-1.09-.29-1.84-.95-2.13-2.07-1.79-6.93-3.84-13.82-2.9-21.24,1.26,6.48,2.56,12.94,3.76,19.43.29,1.55.62,2.66,2.54,2.81,2.68.21,3.91-.28,3.06-3.4-.96-3.51-1.55-7.14-2.11-10.74-.25-1.64-.04-3.35.26-5.08,1.78,3.68,1.65,7.81,2.65,11.67.23.88.4,1.81.38,2.71-.11,4.66,2.38,7.1,6.7,8.05,0,0,.23.18.23.18l-.19-.22Z"/>
        <path class="cls-5" d="m199.11,186.37c-2.88-4.54-5.77-9.08-8.65-13.62,4.71,3.44,8.17,7.7,9.56,13.31-.3.1-.61.21-.91.31Z"/>
        <path class="cls-5" d="m203.33,189.67c-.01-4.39.76-8.58,4.15-11.84-.13,4.34-3.45,7.62-4.15,11.84Z"/>
        <path class="cls-5" d="m209.1,176.21c-.15-.12-.31-.23-.46-.35.15-.13.29-.27.45-.37.04-.02.25.14.25.17-.05.19-.15.37-.23.55Z"/>
        <polygon class="cls-1" points="209.83 164.78 210.02 165 209.79 164.82 209.83 164.78"/>
      </g>
    </g>
  </g>
</svg>