<?xml version="1.0" encoding="UTF-8"?>
<svg id="Layer_2" data-name="Layer 2" xmlns="http://www.w3.org/2000/svg" viewBox="0 0 305.35 281.05">
  <defs>
    <style>
      .cls-1 {
        fill: #a8a6a4;
      }

      .cls-1, .cls-2, .cls-3, .cls-4, .cls-5, .cls-6, .cls-7, .cls-8, .cls-9, .cls-10, .cls-11, .cls-12, .cls-13 {
        stroke-width: 0px;
      }

      .cls-2 {
        fill: #fac893;
      }

      .cls-3 {
        fill: #eae3df;
      }

      .cls-4 {
        fill: #f9f7f3;
      }

      .cls-5 {
        fill: #928f8e;
      }

      .cls-6 {
        fill: #efede6;
      }

      .cls-7 {
        fill: #603818;
      }

      .cls-8 {
        fill: #e4b085;
      }

      .cls-9 {
        fill: #777575;
      }

      .cls-10 {
        fill: #d1d3d4;
      }

      .cls-11 {
        fill: #c6c2bf;
      }

      .cls-12 {
        fill: #8c553c;
      }

      .cls-13 {
        fill: #ddd8d4;
      }
    </style>
  </defs>
  <g id="Layer_1-2" data-name="Layer 1">
    <g>
      <g>
        <polygon class="cls-13" points="131.62 143.94 131.62 143.95 131.61 143.95 131.47 143.8 131.62 143.94"/>
        <path class="cls-1" d="m287.31,158.82c-3.36,1.81-5.7,4.83-8.59,7.21-.04.03-.07.06-.11.09-1.58,1.28-3.16,2.56-4.76,3.81-13.94,11.03-28.54,21.01-44.95,28.21-5.97,2.63-12.14,3.47-18.57,2.83.48-1.39,1.09-2.7,2.1-3.79,1.52-.62,2.24-1.83,2.52-3.37.27-.61.54-1.23.8-1.85,1.4-.42,2.44-1.14,2.35-2.81.15-.88.21-1.79.9-2.48,1.45-.25,2.08-1.39,2.84-2.49,2.86-4.14,5.1-8.64,7.15-13.19,3.22-7.18,5.57-14.63,5.75-22.63.07-2.91-1.72-5.44-1.33-8.35,8.56-1.71,16.92-3.94,23.84-9.7-.07,1.94-.1,3.89-.21,5.83-.13,2.12.46,2.6,2.33,1.31,4.1-2.85,8.32-5.52,12.88-7.57,1.39-.63,2.79-1.42,4.27-1.36.69.02,1.39.22,2.12.71.34.56.68,1.13,1.01,1.7.25.42.5.84.74,1.27.16.27.32.54.47.82h0c.3.55.6,1.09.88,1.63.24.44.46.88.69,1.32.04.09.09.18.13.27.21.43.42.86.62,1.3.09.17.17.35.25.53.24.53.48,1.07.7,1.61.2.48.4.97.58,1.47.08.19.15.38.22.57.2.56.4,1.13.58,1.7,1.62,5.1,1.04,10.29,1.8,15.4Z"/>
        <path class="cls-11" d="m257.04,121.61c-9.41,3.99-19.08,6.78-29.43,6.62-1.65-.02-4.16-.89-4.77.77-.53,1.43,2.15,2.07,3.21,3.27,1.15,1.31,2.41,2.53,3.68,3.72,1.34,1.25,1.66,3.41,3.68,4.02-.39,2.91,1.4,5.44,1.33,8.35-.18,8-2.53,15.45-5.75,22.63-2.05,4.55-4.29,9.05-7.15,13.19-.76,1.1-1.39,2.24-2.84,2.49,2.72-5.7,5.65-11.32,8.11-17.13,2.51-5.92,4.59-11.93,5.12-18.52.64-8.11-3.41-13.47-9.12-18.08-10.54-8.52-23.04-13.29-35.48-18.08-6.62-2.55-13.19-5.3-20.17-6.82-.81-.18-1.69-.37-2.68-1.74,6.1,1.42,11.73,1.78,17.32,2.43,5.27.61,10.16,2.5,15.22,3.83,4.97,1.31,7.33.27,9.4-4.39,3.05-6.88,5.44-13.81,3.76-21.56-.53-2.44-1.73-4.63-2.17-7.09,2.82,2.45,3.85,5.9,4.6,9.24,1.56,7.02,4.09,13.85,4.16,21.18.02,2.28,1.92,3.34,3.9,3,3.44-.59,6.77-1.54,8.85-4.93,1.87-3.03,3.15-6.35,5.02-9.39,0,3.61-1.32,6.77-2.96,9.82-1.81,3.35-2.83,6.88-2.32,10.71.35,2.67,1.54,3.94,4.67,3.48,9.61-1.43,18.51-4.89,27.25-8.92,1.48,5.86,1.84,4.37-4.44,7.9Z"/>
        <path class="cls-9" d="m200.89,160.17c-6.95,9.91-11.94,20.5-17.93,30.53-2.9-.54-5.56.89-8.31,1.06-8.16.48-14.92-2.95-17.82-12.01-1.63-5.06-2.88-10.24-2.91-15.63,2.79-.93,5.56-1.89,7.88-3.79,2.06.1,4.12.19,6.18.29,8.48.42,16.96.83,25.41-.45h7.5Z"/>
        <path class="cls-3" d="m243.25,32.96c-.87-.06-1.74-.01-2.5-.6-6.62-5.19-14.39-7.28-22.34-8.76-1.14-.21-2.27-.41-3.41-.6-2.13-.36-4.24-.62-6.36-.78-9.02-.7-17.98.33-26.93,2.59-9.98,2.53-19.53,5.95-28.73,10.58-9.72,4.89-18.52,10.98-26.51,18.33-5.29,4.85-9.92,10.39-15.07,15.29-8.65,8.22-16.26,17.29-24.24,26.08-5.05,5.56-9.42,11.66-13.49,17.9-4.01,6.15-7.29,12.84-9.83,19.81-.22-3.87,1.84-7.29,2.16-11.06,2.53-3.07,3.62-6.93,5.62-10.3,7.18-12.09,16.34-22.67,25.51-33.22,11.04-12.71,22.2-25.39,35.44-35.85,19.69-15.56,41.98-24.55,67.14-24.88,1.02-.03,2.04-.02,3.07-.01,2.13.03,4.23.16,6.3.4,8,.91,15.65,3.36,22.89,7.53,3.96,2.29,7.96,4.36,11.28,7.55Z"/>
        <path class="cls-8" d="m114.29,168.2c-.59,1.04-.4,2.06-.06,3.16.55,1.77.99,3.58,1.42,5.39,1.7,7.18.66,13.78-4.64,19.19-9.08,9.27-19.09,17.05-32.38,19.29-1.19.2-2.36.51-3.57.17,1.35-2.91,4.98-4.21,5.47-7.73.91-.92,1.82-1.84,2.74-2.76.14-.42.27-.84.41-1.26,0,0-.06.07-.06.07,6.25-4.42,12.4-8.96,17.61-15.13-1.67-.35-2.97-.53-4.2-.9-5.1-1.56-7.02-5.54-5.15-10.51,2.02-5.34,7.8-7.27,14.06-4.69,3.13,1.29,3.48,1.06,3.23-2.3-.35-4.59-2.55-8.53-4.53-12.55.61.19,1.4.2,1.79.6,2.28,2.38,4.5,4.89,5.44,8.11.43,1.49,1.09,1.94,2.44,1.86Z"/>
        <path class="cls-2" d="m187.91,205.24c-2.46-.72-3.95-2.08-5.05-4.13-.57-1.08-1.13-2.09-2.34-2.55-2.9,5.85-6.66,8.29-12.25,7.62-3.05-.37-6.08-.61-9.15-.52-2.17.07-4.24.64-5.59,2.31-1.63,2.02-3.73,2.89-6.05,3.63-1.45.46-2.9,1.03-4.22,1.78-1.25.71-3.21,1.32-2.52,3.27.64,1.8,2.44,1.48,3.98,1.2,1.52-.28,3.03-.79,4.76-.37-.65,1.38-1.76,1.7-2.57,2.37-.9.75-2.27,1.34-1.92,2.77.4,1.65,1.94,1.49,3.25,1.48.91-.01,1.92-.58,2.1,1.1.23,2.06,1.67,2.31,3.4,1.77.6-.2,1.53-.85,1.8-.33,2.51,4.77,5.07.85,7.2-.16,3.35-1.58,6.45-3.89,10.26-4.09,7.66-.4,13.49-3.63,17.72-10.08,1.06-1.6,2.05-3.73,4.49-3.96-2.65-.55-4.81-2.38-7.3-3.11Zm-37.48,12.2c-.1,0-.2-.21-.29-.33.17-.07.34-.2.51-.2.1.01.21.21.32.33-.19.08-.37.21-.54.2Z"/>
        <path class="cls-2" d="m302.32,169.28c-4.32,4.46-8.84,8.27-15.72,6.2,3.69-5.54,5.18-11.74,5.25-18.29.1-9.12-3.09-17.34-7.36-25.18-.96-1.77-1.12-4.08-3.18-5.18,1.67-2.89,3.42-6,7.3-5.64,3.76.34,5.26,3.57,6.63,6.59,2.31,5.1,3.77,10.48,5.02,15.92,1.12,4.91,2.29,9.8,4.17,14.46,1.71,4.23,1.06,7.85-2.11,11.12Z"/>
        <path class="cls-5" d="m233.41,140.01c-2.02-.61-2.33-2.78-3.67-4.02-1.28-1.19-2.53-2.41-3.68-3.72-1.06-1.21-3.74-1.84-3.21-3.27.61-1.66,3.12-.79,4.77-.77,10.36.15,20.02-2.64,29.44-6.62-.05,2.9,1.17,5.77.21,8.7-6.92,5.76-15.28,7.99-23.85,9.7Z"/>
        <path class="cls-4" d="m82.36,149.86c-2.63-.69-5.33-1.39-6.65-4.06-.78-1.57-1.9-1.94-3.43-1.85-5.05.3-10.06,1.28-14.53,3.45-10.49,5.07-17.62,13.06-20.34,24.78-.58,2.5.51,4.75.01,6.82-1.02,4.23-.39,8.26.74,12.15.65,2.23.75,5.42,4.14,5.99.01,1.53.01,3.05.02,4.58l-.18.16c-4.68-5.21-6.42-11.66-7.7-18.3-.22-1.17-.46-2.34-.69-3.52.19-3.5.37-7,.56-10.51,2.66-11.21,9.34-19.13,19.71-24.04.38-.18.69-.51,1.03-.78,2.57-.84,5.36-1.09,7.67-2.7,4.01.46,8.01-1.59,12.03-.07,2.31,2.85,5.78,4.58,7.61,7.9Z"/>
        <path class="cls-8" d="m291.85,157.19c-.07,6.55-1.56,12.75-5.25,18.29-4.43-1.5-5.1-3.55-2.17-7.47,2.08-2.77,3.84-5.52,2.88-9.19-.76-5.11-.18-10.3-1.8-15.4-.18-.57-.38-1.14-.58-1.7-.07-.19-.14-.38-.22-.57-.18-.5-.38-.99-.58-1.47-.22-.54-.46-1.08-.7-1.61-.08-.18-.16-.36-.25-.53-.2-.44-.41-.87-.62-1.3-.04-.09-.09-.18-.13-.27-.23-.44-.45-.88-.69-1.32-.28-.54-.58-1.08-.88-1.62h0c-.15-.29-.31-.56-.47-.83-.24-.42-.48-.85-.74-1.27-.33-.57-.67-1.14-1.01-1.7.61-.55,1.22-1.1,1.83-1.65.28-.25.56-.5.84-.75,2.06,1.1,2.22,3.41,3.18,5.18,4.27,7.84,7.46,16.06,7.36,25.18Z"/>
        <path class="cls-11" d="m117.26,163.96c-.49,1.76-1.98,2.83-2.97,4.24-1.36.08-2.01-.37-2.44-1.86-.94-3.22-3.16-5.73-5.44-8.11-.38-.4-1.18-.41-1.78-.6-2.7-4.7-6.37-8.41-11.26-10.8-2.54-1.24-5.15-2.32-7.73-3.47,3.59-.89,6.74.68,9.86,1.96,7.89,3.24,14.2,8.65,19.78,14.96.92,1.04,1.79,2.2,1.98,3.68Z"/>
        <path class="cls-11" d="m63.84,132.8c-1.79,2.91-1.11,6.11-1.12,9.23-2.31,1.61-5.1,1.86-7.67,2.7-1.57-9.13,2.82-18.34,10.95-22.99-.32,3.77-2.38,7.19-2.16,11.06Z"/>
        <path class="cls-4" d="m80.53,207.66c-.49,3.52-4.12,4.81-5.47,7.73-7.57,1.94-14.39-.33-21.03-3.7,0,0,.12-.12.12-.12,2.45-.05,4.64,1.06,6.87,1.76,6.2,1.96,11.79.65,16.05-4.27.94-1.09,2.08-1.49,3.46-1.39Z"/>
        <path class="cls-4" d="m54.03,211.69c-3.09-1.06-5.63-2.94-7.8-5.34,0,0,.05-.04.05-.04,1.7.55,3.38,1.21,5.12,1.63,1.97.49,2.93,1.58,2.75,3.62l-.12.12Z"/>
        <path class="cls-4" d="m46.23,206.35c-1.75-1.14-3.16-2.58-4.09-4.46,0,0,.19-.17.19-.17,2.25.73,4.93,1.08,3.95,4.59l-.05.04Z"/>
        <path class="cls-11" d="m261.33,110.77c.01.08-.08.18-.12.27-.02-.27-.05-.55-.07-.82.07.18.15.36.19.55Z"/>
        <path class="cls-7" d="m105.93,172.48c-6.26-2.58-12.04-.65-14.06,4.69-1.88,4.97.05,8.95,5.15,10.51,1.23.37,2.52.55,4.2.9-5.21,6.15-11.34,10.68-17.56,15.09-.02.02-.03.03-.05.04.01-.02.01-.04.02-.06,1.79-5.21,3.93-10.3,5.04-15.74,1.97-9.72,2.85-19.37-1.09-28.86-.87-2.98-2.3-5.65-4.32-8.01-.3-.39-.6-.79-.9-1.18-1.83-3.32-5.3-5.05-7.61-7.9,3.73-.28,7.27.86,10.89,1.4,2.58,1.15,5.19,2.23,7.73,3.47,4.89,2.39,8.56,6.1,11.26,10.8.24.5.49,1,.74,1.5.5,1,1,2,1.46,3.02,1.16,2.54,2.1,5.16,2.32,8.03.26,3.36-.09,3.59-3.22,2.3Z"/>
        <path class="cls-11" d="m193.39,160.17c-8.45,1.28-16.93.87-25.41.45-2.06-.1-4.12-.19-6.18-.29-6.07-1.21-12.08-2.55-17.83-4.91-4.96-2.03-9.34-4.6-11.11-10.09l.13-.13c8.12,9.73,19.82,10.7,31.1,12.48,8.53,1.35,17.17,1.51,25.8,1.4,1.24,0,2.71-.46,3.5,1.09Z"/>
        <path class="cls-11" d="m214.95,193.81c-.28,1.54-1,2.75-2.52,3.37.27-1.55.76-2.94,2.52-3.37Z"/>
        <path class="cls-11" d="m218.1,189.15c.09,1.67-.95,2.39-2.35,2.81.08-1.53,1.01-2.34,2.35-2.81Z"/>
        <path class="cls-11" d="m132.99,145.2l-.13.13c-.72-.19-1.13-.66-1.24-1.38.74.1,1.18.53,1.37,1.25Z"/>
        <polygon class="cls-11" points="131.62 143.94 131.62 143.95 131.61 143.95 131.47 143.8 131.62 143.94"/>
        <path class="cls-6" d="m87.58,159.05c3.94,9.49,3.07,19.14,1.09,28.86-1.11,5.46-3.27,10.56-5.06,15.8,0,0,.06-.07.06-.07-.75.22-.51.76-.41,1.26-.91.92-1.82,1.84-2.74,2.76-1.38-.1-2.52.3-3.46,1.39-4.26,4.92-9.85,6.23-16.05,4.27-2.23-.7-4.42-1.81-6.87-1.76.18-2.04-.79-3.14-2.75-3.62-1.73-.43-3.41-1.08-5.12-1.63.98-3.51-1.71-3.86-3.95-4.59,0-1.52-.02-3.05-.03-4.57-3.39-.57-3.48-3.77-4.13-5.99-1.13-3.89-1.77-7.92-.75-12.15.5-2.08-.59-4.33,0-6.83,2.72-11.72,9.85-19.71,20.34-24.78,4.47-2.16,9.48-3.15,14.53-3.45,1.54-.09,2.65.28,3.43,1.85,1.32,2.66,4.02,3.36,6.65,4.06.3.39.6.79.9,1.18-1.06.88-.88,2.31-.21,2.85,1.83,1.48,2.44,3.97,4.53,5.16Z"/>
        <path class="cls-7" d="m83.27,204.9c-.11-.5-.34-1.04.41-1.26-.14.42-.27.84-.41,1.26Z"/>
        <path class="cls-12" d="m150.97,217.24c-.19.08-.37.21-.54.2-.1,0-.2-.22-.29-.33.17-.07.34-.2.51-.2.11,0,.21.2.33.33Z"/>
        <path class="cls-4" d="m87.58,159.05c-2.09-1.19-2.7-3.68-4.53-5.16-.67-.54-.85-1.96.21-2.85,2.02,2.36,3.45,5.03,4.32,8.01Z"/>
      </g>
      <g>
        <path class="cls-10" d="m276.52,128.52c.69.02,1.39.22,2.12.71.61-.55,1.22-1.1,1.83-1.65-1.81-20.19-7.91-39.47-17.98-56.94.55,3.56.84,7.11.92,10.67,7.09,14.62,11.63,30.58,13.11,47.21Zm-2.67,41.41c-7.23,32.69-26.35,62.02-54.17,81.84-.32.23-.64.46-.97.69-4.65,3.26-9.53,6.24-14.53,8.87-.31.17-.61.33-.92.49-19.51,10.11-40.61,15.23-62.73,15.23-23.4,0-46.48-6.02-66.76-17.39-.32-.18-.64-.36-.96-.55C30.33,234.79,4,189.45,4,140.52,4,83.38,39.97,31.93,93.57,12.3c.15-.06.3-.11.45-.17l.09-.03c8.96-3.24,18.21-5.52,27.64-6.81h.03c6.18-.86,12.44-1.29,18.75-1.29,10.28,0,20.49,1.14,30.41,3.4.09.02.17.04.27.06,2.53.58,5.1,1.25,7.65,2,.15.04.31.09.46.14,7.07,2.09,13.89,4.74,20.39,7.89,1.02-.03,2.04-.02,3.07-.01,2.13.03,4.23.16,6.3.4-9.2-5.17-18.97-9.3-29.1-12.26-.17-.05-.35-.1-.52-.15-2.56-.74-5.11-1.4-7.64-1.97-.11-.02-.21-.05-.32-.07-10.1-2.27-20.52-3.43-30.97-3.43-16.2,0-32.09,2.74-47.2,8.14-.19.06-.39.13-.58.2C37.27,28.39,0,81.51,0,140.52c0,50.75,27.52,97.73,71.81,122.62,20.87,11.72,44.64,17.91,68.72,17.91,22.45,0,44.77-5.42,64.57-15.67,5.48-2.84,10.83-6.08,15.91-9.64,30.52-21.36,51.06-53.75,57.71-89.71-.04.03-.07.06-.11.09-1.58,1.28-3.16,2.56-4.76,3.81Z"/>
        <path class="cls-10" d="m261.92,101.43c-.48,2.9-.53,5.86-.78,8.79.02.27.05.55.07.82.09.89.18,1.78.27,2.67-8.74,4.03-17.64,7.49-27.25,8.92-3.13.46-4.32-.81-4.67-3.48-.51-3.83.51-7.36,2.32-10.71,1.64-3.05,2.96-6.21,2.96-9.82-1.87,3.04-3.15,6.36-5.02,9.39-2.08,3.39-5.41,4.34-8.85,4.93-1.98.34-3.88-.72-3.9-3-.07-7.33-2.6-14.16-4.16-21.18-.75-3.34-1.78-6.79-4.6-9.24.44,2.46,1.64,4.65,2.17,7.09,1.68,7.75-.71,14.68-3.76,21.56-2.07,4.66-4.43,5.7-9.4,4.39-5.06-1.33-9.95-3.22-15.22-3.83-5.59-.65-11.22-1.01-17.32-2.43.99,1.37,1.87,1.56,2.68,1.74,6.98,1.52,13.55,4.27,20.17,6.82,12.44,4.79,24.94,9.56,35.48,18.08,5.71,4.61,9.76,9.97,9.12,18.08-.53,6.59-2.61,12.6-5.12,18.52-2.46,5.81-5.39,11.43-8.11,17.13-.69.69-.75,1.6-.9,2.48-1.34.47-2.27,1.28-2.35,2.81-.26.62-.53,1.24-.8,1.85-1.76.43-2.25,1.82-2.52,3.37-1.01,1.09-1.62,2.4-2.1,3.79-1.34,1.82-2.89,3.53-3.98,5.48-1.92,3.42-4.52,4.28-8.07,2.89-.99-.4-2.04-.66-3.07-.99-2.65-.55-4.81-2.38-7.3-3.11-2.46-.72-3.95-2.08-5.05-4.13-.57-1.08-1.13-2.09-2.34-2.55-1.61-3.38,1.85-5.17,2.44-7.86,5.99-10.03,10.98-20.62,17.93-30.53h-7.5c-.79-1.55-2.26-1.1-3.5-1.09-8.63.11-17.27-.05-25.8-1.4-11.28-1.78-22.98-2.75-31.1-12.48-.19-.72-.63-1.15-1.37-1.25h0s-.15-.15-.15-.15l.14.15h.01c.11.72.52,1.19,1.24,1.38,1.77,5.49,6.15,8.06,11.11,10.09,5.75,2.36,11.76,3.7,17.83,4.91-2.32,1.9-5.09,2.86-7.88,3.79-12.22,1.64-24.44.48-36.66-.16-.19-1.48-1.06-2.64-1.98-3.68-5.58-6.31-11.89-11.72-19.78-14.96-3.12-1.28-6.27-2.85-9.86-1.96-3.62-.54-7.16-1.68-10.89-1.4-4.02-1.52-8.02.53-12.03.07.01-3.12-.67-6.32,1.12-9.23,2.54-6.97,5.82-13.66,9.83-19.81,4.07-6.24,8.44-12.34,13.49-17.9,7.98-8.79,15.59-17.86,24.24-26.08,5.15-4.9,9.78-10.44,15.07-15.29,7.99-7.35,16.79-13.44,26.51-18.33,9.2-4.63,18.75-8.05,28.73-10.58,8.95-2.26,17.91-3.29,26.93-2.59,2.12.16,4.23.42,6.36.78,1.14.19,2.27.39,3.41.6,7.95,1.48,15.72,3.57,22.34,8.76.76.59,1.63.54,2.5.6,11.23,9.65,16.69,22.32,19.07,36.57.06.37.12.74.17,1.11.55,3.56.84,7.11.92,10.67.18,6.71-.39,13.42-1.49,20.12Z"/>
      </g>
    </g>
  </g>
</svg>