<?xml version="1.0" encoding="UTF-8"?>
<svg id="Layer_2" data-name="Layer 2" xmlns="http://www.w3.org/2000/svg" viewBox="0 0 281.06 319.48">
  <defs>
    <style>
      .cls-1 {
        fill: #a8a6a4;
      }

      .cls-1, .cls-2, .cls-3, .cls-4, .cls-5, .cls-6, .cls-7, .cls-8, .cls-9, .cls-10, .cls-11 {
        stroke-width: 0px;
      }

      .cls-2 {
        fill: #fac893;
      }

      .cls-3 {
        fill: #f3bf8f;
      }

      .cls-4 {
        fill: #f9f7f3;
      }

      .cls-5 {
        fill: #928f8e;
      }

      .cls-6 {
        fill: #efede6;
      }

      .cls-7 {
        fill: #603818;
      }

      .cls-8 {
        fill: #e4b085;
      }

      .cls-9 {
        fill: #d1d3d4;
      }

      .cls-10 {
        fill: #c6c2bf;
      }

      .cls-11 {
        fill: #ddd8d4;
      }
    </style>
  </defs>
  <g id="Layer_1-2" data-name="Layer 1">
    <g>
      <g>
        <path class="cls-11" d="m71.34,220.53c.37-9.67,0-19.34.88-29.01,1.66-18.48,3.58-36.91,8.54-54.88.47-1.68,1.08-3.33,1.6-5,2.11-6.8,6.3-11.72,12.68-15.05,10.05-5.26,20.5-9.52,31.16-13.32.78,2.01,2.14,3.64,3.94,4.7,9.17,5.44,18.63,5.2,28.35,1.45,3.09-1.19,4.5-4.32,7.42-5.54,9.31,2.97,18.11,7.18,27.07,10.99,2.81,1.78,5.63,3.56,8.44,5.34,4.02,3.39,5.93,8.06,7.48,12.85,4.87,14.99,6.75,30.54,8.54,46.11,2.42,21.1,2.66,42.21.1,63.32-.28,2.3-.32,4.66-1.3,6.83-.11.12-.17.25-.17.42-3.2-2.23-4.84-5.82-8.58-7.97-3.56-2.04-7-3.58-10.87-4.32-5.25-1-9.9,1.63-14.79,2.79.45-3.93.87-7.87,1.37-11.79,1.05-8.32,1.51-16.77,3.35-24.91,4.14-18.32,6.07-36.78,5.72-55.52-.02-1.07.46-2.3-.81-3.4-.75,1.13-.5,2.29-.55,3.37-.14,2.91-.02,5.82-.32,8.74-1,9.56-4.27,18.58-6.32,27.89-2.65,12.07-4.9,24.2-6.04,36.51-.85,9.08-4.17,16.95-11.25,22.91-7.69,6.48-16.86,9.32-26.71,10.09-2.63.21-5.35.5-7.97-.51-10.96-4.24-15.98-13.36-18.33-23.87-1.66-7.44-1.42-15.28-2.39-22.9-.85-6.68-1.75-13.35-4.25-19.76-3.86-9.9-6.91-20.01-7.05-30.86-.05-4.35-.55-8.75-.9-13.15-.53,3.22-.97,6.44-1.01,9.66-.17,14.86,1.56,29.54,4.54,44.08,3.03,14.75,4.66,29.68,5.93,44.66-2.02-.3-2.98-2.27-5.06-2.84-4.33-1.18-8.44-.29-12.63.19-3.96.45-7.19,2.93-9.89,5.26-2.11,1.82-4.52,3.66-6.27,6.01-1.18-2.09-1.01-4.43-1.38-6.69-1.17-7-1.42-14.02-1.38-21.08,0-.73-.28-1.35-.87-1.82Zm89.28,5.48c-1.24.27-1.9,1.25-2.72,2.09-2.51,2.6-5.04,5.26-8.63,6.34-6.41,1.93-11.35-1.07-15.81-5.12-1.96-1.78-3.56-3.96-5.33-5.96-.23.24-.46.48-.69.72,2.21,6.06,10.43,13.92,18.15,13.92,5.76,0,12.56-5.22,15.24-11.77.05-.08.13-.15.15-.23,0-.03-.11-.15-.14-.14-.09.03-.16.1-.23.15Zm9.11-17.52c-1.11.04-1.94.63-2.82,1.25-13.52,9.45-28.46,9.21-42.66.79-1.64-.97-3.06-2.57-5.63-2.89.51.81.71,1.23,1,1.55.46.52.95,1.05,1.5,1.47,9.14,6.87,19.23,10.58,30.74,8.31,7.05-1.39,13.52-4.26,18.07-10.28.4-.16.9-.24.88-.84,0-.08-.14-.22-.22-.22-.59-.03-.69.46-.85.86Zm-25.46-48.75c1.78-4.8,2.37-41.8.94-44.93-2.26,7.43-2.81,31.21-.94,44.93Zm18.13,64.42c-.02-.11-.03-.31-.05-.31-.19,0-.37.02-.56.04.02.11.03.31.05.31.19,0,.37-.02.56-.04Z"/>
        <path class="cls-2" d="m172.72,41.66h-.02s-.03-.06-.05-.09l.07.09Z"/>
        <path class="cls-1" d="m216.06,249.73c0-.16.06-.3.17-.42.73.22,1.13.72,1.37,1.43,3.14,9.35,3.45,18.82,1.22,28.38-.25,1.1-.88,2.11-1.33,3.16-.71.6-1.51,1.12-2.11,1.82-7.08,8.16-16.76,9.93-26.65,9.87-8.72-.05-17.38-1.91-25.31-5.9-5.1-2.57-9.98-5.59-15.33-8.63,3.14-1.48,5.74-2.63,8.48-3.48-5.41-.3-10.27,1.32-15.27,2.86-5.62,1.73-11.02,3.59-15.94,6.84-10.13,6.71-21.53,8.02-33.22,6.96-8.12-.74-14.09-5.66-19.15-11.76,0,0,0,0,0,0-.15-.25-.31-.49-.46-.74-.93-2.46-1.52-5-1.7-7.62.14-6.06-.3-12.21,2.81-18.47.64,1.66,1.03,2.69,1.43,3.73-.19,3.85,1.2,7.3,2.64,10.78,2.26,5.43,7.6,5.5,12.03,7.15.39.15,1.24-.25,1.54-.65,1.04-1.4,2.08-1.22,3.62-.76,2.73.81,4.18-.55,3.99-3.52-.11-1.73-.49-3.47-1-5.13-1.16-3.76-1.2-7.6-1.07-11.45.08-2.24,1.31-3.64,3.32-2.16,1.8,1.32,4.08,2.27,5.05,4.65.74,1.82,2.46,2.37,4.34,2.39.25-.19.51-.39.76-.58.42-.28.84-.55,1.26-.83,7.94,2.2,15.84,5.03,24.23,4.15,7.73-.8,15.43-2.01,23.09-3.38,6.74-1.21,13.4-2.88,20.09-4.35.21.54.52,1.06.6,1.62.2,1.38.09,3.04,1.95,3.24,1.93.21,3.39-.81,4.21-2.53.44-.93.68-1.99.86-3.01.46-2.55,2.36-3.5,4.52-3.6,2.52-.11,2.86,2.14,3.06,3.95.21,1.95.05,3.95-.12,5.92-.3,3.49-1.03,6.89-2.09,10.24-.61,1.93-.07,4.84,1.94,4.23,3.71-1.12,6.58,1.88,10.75.47,4.36-1.48,6.99-3.3,8.8-7.09,2.7-5.66,2.98-11.68,2.61-17.79Z"/>
        <path class="cls-6" d="m183.11,47.78c-2.42-1.29-4.41-3.32-6.77-4.74-1.12-.68-2.32-1.22-3.69-1.47.01.02.02.03.03.05-.23-.21-.46-.43-.7-.64-13.17-4.36-26.54-5.61-40.27-3.12-3.15.57-6.44.46-9.38,1.75-.06.03-.13.06-.19.09-.15.06-.29.13-.44.21-.45.23-.9.5-1.33.82.15-.82-.24-.68-.61-.29-.14.14-.28.28-.41.43-.45.07-.89.16-1.32.28-.16.04-.32.08-.48.14-.2.06-.39.12-.57.18-.15.05-.29.1-.43.16-.33.12-.66.26-.98.41-.18.08-.36.17-.53.26-.03.01-.06.03-.07.03-.17.09-.34.18-.5.28-1.51.85-2.88,1.94-4.16,3.19-.5.48-.99,1-1.46,1.53-.23.28-.45.56-.68.84-.06-.18-.11-.37-.14-.55-.02-.42-.04-.85-.05-1.27-.04-.86-.08-1.72-.11-2.58.06-.52.12-1.04.19-1.56.32-2.74.65-5.49.98-8.23.07-.22.14-.43.21-.65.15-.29.29-.58.44-.86.16-.51.32-1.02.48-1.53.07-.41.13-.82.2-1.24,1.52-1.52,3.85-2.37,4.5-4.62,3.38-11.8,13.53-15.14,23.48-17.57,9.6-2.34,19.26-.54,27.77,4.96,5.61,3.63,10.7,7.89,11.76,15.08.34,2.29,1.54.47,2.26.75.63,2.37,1.26,4.73,1.89,7.09.37,2.92.74,5.84,1.12,8.76-.11.26-.2.52-.26.79-.23.94-.15,1.89.22,2.84Z"/>
        <path class="cls-6" d="m120.37,40.73c-.34.03-.68.08-1.01.13.13-.14.27-.28.4-.42.28-.29.57-.45.63-.15.02.09.02.24-.02.44Z"/>
        <path class="cls-6" d="m120.38,40.72c.16-.11.32-.22.48-.32-.16.1-.32.21-.48.33h0Z"/>
        <path class="cls-5" d="m73,280.88c5.05,6.09,11.02,11.02,19.15,11.76,11.7,1.06,23.09-.26,33.22-6.96,4.92-3.26,10.32-5.11,15.94-6.84,5.01-1.54,9.86-3.16,15.27-2.86-2.74.85-5.34,1.99-8.48,3.48,5.35,3.03,10.23,6.06,15.33,8.63,7.92,3.99,16.58,5.85,25.31,5.9,9.89.06,19.57-1.72,26.65-9.87.6-.69,1.4-1.22,2.11-1.82-.62,5.14-3.95,8.48-7.92,11.07-9.92,6.48-20.86,6.69-32.05,4.58-7.77-1.46-15-4.32-21.51-8.86-9.84-6.85-19.17-5.59-28.88.81-12.15,8.01-25.5,11.02-39.71,6.2-7.29-2.47-12.79-7.14-14.41-15.22Z"/>
        <path class="cls-3" d="m75.09,257.78c-.4-1.03-.79-2.07-1.43-3.73-3.11,6.26-2.67,12.41-2.81,18.47-.93-.05-1.86-.06-2.78-.16-5.83-.64-7.4-2.44-7.26-8.27.1-1.19.21-2.38.31-3.57,1.12-6.31,1.25-12.69,1.37-19.07.08-4.45.53-8.84,2.12-13,1.29-3.39,2.9-6.64,6.74-7.91.58.47.87,1.1.87,1.82-.03,7.06.22,14.08,1.38,21.08.38,2.26.21,4.6,1.38,6.69.04,2.55.08,5.11.12,7.66Z"/>
        <path class="cls-4" d="m180.14,28.3c-.73-.28-1.92,1.54-2.26-.75-1.06-7.19-6.16-11.46-11.77-15.08-8.51-5.5-18.17-7.3-27.76-4.96-9.95,2.43-20.1,5.77-23.49,17.57-.64,2.24-2.97,3.1-4.5,4.62,1.32-5.46,3.81-10.4,6.7-15.17,9.42-12.51,22.06-16.76,37.02-13.46,14.51,3.2,22.19,13.52,26.04,27.23Z"/>
        <path class="cls-10" d="m126.44,98.46c.9-.48,2.02-.71,2.58.13,2.88,4.37,8.25,3.78,12.07,6.23.87.56,1.76.72,2.61.1,1.36-.99,2.9-.82,4.39-.78,3.66.1,7.13.17,9.78-3.25,1.51-1.96,4.19-.76,6.34-1.05.25,1.48-.05,3.18,1.68,4.04-2.93,1.22-4.34,4.35-7.42,5.54-9.72,3.75-19.18,3.99-28.35-1.45-1.79-1.06-3.16-2.69-3.94-4.7.08-1.6.17-3.21.25-4.81Z"/>
        <path class="cls-7" d="m119.35,40.87c-.18.18-.35.37-.51.55-.32.36-.63.72-.94,1.09-.54.66-1.05,1.35-1.5,2.06h-.01c-1.37,2.09-2.35,4.39-2.76,6.97-.29,1.86-.76,2.71-2.83,1.97-1.33-.48-2.76.09-4.11.46.5-1.94.99-3.87,1.48-5.8.23-.28.45-.56.68-.84.47-.53.96-1.05,1.46-1.53,2.53-2.48,5.43-4.33,9.04-4.93Z"/>
        <path class="cls-7" d="m120.38,40.72s-.01.01-.01.01c-.34.03-.68.08-1.01.13.13-.14.27-.28.4-.42.28-.29.57-.45.63-.15.03.09.03.23-.01.43Z"/>
        <path class="cls-7" d="m183.17,53.58c-4.37.8-6.53-.86-7.19-5.43-.06-.39-.16-.77-.29-1.14-.07-.21-.15-.41-.24-.61-.07-.16-.14-.33-.22-.49-.62-1.25-1.5-2.46-2.22-3.7-.11-.18-.21-.36-.31-.55-.01-.01-.02-.02-.02-.04-.01-.02-.02-.03-.03-.05,1.37.25,2.57.79,3.69,1.47,2.36,1.42,4.35,3.45,6.77,4.74,0,.48.01.96.01,1.44.02,1.45.03,2.9.05,4.36Z"/>
        <path class="cls-5" d="m72.55,280.15c.15.25.31.49.46.74-.15-.25-.31-.49-.46-.74Z"/>
        <path class="cls-10" d="m178.97,254.08c-6.69,1.47-13.35,3.14-20.09,4.35-7.65,1.37-15.36,2.57-23.09,3.38-8.39.87-16.29-1.96-24.23-4.15,0-2.08.33-4.22-.06-6.22-.65-3.36-.47-6.99-2.69-9.94-1.27-14.98-2.9-29.92-5.93-44.66-2.99-14.54-4.72-29.22-4.54-44.08.04-3.22.48-6.44,1.01-9.66.35,4.4.85,8.8.9,13.15.13,10.85,3.19,20.96,7.05,30.86,2.5,6.41,3.4,13.07,4.25,19.76.97,7.62.72,15.46,2.39,22.9,2.35,10.51,7.37,19.64,18.33,23.87,2.62,1.01,5.34.72,7.97.51,9.85-.77,19.02-3.62,26.71-10.09,7.08-5.96,10.4-13.82,11.25-22.91,1.15-12.31,3.39-24.45,6.04-36.51,2.04-9.31,5.31-18.33,6.32-27.89.31-2.92.18-5.83.32-8.74.05-1.08-.2-2.25.55-3.37,1.27,1.1.79,2.33.81,3.4.34,18.74-1.59,37.2-5.72,55.52-1.84,8.14-2.3,16.6-3.35,24.91-.5,3.93-.91,7.86-1.37,11.79-1.2,4.56-2.23,9.16-2.85,13.84Z"/>
        <path class="cls-2" d="m178.97,254.08c.62-4.68,1.64-9.28,2.85-13.84,4.89-1.17,9.54-3.8,14.79-2.79,3.87.74,7.31,2.28,10.87,4.32,3.74,2.14,5.38,5.74,8.58,7.97.37,6.11.09,12.13-2.61,17.79-1.8,3.79-4.44,5.61-8.8,7.09-4.16,1.41-7.03-1.59-10.75-.47-2.01.61-2.55-2.31-1.94-4.23,1.06-3.35,1.8-6.75,2.09-10.24.17-1.97.32-3.97.12-5.92-.19-1.81-.54-4.06-3.06-3.95-2.16.1-4.06,1.05-4.52,3.6-.18,1.03-.42,2.08-.86,3.01-.82,1.72-2.28,2.74-4.21,2.53-1.87-.2-1.75-1.86-1.95-3.24-.08-.56-.39-1.08-.6-1.62Zm20,15.94c1.48-4.18,2.48-8.4.77-12.81.04,4.29-1.26,8.49-.77,12.81Zm6.19-10.88c-.25,3.73-.5,7.47-.75,11.2,2.18-3.82,2.46-7.52.75-11.2Zm3.97,10.97c.3.03.61.07.91.1,1.65-3.64,1.31-7.44.53-11.28-.48,3.73-.96,7.46-1.44,11.18Z"/>
        <path class="cls-2" d="m108.82,241.5c2.21,2.95,2.03,6.58,2.69,9.94.39,2,.06,4.14.06,6.22-.42.28-.84.55-1.26.83-.25.19-.5.39-.76.58-1.88-.02-3.59-.57-4.34-2.39-.98-2.39-3.26-3.33-5.05-4.65-2.01-1.48-3.24-.08-3.32,2.16-.13,3.86-.09,7.69,1.07,11.45.51,1.66.89,3.4,1,5.13.19,2.98-1.26,4.33-3.99,3.52-1.54-.46-2.58-.63-3.62.76-.3.4-1.15.79-1.54.65-4.43-1.64-9.77-1.72-12.03-7.15-1.45-3.48-2.83-6.92-2.64-10.78-.04-2.55-.08-5.11-.12-7.66,1.75-2.34,4.16-4.18,6.27-6.01,2.7-2.34,5.93-4.81,9.89-5.26,4.19-.48,8.31-1.37,12.63-.19,2.08.57,3.04,2.54,5.06,2.84Zm-22.13,30.16c-.47-4.43-.94-8.85-1.41-13.28-1.3,4.67-1.43,9.18,1.41,13.28Zm5.25-1.29c0-4.27-.06-8.53-1.53-12.6-.89,4.38-.13,8.55,1.53,12.6Zm-10.72-.26c-.65-3.63-.23-7.37-1.23-10.96-.74,3.77-1.31,7.53,1.23,10.96Z"/>
        <path class="cls-10" d="m169.93,208.69c-4.55,6.02-11.01,8.88-18.07,10.28-11.51,2.27-21.61-1.43-30.74-8.31-.56-.42-1.04-.94-1.5-1.47-.29-.33-.49-.74-1-1.55,2.57.32,3.99,1.91,5.63,2.89,14.21,8.42,29.14,8.66,42.66-.79.88-.62,1.71-1.21,2.82-1.25l.2.2Z"/>
        <path class="cls-10" d="m144.27,159.74c-1.86-13.72-1.31-37.51.94-44.93,1.43,3.13.84,40.13-.94,44.93Z"/>
        <path class="cls-10" d="m160.84,226.23c-2.68,6.55-9.49,11.77-15.24,11.77-7.73,0-15.94-7.86-18.15-13.92.23-.24.46-.48.69-.72,1.77,2,3.37,4.18,5.33,5.96,4.46,4.05,9.4,7.05,15.81,5.12,3.59-1.08,6.12-3.73,8.63-6.34.81-.84,1.48-1.82,2.72-2.09l.22.22Z"/>
        <path class="cls-10" d="m162.4,224.16c-.19.02-.37.05-.56.04-.02,0-.03-.2-.05-.31.19-.02.38-.04.56-.04.02,0,.03.2.05.31Z"/>
        <path class="cls-10" d="m169.73,208.49c.17-.41.26-.89.85-.86.08,0,.22.14.22.22.03.6-.47.67-.88.84,0,0-.2-.2-.2-.2Z"/>
        <path class="cls-10" d="m160.62,226.01c.08-.05.15-.13.23-.15.03,0,.15.11.14.14-.03.09-.1.16-.15.24,0,0-.22-.22-.22-.22Z"/>
        <path class="cls-7" d="m171.98,40.98c.25.23.5.45.75.68-.46,0-.69-.24-.75-.68Z"/>
        <path class="cls-10" d="m109.55,259.07c.25-.19.5-.39.76-.58-.25.19-.5.39-.76.58Z"/>
        <path class="cls-4" d="m109.69,32.47c.16-.51.32-1.02.48-1.53-.16.51-.32,1.02-.48,1.53Z"/>
        <path class="cls-8" d="m198.97,270.02c-.49-4.33.81-8.52.77-12.81,1.71,4.41.71,8.63-.77,12.81Z"/>
        <path class="cls-8" d="m205.16,259.14c1.72,3.68,1.44,7.37-.75,11.2.25-3.73.5-7.47.75-11.2Z"/>
        <path class="cls-8" d="m209.13,270.11c.48-3.73.96-7.46,1.44-11.18.78,3.84,1.12,7.65-.53,11.28-.3-.03-.61-.07-.91-.1Z"/>
        <path class="cls-8" d="m86.69,271.66c-2.84-4.09-2.71-8.61-1.41-13.28.47,4.43.94,8.85,1.41,13.28Z"/>
        <path class="cls-8" d="m91.94,270.37c-1.66-4.05-2.42-8.22-1.53-12.6,1.47,4.07,1.53,8.33,1.53,12.6Z"/>
        <path class="cls-8" d="m81.22,270.11c-2.54-3.43-1.97-7.19-1.23-10.96,1,3.59.58,7.33,1.23,10.96Z"/>
      </g>
      <g>
        <path class="cls-9" d="m252.42,93.92c-17.51-23.01-42.12-40.32-69.53-48.98-.23.94-.15,1.89.22,2.84,0,.48.01.96.01,1.44,55.53,18.21,93.94,70.92,93.94,129.73,0,44.13-21.42,85.63-57.38,111.25-.32.23-.64.46-.97.69-4.65,3.26-9.53,6.24-14.53,8.87-.31.17-.61.33-.92.49-19.51,10.11-40.61,15.23-62.72,15.23-23.4,0-46.49-6.02-66.77-17.39-.32-.18-.64-.36-.96-.55C30.33,273.22,4,227.88,4,178.95c0-57.14,35.97-108.59,89.57-128.22.15-.06.3-.11.45-.17.03-.01.06-.02.09-.03,4.55-1.64,9.18-3.04,13.87-4.18-.04-.86-.08-1.72-.11-2.58.06-.52.12-1.04.19-1.56-4.98,1.18-9.89,2.63-14.73,4.36-.18.06-.39.13-.58.2C37.27,66.82,0,119.94,0,178.95c0,50.75,27.52,97.73,71.81,122.62,20.88,11.72,44.65,17.91,68.73,17.91,22.44,0,44.76-5.42,64.56-15.67,5.48-2.84,10.83-6.08,15.91-9.64,37.6-26.31,60.05-69.38,60.05-115.22,0-31.01-9.9-60.41-28.64-85.03Z"/>
        <path class="cls-2" d="m178.36,70.42c-1.5.49-1.69,1.43-1.94,2.5-2.07,8.69-5.12,16.91-11.3,23.63-.9.97-.66,2.18-.91,3.28-2.14.29-4.83-.9-6.33,1.06-2.65,3.42-6.12,3.36-9.78,3.25-1.5-.04-3.04-.21-4.39.78-.85.62-1.75.46-2.62-.1-3.82-2.45-9.18-1.86-12.07-6.23-.56-.84-1.69-.61-2.58-.13-.12-.85-.57-1.48-1.18-2.06-6.39-6.09-9.67-13.81-11.6-22.22-.45-1.96-1.06-3.37-3.17-4.41-5.34-2.65-6.78-9.35-3.8-15.8,1.35-.37,2.78-.94,4.11-.46,2.07.74,2.54-.11,2.83-1.97.41-2.58,1.39-4.88,2.77-6.97.85-1.31,1.85-2.54,2.95-3.7.13-.15.27-.29.41-.43.37-.39.76-.53.61.29.43-.32.88-.59,1.33-.82.14-.08.29-.15.44-.21.06-.03.13-.06.19-.09,2.94-1.29,6.23-1.18,9.38-1.75,13.73-2.49,27.1-1.24,40.27,3.12.06.42.28.67.72.68.1.19.2.37.31.55.72,1.24,1.6,2.45,2.22,3.7.08.16.15.32.22.49.09.2.17.4.24.61.13.37.23.75.29,1.14.66,4.57,2.82,6.23,7.19,5.43,4.79,5.82,2.38,14.53-4.81,16.84Z"/>
      </g>
    </g>
  </g>
</svg>