<?xml version="1.0" encoding="UTF-8"?>
<svg id="Layer_2" data-name="Layer 2" xmlns="http://www.w3.org/2000/svg" viewBox="0 0 281.05 319.48">
  <defs>
    <style>
      .cls-1 {
        fill: #a8a6a4;
      }

      .cls-1, .cls-2, .cls-3, .cls-4, .cls-5, .cls-6, .cls-7, .cls-8, .cls-9, .cls-10 {
        stroke-width: 0px;
      }

      .cls-2 {
        fill: #fac893;
      }

      .cls-3 {
        fill: #f9f7f3;
      }

      .cls-4 {
        fill: #928f8e;
      }

      .cls-5 {
        fill: #efede6;
      }

      .cls-6 {
        fill: #603818;
      }

      .cls-7 {
        fill: #e4b085;
      }

      .cls-8 {
        fill: #d1d3d4;
      }

      .cls-9 {
        fill: #c6c2bf;
      }

      .cls-10 {
        fill: #ddd8d4;
      }
    </style>
  </defs>
  <g id="Layer_1-2" data-name="Layer 1">
    <g>
      <path class="cls-8" d="m171.81,41.93c-.11-.02-.21-.05-.32-.07-10.09-2.27-20.51-3.43-30.96-3.43-16.2,0-32.09,2.74-47.2,8.14.04,1.38.13,2.76.24,4.16.15-.06.3-.11.45-.17.03,0,.06-.02.09-.03,8.96-3.24,18.21-5.52,27.64-6.81h.03c6.18-.86,12.44-1.29,18.75-1.29,10.27,0,20.49,1.14,30.4,3.4.09.02.18.04.27.06,2.53.58,5.1,1.25,7.65,2,.15.04.31.09.46.14.09-1.38.14-2.75.14-4.13-2.55-.74-5.11-1.4-7.64-1.97Z"/>
      <path class="cls-8" d="m281.05,178.95c0,45.84-22.45,88.91-60.05,115.22-5.08,3.56-10.43,6.8-15.91,9.64-19.8,10.25-42.12,15.67-64.56,15.67-24.08,0-47.85-6.19-68.72-17.91C27.52,276.68,0,229.7,0,178.95,0,119.94,37.27,66.82,92.75,46.77c.19-.07.39-.14.58-.2.04,1.38.13,2.76.24,4.16C39.97,70.36,4,121.81,4,178.95c0,48.93,26.33,94.27,68.81,118.59.32.19.64.37.96.55,20.28,11.37,43.36,17.39,66.76,17.39,22.11,0,43.21-5.12,62.72-15.23.31-.16.61-.32.92-.49,5-2.63,9.88-5.61,14.53-8.87.33-.23.65-.46.97-.69,35.96-25.62,57.38-67.12,57.38-111.25,0-60.14-40.17-113.9-97.74-130.92.09-1.38.14-2.75.14-4.13.17.05.35.1.52.15,28.58,8.34,54.31,26.05,72.44,49.87,18.74,24.62,28.64,54.02,28.64,85.03Z"/>
    </g>
    <g>
      <path class="cls-10" d="m95.17,86.83c.14-.17.29-.34.43-.51.55-.69,1.1-1.37,1.65-2.06,3.16-3.34,6.22-6.81,10.38-9.01,2.74,1.5,5.53,2.9,8.21,4.51,7.25,4.35,14.54,8.64,21.62,13.25,4.08,2.66,8.8,4.48,11.91,8.51.27.64.53,1.28.8,1.91-.07.81-.05,1.58.87,1.95h-.23s.22-.02.22-.02c.09,3.05.56,6.12,1.89,8.78,2.52,5.04,3.92,10.46,5.74,15.73,1.24,3.57,1.92,7.33,2.84,11-.26.08-.53.16-.79.23-2.27-6.86-4.54-13.72-8.12-20.06.08,1.46.4,2.85.79,4.21,1.58,5.59,3.12,11.18,4.77,16.75,2.58,8.67,5.24,17.31,7.88,25.96.22.73.47,1.55.96,2.08,6.97,7.54,14.01,15.02,21.79,21.72,5.2,4.48,9.81,9.8,16.29,12.67.5.57.89,1.38,1.52,1.66,2.98,1.34,4.06,3.76,4.19,6.8-.41,3.51-1.04,6.99-2.69,10.15-1.78,3.41-3.35,6.89-4.36,10.62-1.09.45-1.82,1.32-2.29,2.32-1.6,3.41-3.74,3.58-6.93,1.89-3.89-2.06-7.86-4.05-12.13-5.29-.89-.5-1.78-1-2.67-1.5-.74-1.53-2.25-2.11-3.6-2.87-11.83-6.56-23.48-13.44-33.84-22.17-6.4-5.39-12.28-11.34-14.89-19.83-1.83-5.96-4.06-11.81-5.96-17.77-4.78-15.05-9.49-30.07-8.36-46.17.05-.78.45-1.76-.45-2.38-.64.1-.72.58-.76,1-1.13,10.71-1.4,21.48.15,32.1,2.06,14.19,6.17,27.9,11.9,41.08,4.07,9.34,9.65,17.5,17.8,23.9,3.28,2.58,6.48,5.47,8.75,9.17,2.33,3.78,2.22,6.18-.34,9.84-2.72,3.89-6.55,6.73-9.46,10.42-6.54-.46-13.06-1.22-19.61-1.6-8.7-.51-17.33-.38-25.97.66-1.2-1.02-2.69-1.36-4.15-1.75-.68-3.7-3.72-4.05-6.59-4.65-4.97-10.75-7.82-22.12-9.5-33.78-4.2-29.09-2.4-57.84,5.17-86.23.08-.32.06-.67.09-1,.49-.83.8-1.71.74-2.69.6-.79.78-1.71.86-2.67,3.55-9.42,7.65-18.57,13.49-26.85Zm18.31,30.6c.36-1.26,1.67-2.22,1.25-4.1-1.72,1.2-1.77,2.56-1.25,4.1Z"/>
      <path class="cls-1" d="m95.07,246.45c8.64-1.04,17.27-1.17,25.97-.66,6.56.39,13.07,1.14,19.61,1.6,3.53,1.05,7.2,1.02,10.81,1.44.23.91.92,1.1,1.74,1.28,11.46,2.45,22.88,5.04,33.96,8.93,2.16.76,4.07,2.28,7.37,2.27-8.08-6.51-16.12-11.6-26-15.34,2.64-.74,3.9-2.19,5.25-3.44,3.23-2.98,7.15-5.43,8.6-9.96,4.27,1.24,8.24,3.24,12.13,5.29,3.2,1.69,5.34,1.52,6.93-1.89.47-1,1.2-1.87,2.29-2.32,2.38,1.45,4.18,3.48,5.58,5.85,2.2,3.72,7.17,5.64,11.18,4.05,1.39-.55,2.74-.81,4.19-.86,1.65.09,2.13,1.54,2.81,2.61,8.76,13.73,2.71,30.89-12.66,36.48-6.82,2.48-13.87,3.64-21.02,3.79-21.81.47-43.62.63-65.43.02-.89-.03-1.78-.18-2.66-.27-1.42-.33-2-1.2-1.92-2.67.1-1.89.12-3.77.44-5.67.26-1.51,1.01-3.34-.86-4.55-3.77-7.7-7.09-8.72-16.46-8.23-4.44.23-6.58,2.25-8.48,8.07-.63-1.56-2.94-2.24-2.32-4.45-.78-1.11-1.23-2.29-1.21-3.71.09-5.89.09-11.78.13-17.66Z"/>
      <path class="cls-2" d="m182.35,43.71c-1.07,7.42-2.68,14.73-4.84,21.89-1.01,3.34-1.13,6.39,1.14,9.18,1.15,1.42.96,2.59-.59,3.18-4.88,1.87-7.41,6.26-10.81,9.74-1.56,1.59-3.21,3.13-5.02,4.42-4.89,3.52-7.91,3.46-12.81.04-1.25-1.09-2.38-2.27-3.88-3.11-3.15-1.76-6.62-3.39-9.25-5.52-3.99-3.24-8.54-5.36-12.61-8.3-1.64-1.19-3.99-1.62-4.61-4,2.87-2.13,5.7-4.33,8.64-6.35,1.4-.96,2.15-1.97,2.29-3.75.27-3.47,1.07-6.87,2.82-9.94,1.43-2.5,3.54-4.09,6.54-3.93,3.19.17,5.46,1.77,6.67,4.8.77,1.91.91,3.91.93,5.93,0,.69.01,1.46.72,1.72.9.33,1.07-.54,1.34-1.12,4.03-8.65,10-15.33,19.17-18.69,1.59-.58.5-.96-.01-1.43.7-.17,1.27.15,1.91.37,4.17,1.41,7.76,4.26,12.25,4.86Z"/>
      <path class="cls-5" d="m182.35,43.71c-4.48-.6-8.08-3.45-12.25-4.86-.64-.22-1.21-.54-1.91-.37-1.57-.34-3.13-.67-4.7-1.01-.1-.5.05-1.22-.68-1.25-.22-.01-.47.61-.71.93-.88-.12-1.76-.23-2.64-.35-.35-.82-1.02-1.05-1.86-1.13-6.18-.58-12.4-1.19-18.55-.54-3.02.32-6.41-.52-9.14,1.65l-2.68.26c-1.3-.88-2.52-1.25-3.38.56-.43.06-.86.12-1.3.19-3.19-.55-6.2-.36-8.68,2.08l.05-.05c-1.1-.05-2.3-.36-2.84,1.08-.23.05-.46.11-.68.16-1.44-.23-3.81.64-2.9-2.39,1.43-4.77,1.15-9.78,2.07-14.61,0,0-.1-.01-.1-.01,1.83.08,3.24-.75,3.39-2.53.33-4.08,3.17-6.27,5.96-8.54,3.93-3.19,8.69-4.82,13.31-6.54,1.95-.73,4.57-2.1,6.68-.23,1.48,1.31,2.24,1.01,3.1-.45.36-.61.96-1,1.67-.96,5.1.28,10.27.31,14.83,3.07.8.48,1.57.71,2.45.91,4.2.95,7.53,3.43,10.82,6.09,2.21,1.79,3.28,5.11,6.8,5.17l-.14.03.46.8.24-.04c-.04.22-.06.44-.05.67-.82,2.12.32,3.49,1.82,4.72.05.24.09.47.14.71-.96,2.01.46,4.06-.09,6.11-.12.45.86.5,1.39.58.69,3.35.5,6.71.11,10.07Z"/>
      <path class="cls-6" d="m127.22,37.05l2.68-.26c9.85-.95,19.71-1.06,29.56.01.88.12,1.76.23,2.64.35.46.11.93.21,1.39.32,1.57.34,3.13.67,4.7,1.01.51.47,1.6.84.01,1.43-9.17,3.37-15.14,10.04-19.17,18.69-.27.58-.45,1.45-1.34,1.12-.71-.26-.72-1.03-.72-1.72-.01-2.02-.16-4.02-.93-5.93-1.21-3.02-3.49-4.62-6.67-4.8-3-.16-5.11,1.42-6.54,3.93-1.75,3.07-2.55,6.47-2.82,9.94-.14,1.78-.89,2.79-2.29,3.75-2.95,2.02-5.77,4.22-8.64,6.35-2.18.87-3.18-1.07-4.64-1.94-.41-2.6-2.34-4.45-3.37-6.75-2.81-6.22-4.7-12.61-4.03-19.53,1.12-.65,2.24-1.3,3.37-1.95.23-.05.46-.11.68-.16.95-.36,1.89-.72,2.84-1.08,0,0-.05.05-.05.05,2.89-.69,5.78-1.39,8.68-2.08.43-.06.86-.12,1.3-.19,1.16.01,2.31-.01,3.38-.56Z"/>
      <path class="cls-2" d="m84.32,240.05c2.87.6,5.91.95,6.59,4.65-.59,5.41-2.04,10.78-1.1,16.26.29,1.71.02,3.04-.97,4.36-2.08,2.77-3.84,5.74-5.25,8.9-3.21,7.22-.94,15.23,6.99,17.59-3.49,4.23-12.07,4.84-16.3.88-5.8-5.43-9.57-15.06-5.12-23.76,3.14-6.13,5.15-12.83,7.76-19.23,1.58-3.86,3.74-7.34,7.4-9.64Z"/>
      <path class="cls-2" d="m224.69,242.69c-1.44.05-2.79.31-4.19.86-4.02,1.59-8.98-.33-11.18-4.05-1.41-2.37-3.2-4.4-5.58-5.85,1.01-3.72,2.57-7.21,4.36-10.62,1.65-3.16,2.29-6.64,2.69-10.15,7.76,4.93,16.78,4.76,25.38,6.29,1.21.22,2.43.41,3.6.76,1.53.45,3.15,1.05,3.05,3.02-.1,2.07-1.85,2.38-3.42,2.45-3.23.14-6.47.13-9.71.1-1.57-.01-2.48.51-1.86,2.16,1.6,4.26,1.53,8.14-1.84,11.67-.73.77-1.43,2.01-1.29,3.34Z"/>
      <path class="cls-9" d="m205.08,204.43c-6.48-2.86-11.08-8.19-16.29-12.67-7.78-6.7-14.83-14.18-21.79-21.72-.49-.54-.74-1.35-.96-2.08-2.65-8.65-5.3-17.29-7.88-25.96-1.66-5.56-3.2-11.16-4.77-16.75-.39-1.37-.71-2.75-.79-4.21,3.58,6.34,5.85,13.2,8.12,20.06.26-.08.53-.16.79-.23-.93-3.67-1.61-7.43-2.84-11-1.83-5.27-3.22-10.68-5.74-15.73-1.33-2.66-1.81-5.73-1.89-8.78,4.2,7.66,7.11,15.89,10.23,24,4.93,12.84,9.37,25.86,13.07,39.12.44,1.57,1.13,2.9,2.59,3.74,3.1,3.16,6.21,6.32,9.31,9.47,5.85,6.32,11.71,12.64,17.55,18.97.97,1.05,2.26,2.02,1.29,3.75Zm-43.13-60.62c0-.17,0-.33,0-.5,0,0-.14,0-.22,0,0,.17,0,.33.01.5,0,0,.14,0,.22,0Z"/>
      <path class="cls-2" d="m98.46,272.27c1.9-5.83,4.03-7.84,8.48-8.07,9.37-.48,12.69.53,16.46,8.23,0,.85,0,1.71.01,2.56-.04.23-.08.46-.11.69-1.13,3.72-3.77,6.23-6.74,8.49-3.36,4.32-8.06,5.83-13.24,6.17-4.32.29-6.23-1.49-6.41-5.81-.17-4.16.31-8.26,1.56-12.26Z"/>
      <path class="cls-9" d="m114.44,69.3c1.46.86,2.46,2.81,4.64,1.94.62,2.38,2.97,2.81,4.61,4,4.07,2.94,8.62,5.07,12.61,8.3,2.62,2.13,6.1,3.76,9.25,5.52,1.5.84,2.63,2.02,3.88,3.11-.02,3.12-.04,6.24-.06,9.35-3.11-4.03-7.83-5.85-11.91-8.51-7.08-4.61-14.37-8.9-21.62-13.25-2.67-1.61-5.47-3.01-8.21-4.51,2.27-1.99,4.54-3.97,6.81-5.96Z"/>
      <path class="cls-3" d="m178.47,20.05c-3.52-.06-4.59-3.39-6.8-5.17-3.28-2.66-6.62-5.14-10.82-6.09-.88-.2-1.65-.43-2.45-.91-4.56-2.77-9.73-2.8-14.83-3.07-.71-.04-1.31.35-1.67.96-.86,1.46-1.61,1.77-3.1.45-2.11-1.87-4.73-.5-6.68.23-4.62,1.72-9.38,3.36-13.31,6.54-2.79,2.26-5.63,4.45-5.96,8.54-.14,1.78-1.56,2.61-3.39,2.53C113.31,11.41,128.48.53,142.98.03c10.14-.36,19.14,2.84,27.27,8.75,3.23,3.4,6.71,6.63,8.22,11.28Z"/>
      <path class="cls-7" d="m90.58,291.8c-7.94-2.36-10.2-10.37-6.99-17.59,1.4-3.15,3.16-6.13,5.25-8.9.99-1.32,1.27-2.65.97-4.36-.94-5.48.51-10.85,1.1-16.26,1.46.4,2.95.73,4.15,1.75-.04,5.89-.04,11.78-.13,17.67-.02,1.42.44,2.59,1.21,3.71-5.75,2.02-10.68,9.71-9.46,14.59.43,1.71,1.52,2.94,2.53,4.26,1.15,1.51,2.41,3.01,1.36,5.12Z"/>
      <path class="cls-4" d="m116.56,284.17c2.97-2.26,5.61-4.77,6.74-8.49.04-.23.08-.46.11-.69,0-.85,0-1.71-.01-2.56,1.87,1.21,1.11,3.03.86,4.55-.32,1.89-.34,3.77-.44,5.67-.08,1.47.51,2.34,1.92,2.67-3.09-.13-6.26.36-9.17-1.15Z"/>
      <path class="cls-3" d="m110.4,41.07c-1.12.65-2.24,1.3-3.37,1.95-1.47-6.63-.03-12.86,2.54-18.95-.93,4.84-.64,9.84-2.07,14.61-.91,3.03,1.47,2.16,2.9,2.39Z"/>
      <path class="cls-3" d="m182.24,33.64c-.54-.08-1.51-.13-1.39-.58.55-2.06-.87-4.1.09-6.11.9,2.14,1.29,4.38,1.3,6.69Z"/>
      <path class="cls-3" d="m180.8,26.24c-1.5-1.23-2.64-2.6-1.82-4.72,1.24,1.33,1.55,3.01,1.82,4.72Z"/>
      <path class="cls-9" d="m151.03,105.39c-.92-.37-.95-1.14-.87-1.95.57.53.82,1.19.87,1.95Z"/>
      <path class="cls-9" d="m151.46,248.83c-3.61-.42-7.28-.39-10.81-1.44,2.91-3.69,6.74-6.53,9.46-10.42,2.56-3.65,2.67-6.06.34-9.84-2.28-3.69-5.47-6.59-8.75-9.17-8.15-6.4-13.73-14.56-17.8-23.9-5.74-13.18-9.84-26.89-11.9-41.08-1.54-10.62-1.28-21.4-.15-32.1.04-.42.13-.9.76-1,.9.62.5,1.6.45,2.38-1.13,16.11,3.58,31.12,8.36,46.17,1.89,5.96,4.12,11.81,5.96,17.77,2.61,8.49,8.49,14.43,14.89,19.83,10.36,8.73,22.01,15.61,33.84,22.17,1.35.75,2.86,1.34,3.6,2.87-1.08.18-1.96-.4-2.81-.87-1.36-.75-2.3-.75-3.37.64-5.92,7.73-13.84,13.06-22.07,17.99Z"/>
      <path class="cls-4" d="m151.46,248.83c8.23-4.93,16.14-10.25,22.07-17.99,1.07-1.4,2.02-1.39,3.37-.64.86.47,1.73,1.05,2.81.87.89.5,1.78,1,2.67,1.5-1.45,4.53-5.37,6.98-8.6,9.96-1.35,1.24-2.61,2.7-5.25,3.44,9.88,3.74,17.92,8.83,26,15.34-3.31,0-5.22-1.51-7.37-2.27-11.08-3.89-22.51-6.48-33.96-8.93-.83-.18-1.51-.37-1.74-1.28Z"/>
      <path class="cls-9" d="m113.48,117.43c-.52-1.54-.47-2.9,1.25-4.1.41,1.87-.9,2.84-1.25,4.1Z"/>
      <path class="cls-3" d="m159.46,36.81c-9.85-1.07-19.7-.96-29.56-.01,2.73-2.17,6.12-1.33,9.14-1.65,6.15-.65,12.37-.05,18.55.54.84.08,1.51.31,1.86,1.13Z"/>
      <path class="cls-3" d="m122.55,37.8c-2.89.69-5.78,1.39-8.68,2.08,2.47-2.44,5.49-2.63,8.68-2.08Z"/>
      <path class="cls-3" d="m127.22,37.05c-1.07.55-2.22.57-3.38.56.86-1.81,2.07-1.44,3.38-.56Z"/>
      <path class="cls-3" d="m113.92,39.83c-.95.36-1.89.72-2.84,1.08.54-1.44,1.74-1.13,2.84-1.08Z"/>
      <path class="cls-3" d="m163.5,37.47c-.46-.11-.93-.21-1.39-.32.24-.33.49-.94.71-.93.74.03.58.75.68,1.25Z"/>
      <path class="cls-3" d="m178.33,20.09c.15.27.31.54.46.8-.15-.27-.31-.54-.46-.8Z"/>
      <path class="cls-10" d="m161.94,143.81c-.08,0-.22,0-.22,0-.01-.17-.01-.33-.01-.5.08,0,.22,0,.22,0,.01.17,0,.33,0,.5Z"/>
      <path class="cls-1" d="m123.41,274.99c-.04.23-.08.46-.11.69.04-.23.08-.46.11-.69Z"/>
    </g>
  </g>
</svg>