<svg width="120" height="64" viewBox="0 0 120 64" fill="none" xmlns="http://www.w3.org/2000/svg">
<g clip-path="url(#clip0_77_519)">
<rect width="149" height="69" transform="translate(0 -5)" fill="black" fill-opacity="0.2"/>
<rect x="-29" y="-5" width="178" height="69" fill="url(#paint0_linear_77_519)"/>
<path d="M81.2014 32.5C81.2014 40.5081 74.7095 47 66.7014 47C58.6933 47 52.2014 40.5081 52.2014 32.5C52.2014 24.4919 58.6933 18 66.7014 18C74.7095 18 81.2014 24.4919 81.2014 32.5Z" fill="#FFEE52"/>
<path d="M34.5 28.5C7.5 28.5 -15.1667 52.1667 -25 64H34.5H94C86.8333 52.1667 69 28.5 34.5 28.5Z" fill="url(#paint1_linear_77_519)"/>
<path d="M83 35C60.9916 35 42.5154 54.3333 34.5 64H83H131.5C125.658 54.3333 111.122 35 83 35Z" fill="url(#paint2_linear_77_519)"/>
</g>
<defs>
<linearGradient id="paint0_linear_77_519" x1="60" y1="-5" x2="60" y2="64" gradientUnits="userSpaceOnUse">
<stop stop-color="#BC4502"/>
<stop offset="0.786458" stop-color="#F1D2A4"/>
</linearGradient>
<linearGradient id="paint1_linear_77_519" x1="34.5" y1="28.5" x2="34.5" y2="64" gradientUnits="userSpaceOnUse">
<stop stop-color="#9F8361"/>
<stop offset="0.5" stop-color="#619F7A"/>
<stop offset="1" stop-color="#A8F7C8"/>
</linearGradient>
<linearGradient id="paint2_linear_77_519" x1="71.5" y1="30" x2="82.6327" y2="68.0727" gradientUnits="userSpaceOnUse">
<stop stop-color="#619F7A"/>
<stop offset="1" stop-color="#A8F7C8"/>
</linearGradient>
<clipPath id="clip0_77_519">
<rect width="149" height="69" fill="white" transform="translate(0 -5)"/>
</clipPath>
</defs>
</svg>
