<svg width="210" height="164" viewBox="0 0 210 164" fill="none" xmlns="http://www.w3.org/2000/svg">
<path d="M198.249 66.3389V99.8536H187.585V66.3389H176.16V57.1985H209.675V66.3389H198.249Z" fill="white"/>
<path d="M151.606 71.0194L145.752 86.0646H157.46L151.606 71.0194ZM142.172 95.2573L140.383 99.8536H128.856L145.539 56.9547H157.672L174.355 99.8536H162.829L161.039 95.2573H142.172Z" fill="white"/>
<path d="M91.1573 56.9547H101.622V90.661H121.057V99.8536H91.1573V56.9547Z" fill="white"/>
<path d="M60.7097 71.1833L54.8294 86.143H66.59L60.7097 71.1833ZM51.2342 95.2834L49.4366 99.8536H37.8588L54.6161 57.1985H66.8033L83.5607 99.8536H71.9829L70.1852 95.2834H51.2342Z" fill="white"/>
<path d="M15.9727 55.675C22.6147 55.675 28.0075 58.2445 32.1511 63.3834L24.5341 69.477C22.4623 67.3646 19.8929 66.3084 16.8258 66.3084C13.8399 66.3287 12.347 67.3544 12.347 69.3856C12.286 72.0262 14.7438 73.5902 19.7202 74.0777C28.495 75.2761 32.8824 79.6838 32.8824 87.3008C32.8824 91.5866 31.3082 95.0092 28.1598 97.5685C25.0318 100.107 21.3553 101.377 17.1304 101.377C9.63532 101.377 3.97844 98.8684 0.15979 93.8514L7.77677 86.2344C10.0111 89.4234 13.0274 91.0179 16.8258 91.0179C20.4616 90.9163 22.2795 89.5859 22.2795 87.0266C22.2795 85.361 18.4507 83.8173 10.7931 82.3954C4.47608 80.0189 1.31757 75.7128 1.31757 69.477C1.31757 63.7491 4.47608 59.5343 10.7931 56.8328C12.4587 56.2438 14.1852 55.8579 15.9727 55.675Z" fill="white"/>
<path d="M182.419 20.1698V42.6551H171.755V0H180.896L199.176 23.9173V0H209.84V42.6551H200.7L182.419 20.1698Z" fill="white"/>
<path d="M128.856 0H145.614C151.26 0 155.719 1.63511 158.989 4.90534C162.259 8.17556 163.894 12.1262 163.894 16.7574C163.894 21.3885 162.259 25.3392 158.989 28.6094C157.689 29.9094 156.196 30.9554 154.51 31.7476L164.321 42.6551H150.001L141.805 33.5147H139.52V42.6551H128.856V0ZM139.52 9.14038V24.3744H145.614C147.726 24.3744 149.524 23.633 151.007 22.1502C152.489 20.6674 153.231 18.8698 153.231 16.7574C153.231 14.6449 152.489 12.8473 151.007 11.3645C149.524 9.88177 147.726 9.14038 145.614 9.14038H139.52Z" fill="white"/>
<path d="M98.4087 13.9848L92.5284 28.9445H104.289L98.4087 13.9848ZM88.9332 38.0849L87.1355 42.6551H75.5577L92.3151 0H104.502L121.26 42.6551H109.682L107.884 38.0849H88.9332Z" fill="white"/>
<path d="M48.5227 33.5147H68.3268V42.6551H37.8589V0H68.3268V9.14038H48.5227V16.7574H65.28V25.8977H48.5227V33.5147Z" fill="white"/>
<path d="M0.15979 0H10.8236V33.5147H30.6277V42.6551H0.15979V0Z" fill="white"/>
<path d="M173.66 146.002C174.438 146.48 172.375 146.839 171.328 147.257C170.581 147.586 169.026 148.035 167.83 148.423C167.112 149.141 166.275 149.799 165.348 150.307C162.717 151.832 161.491 152.699 160.534 151.114C159.578 149.5 162.598 147.197 166.365 146.301C167.202 145.703 167.411 144.596 166.903 144.118C166.724 143.938 164.81 144.208 160.654 148.782C160.505 148.991 160.355 149.111 160.236 149.231C159.04 152.221 154.794 161.041 154.435 162.117C153.987 163.403 153.897 164.061 153.209 163.851C152.492 163.702 152.013 161.758 152.701 160.443C153.688 158.44 159.189 145.134 159.667 144.178C160.056 143.221 160.714 142.473 161.073 142.384C162.029 142.234 162.627 143.101 162.986 143.46C163.046 143.52 163.016 143.699 162.897 143.998C164.122 143.041 164.78 142.145 166.634 141.905C169.145 141.576 170.102 142.593 170.013 144.536C170.013 144.895 169.893 145.344 169.624 145.912C170.64 145.673 172.973 145.613 173.66 146.002Z" fill="white"/>
<path d="M157.573 146.211C159.636 145.015 158.739 146.779 157.872 147.347C156.975 147.915 151.772 150.636 149.68 151.114C147.527 151.593 146.66 149.918 146.899 148.722C147.138 147.526 148.334 145.045 149.949 143.52C151.473 142.085 152.729 141.875 153.357 141.965C154.194 142.055 155.36 143.43 155.51 144.656C155.6 145.882 153.776 146.869 152.58 147.437C151.414 147.975 150.397 148.722 149.62 147.467C149.381 147.795 148.872 148.812 150.427 148.722C151.952 148.633 155.48 147.437 157.573 146.211ZM152.849 144.477C151.922 144.835 151.563 145.194 150.965 145.912C151.503 145.762 152.699 145.224 152.849 144.477Z" fill="white"/>
<path d="M152.883 131.62C152.913 131.979 152.555 131.949 152.345 132.278C151.628 133.294 149.834 135.298 147.113 140.171C147.98 140.081 148.757 140.052 149.325 139.962C151.269 139.723 151.628 139.842 151.538 140.081C151.478 140.291 150.462 141.786 148.428 142.115C147.741 142.234 146.784 142.354 145.797 142.563C145.439 143.251 145.05 143.909 144.661 144.716C140.505 152.938 140.206 154.971 139.877 155.958C139.548 156.945 138.801 157.483 138.173 156.646C137.545 155.779 137.784 154.044 138.711 152.011C139.19 150.845 140.834 146.928 142.508 143.071C141.881 143.161 141.402 143.221 141.073 143.221C140.057 143.311 139.638 140.978 140.415 140.679C141.163 140.351 141.043 140.53 142.06 140.44C142.299 140.44 142.927 140.41 143.734 140.38C144.571 138.587 145.409 137.002 146.096 135.836C148.608 131.74 149.864 130.005 150.581 130.125C151.329 130.304 152.794 131.261 152.883 131.62Z" fill="white"/>
<path d="M142.02 130.783C141.362 130.783 140.824 130.932 138.94 132.577C136.997 134.281 131.376 138.347 130.389 141.427C129.821 143.251 131.137 143.61 132.931 144.088C134.725 144.596 136.519 145.075 137.685 146.121C138.612 146.958 139.18 148.184 138.911 149.41C138.342 152.191 134.007 156.705 130.3 156.855C126.562 157.004 127.848 152.998 128.745 151.772C129.612 150.576 132.961 147.646 133.499 147.407C134.097 147.138 133.917 147.616 132.751 149.141C131.615 150.606 128.595 154.971 129.642 154.971C130.987 155.061 134.485 153.058 136.07 149.26C136.519 148.334 136.578 147.556 136.19 147.227C135.592 146.749 134.575 146.36 133.858 146.151C132.572 145.822 128.476 144.955 127.698 142.683C126.682 139.842 128.894 136.882 130.898 134.819C132.841 132.756 137.864 128.152 138.492 127.763C139.18 127.434 140.615 127.165 141.721 127.613C143.395 128.331 143.007 130.783 142.02 130.783Z" fill="white"/>
<path d="M115.187 148.423L116.861 148.065C117.908 147.945 117.519 148.662 115.725 149.29L114.768 149.589C114.2 151.114 113.602 152.519 113.004 153.566C110.134 158.469 105.231 159.905 102.988 160.383C101.344 160.772 99.6395 158.739 100.566 156.018C101.344 153.745 105.679 150.965 112.735 149.051C113.423 147.347 113.782 145.822 114.021 144.895C112.107 146.36 110.792 147.586 109.476 147.945C108.161 148.334 106.217 146.988 106.606 145.523C106.875 144.656 108.43 142.802 109.656 142.055C110.702 141.427 111.001 141.457 111.48 141.546C112.227 141.726 111.838 142.144 111.48 142.653C111.001 143.251 108.221 146.599 110.852 145.523C112.048 145.045 113.812 143.101 114.499 142.324C114.559 141.816 114.679 141.636 114.828 141.726C115.337 141.965 116.772 142.294 116.682 143.37C116.592 143.998 115.994 146.121 115.187 148.423ZM110.852 152.968C111.36 152.131 111.808 151.294 112.167 150.427C110.224 151.054 107.951 151.981 105.918 153.297C102.39 155.629 101.284 158.32 102.51 158.23C103.706 158.141 108.729 156.436 110.852 152.968Z" fill="white"/>
<path d="M102.788 129.168C103.236 129.407 103.625 130.095 103.416 130.424C103.206 130.753 97.2565 141.816 95.7017 146.39C97.705 143.819 100.725 141.218 102.459 141.218C104.283 141.218 105.15 142.623 104.821 144.507C104.492 146.33 102.818 150.277 98.6617 150.905C94.5655 151.563 93.5789 149.739 95.2532 149.888C98.2132 150.247 102.07 145.164 101.233 144.566C100.785 144.267 98.0637 146.031 96.0904 148.154C94.0872 150.307 92.652 153.536 91.7849 153.446C90.8879 153.357 90.29 150.935 90.7683 150.068C91.2467 149.231 97.1668 137.032 98.4823 134.64C99.8278 132.278 100.934 129.766 101.084 129.318C101.293 128.869 101.682 128.54 102.788 129.168Z" fill="white"/>
<path d="M82.3861 146.002C83.1635 146.48 81.1004 146.839 80.0539 147.257C79.3065 147.586 77.7517 148.035 76.5557 148.423C75.8382 149.141 75.001 149.799 74.0741 150.307C71.443 151.832 70.2171 152.699 69.2603 151.114C68.3036 149.5 71.3234 147.197 75.0907 146.301C75.9279 145.703 76.1371 144.596 75.6289 144.118C75.4495 143.938 73.5359 144.208 69.3799 148.782C69.2304 148.991 69.0809 149.111 68.9613 149.231C67.7654 152.221 63.5197 161.041 63.1609 162.117C62.7124 163.403 62.6227 164.061 61.935 163.851C61.2174 163.702 60.7391 161.758 61.4267 160.443C62.4134 158.44 67.9149 145.134 68.3933 144.178C68.7819 143.221 69.4397 142.473 69.7985 142.384C70.7553 142.234 71.3533 143.101 71.7121 143.46C71.7719 143.52 71.742 143.699 71.6224 143.998C72.8482 143.041 73.506 142.145 75.3598 141.905C77.8713 141.576 78.8281 142.593 78.7384 144.536C78.7384 144.895 78.6188 145.344 78.3497 145.912C79.3663 145.673 81.6984 145.613 82.3861 146.002Z" fill="white"/>
<path d="M66.2986 146.211C68.3617 145.015 67.4647 146.779 66.5976 147.347C65.7007 147.915 60.4982 150.636 58.4052 151.114C56.2525 151.593 55.3854 149.918 55.6246 148.722C55.8638 147.526 57.0598 145.045 58.6743 143.52C60.1992 142.085 61.455 141.875 62.0829 141.965C62.92 142.055 64.0861 143.43 64.2356 144.656C64.3253 145.882 62.5014 146.869 61.3055 147.437C60.1394 147.975 59.1228 148.722 58.3455 147.467C58.1063 147.795 57.598 148.812 59.1527 148.722C60.6776 148.633 64.2057 147.437 66.2986 146.211ZM61.5746 144.477C60.6477 144.835 60.2889 145.194 59.6909 145.912C60.2291 145.762 61.4251 145.224 61.5746 144.477Z" fill="white"/>
<path d="M61.6092 131.62C61.6391 131.979 61.2803 131.949 61.071 132.278C60.3534 133.294 58.5594 135.298 55.8386 140.171C56.7057 140.081 57.4831 140.052 58.0511 139.962C59.9946 139.723 60.3534 139.842 60.2637 140.081C60.2039 140.291 59.1873 141.786 57.1542 142.115C56.4665 142.234 55.5097 142.354 54.523 142.563C54.1643 143.251 53.7756 143.909 53.3869 144.716C49.2309 152.938 48.9319 154.971 48.603 155.958C48.2741 156.945 47.5266 157.483 46.8987 156.646C46.2709 155.779 46.5101 154.044 47.4369 152.011C47.9153 150.845 49.5598 146.928 51.2341 143.071C50.6062 143.161 50.1279 143.221 49.799 143.221C48.7824 143.311 48.3638 140.978 49.1412 140.679C49.8887 140.351 49.7691 140.53 50.7856 140.44C51.0248 140.44 51.6527 140.41 52.46 140.38C53.2972 138.587 54.1344 137.002 54.822 135.836C57.3336 131.74 58.5893 130.005 59.3069 130.125C60.0544 130.304 61.5195 131.261 61.6092 131.62Z" fill="white"/>
<path d="M50.7456 130.783C50.0879 130.783 49.5497 130.932 47.666 132.577C45.7226 134.281 40.1015 138.347 39.1149 141.427C38.5468 143.251 39.8623 143.61 41.6563 144.088C43.4502 144.596 45.2442 145.075 46.4103 146.121C47.3371 146.958 47.9052 148.184 47.6361 149.41C47.068 152.191 42.7327 156.705 39.0252 156.855C35.2878 157.004 36.5734 152.998 37.4704 151.772C38.3375 150.576 41.6862 147.646 42.2244 147.407C42.8224 147.138 42.643 147.616 41.4769 149.141C40.3407 150.606 37.3209 154.971 38.3674 154.971C39.7128 155.061 43.2111 153.058 44.7957 149.26C45.2442 148.334 45.304 147.556 44.9153 147.227C44.3173 146.749 43.3007 146.36 42.5832 146.151C41.2975 145.822 37.2013 144.955 36.4239 142.683C35.4074 139.842 37.6199 136.882 39.6231 134.819C41.5666 132.756 46.5897 128.152 47.2175 127.763C47.9052 127.434 49.3404 127.165 50.4467 127.613C52.121 128.331 51.7323 130.783 50.7456 130.783Z" fill="white"/>
</svg>
