<svg width="120" height="64" viewBox="0 0 120 64" fill="none" xmlns="http://www.w3.org/2000/svg">
<g clip-path="url(#clip0_77_533)">
<rect width="149" height="69" transform="translate(0 -5)" fill="black" fill-opacity="0.2"/>
<rect x="-29" y="-5" width="178" height="69" fill="url(#paint0_linear_77_533)"/>
<path d="M43.4371 21.7187C45.1867 27.5365 53.8698 30.0679 53.8698 30.0679C48.0521 31.8175 41.9176 28.5196 40.1679 22.7019C38.4183 16.8842 41.7162 10.7496 47.5339 9C47.5339 9 41.6875 15.901 43.4371 21.7187Z" fill="#CFEBE6"/>
<path d="M37.5 41C10.5 41 -12.1667 64.6667 -22 76.5H37.5H97C89.8333 64.6667 72 41 37.5 41Z" fill="url(#paint1_linear_77_533)"/>
<path d="M101.5 33C76.3151 33 55.1723 55 46 66H101.5H157C150.315 55 133.681 33 101.5 33Z" fill="url(#paint2_linear_77_533)"/>
</g>
<defs>
<linearGradient id="paint0_linear_77_533" x1="60" y1="-5" x2="60" y2="64" gradientUnits="userSpaceOnUse">
<stop stop-color="#112E66"/>
<stop offset="1" stop-color="#576BAE"/>
</linearGradient>
<linearGradient id="paint1_linear_77_533" x1="37.5" y1="41" x2="37.5" y2="76.5" gradientUnits="userSpaceOnUse">
<stop stop-color="#343E96"/>
<stop offset="1" stop-color="#280D35"/>
</linearGradient>
<linearGradient id="paint2_linear_77_533" x1="88.3402" y1="27.3103" x2="100.949" y2="70.6726" gradientUnits="userSpaceOnUse">
<stop stop-color="#782396"/>
<stop offset="1" stop-color="#36095A"/>
</linearGradient>
<clipPath id="clip0_77_533">
<rect width="149" height="69" fill="white" transform="translate(0 -5)"/>
</clipPath>
</defs>
</svg>
