<svg width="120" height="64" viewBox="0 0 120 64" fill="none" xmlns="http://www.w3.org/2000/svg">
<g clip-path="url(#clip0_77_512)">
<rect width="120" height="69" transform="translate(0 -5)" fill="black" fill-opacity="0.2"/>
<rect x="-58" y="-5" width="178" height="69" fill="url(#paint0_linear_77_512)"/>
<circle cx="61.5" cy="24.5" r="14.5" fill="#FFEB3A"/>
<path d="M26.5 40C-0.5 40 -23.1667 63.6667 -33 75.5H26.5H86C78.8333 63.6667 61 40 26.5 40Z" fill="url(#paint1_linear_77_512)"/>
<path d="M75 46.5C52.9916 46.5 34.5154 65.8333 26.5 75.5H75H123.5C117.658 65.8333 103.122 46.5 75 46.5Z" fill="url(#paint2_linear_77_512)"/>
</g>
<defs>
<linearGradient id="paint0_linear_77_512" x1="31" y1="-5" x2="31" y2="64" gradientUnits="userSpaceOnUse">
<stop stop-color="#98BBFF"/>
<stop offset="0.603115" stop-color="white"/>
</linearGradient>
<linearGradient id="paint1_linear_77_512" x1="26.5" y1="40" x2="26.5" y2="75.5" gradientUnits="userSpaceOnUse">
<stop stop-color="#65CC8E"/>
<stop offset="1" stop-color="#37A261"/>
</linearGradient>
<linearGradient id="paint2_linear_77_512" x1="58.5" y1="46" x2="75" y2="66" gradientUnits="userSpaceOnUse">
<stop stop-color="#65CC8E"/>
<stop offset="1" stop-color="#37A261"/>
</linearGradient>
<clipPath id="clip0_77_512">
<rect width="120" height="69" fill="white" transform="translate(0 -5)"/>
</clipPath>
</defs>
</svg>
