<?xml version="1.0" encoding="UTF-8"?>
<svg id="Layer_2" data-name="Layer 2" xmlns="http://www.w3.org/2000/svg" viewBox="0 0 281.05 319.48">
  <defs>
    <style>
      .cls-1 {
        fill: #a8a6a4;
      }

      .cls-1, .cls-2, .cls-3, .cls-4, .cls-5, .cls-6, .cls-7, .cls-8, .cls-9 {
        stroke-width: 0px;
      }

      .cls-2 {
        fill: #fac893;
      }

      .cls-3 {
        fill: #f3bf8f;
      }

      .cls-4 {
        fill: #efede6;
      }

      .cls-5 {
        fill: #603818;
      }

      .cls-6 {
        fill: #e4b085;
      }

      .cls-7 {
        fill: #d1d3d4;
      }

      .cls-8 {
        fill: #c6c2bf;
      }

      .cls-9 {
        fill: #ddd8d4;
      }
    </style>
  </defs>
  <g id="Layer_1-2" data-name="Layer 1">
    <g>
      <path class="cls-7" d="m162.51,40.15c-7.24-1.14-14.6-1.72-21.98-1.72-10.25,0-20.36,1.09-30.23,3.26h-.02c-5.94,1.31-11.78,3-17.53,5.08-1.33.48-2.63.98-3.94,1.5h-.01c-.08.03-.16.06-.24.1,0,.03,0,.07,0,.1.25,1.3.5,2.6.75,3.9h0c1.58-.65,3.17-1.26,4.78-1.84,10.93-3.95,22.27-6.47,33.86-7.52,0,0,.01,0,.02,0,4.15-.39,8.34-.58,12.54-.58,7.26,0,14.51.58,21.64,1.72,2.6.4,5.19.89,7.75,1.46.11-1.36.18-2.71.19-4.05-2.52-.55-5.05-1.01-7.6-1.41Z"/>
      <path class="cls-7" d="m281.05,178.95c0,45.84-22.45,88.91-60.06,115.22-2.91,2.04-5.91,3.98-8.97,5.78-2.28,1.36-4.59,2.65-6.93,3.86-13.37,6.92-27.9,11.64-42.83,13.97-7.18,1.13-14.45,1.7-21.73,1.7-24.09,0-47.85-6.19-68.72-17.9-.63-.35-1.26-.71-1.88-1.08C26.73,275.35,0,228.98,0,178.95,0,121.44,35.4,69.52,88.56,48.37c0,.03,0,.07,0,.1.25,1.3.5,2.6.75,3.9C38.07,73.1,4,123.34,4,178.95c0,47.88,25.2,92.31,66.06,116.98,1.22.74,2.46,1.46,3.71,2.16,20.27,11.38,43.36,17.39,66.76,17.39,17.54,0,34.45-3.22,50.43-9.6,4.16-1.66,8.26-3.53,12.29-5.62,2.93-1.52,5.83-3.16,8.66-4.91,2.31-1.42,4.58-2.91,6.79-4.46,36.54-25.56,58.35-67.4,58.35-111.94,0-60.29-40.38-114.19-98.2-131.06-2.65-.78-5.31-1.47-7.92-2.06-.34-.08-.67-.15-1.01-.22.11-1.36.18-2.71.19-4.05.57.12,1.13.24,1.7.37,2.69.61,5.44,1.32,8.16,2.12,28.58,8.34,54.31,26.05,72.44,49.88,18.73,24.61,28.64,54.01,28.64,85.02Z"/>
    </g>
    <g>
      <path class="cls-9" d="m225.53,230.06c-.68-11.74-2.59-23.36-3.84-35.04-1.73-16.24-5.68-31.93-11.53-47.16-3.53-9.2-10.63-14.36-19.38-18.24-12.13-5.38-24.7-9.52-37.07-14.23-1.44.3-2.87.61-4.31.92-6.07,4.64-13.11,6.71-20.56,7.4-3.78.35-7.63.18-11.44.02-4.91-.2-7.98-3.48-10.85-6.97-11.77,4.13-22.46,9.78-29.55,20.68-3.87,5.95-7.04,12.24-9.58,18.84-10.2,26.44-15.14,54.06-18.03,82.1-1.6,15.53,6.16,21.85,21.07,17.69,8.56-3.52,17.34-6.46,25.71-10.49,5.25-2.53,10.13-5.62,15.12-8.55,1.91-1.13,1.92-2.83,1.18-4.53-1.95-4.49-2.71-9.21-3.09-14.02-.35-4.52.2-8.87,2.74-12.78l.18.07c.02-.51.04-1.01.06-1.52-12.52-.38-24.3,2.42-35.41,8.19-1.35.7-3,2.03-4.44.83-1.17-.98-.7-2.84-.41-4.26,1.13-5.62.74-11.35,1.12-17.01.84-12.43,1.81-24.83,3.93-37.2,0,2.39.04,4.77,0,7.15-.23,12.27.15,24.51.76,36.76.21,4.22.69,4.51,4.81,3.6,9.28-2.05,18.62-2.36,28.02-.98,1.14.17,2.15.58,2.92,1.48,2.5-.99,4.96-2.14,7.53-2.92,5.44-1.66,10.22.09,14.55,3.33,2.28,1.7,5.22,1.25,7.56,2.64,10.55-.27,20.98,1.01,31.38,2.53,7.87,1.14,10.42-.8,10.47-8.95.07-10.64-.51-21.31,1.53-31.85,1.1-5.7,2.33-11.37,3.61-17.03.25-1.11.35-2.46,1.72-3.21.15.41.43.75.36,1.02-3.56,14.19-1.91,28.53-1.35,42.85.34,8.54,1.12,17.03,1.94,25.52.27,2.82-1.29,2.49-2.96,2.11-7.36-1.66-14.73-3.32-22.07-5.08-5.41-1.3-10.98-1.97-16.19-4.08-1.05-.42-2.21-.36-3.09.6-1.29,2.63-.7,4.57,1.71,6.38,1.71,1.28,3.46,2.88,3.41,5.43,4.44,2.62,4.56,3.68.86,7.43.4,2.95-.03,5.31-3.79,5.28-.5.47-.99.94-1.48,1.41-.33.3-.66.62-.99.93-.17.15-.33.31-.5.47h0c.01,1.02-.55,1.48-1.52,1.53-4.18,2.84-7.19-.02-10.35-2.15.02,6.68,3.2,10.27,9.54,13.07,13.52,5.96,27.35,10.78,41.71,14,7.2,1.61,14.61,2.32,21.93,3.47.7.11,1.36.49,2.05.75,3.78-.55,7.95.97,11.26-2.11,5.4-11.67,3.75-23.93,3.04-36.12Zm-105.15-35.09c-3.12-12.18-2.01-57.8,2.45-69.24-.35,23.48-.2,45.93-2.45,69.24Zm73.92-50.18c-.2.43-.42.91-1.19.85-.02-.3-.18-.69-.05-.94.21-.39.61-.98.92-.97.73.01.52.63.32,1.06Z"/>
      <path class="cls-9" d="m199.31,286.38c.12,7.47-2.98,14.37-8.35,19.5-15.98,6.38-32.89,9.6-50.43,9.6-23.4,0-46.49-6.01-66.76-17.39-1.25-.7-2.49-1.42-3.71-2.16.32-10.46.7-20.91,1.17-31.36,5.97-2.04,11.99-3.95,17.9-6.15,10.64-3.97,21.56-7.4,31.19-13.6,3.12-2.01,5.26-1.69,7.92.38,2.18,1.69,2.39,4,2.46,6.3.07,2.21.69,3.52,2.83,4.62,6.93,3.57,13.88,7.07,21.13,9.95,11.9,4.73,24.14,8.09,36.97,8.94,2.41.16,4.45.89,5.48,3.17,1.18,2.59,2.15,5.26,2.2,8.2Z"/>
      <path class="cls-8" d="m211.91,295.35c-2.83,1.75-5.73,3.39-8.66,4.91-4.03,2.09-8.13,3.96-12.29,5.62,5.37-5.13,8.47-12.03,8.35-19.5-.05-2.94-1.02-5.61-2.2-8.2-1.03-2.28-3.07-3.01-5.48-3.17-12.83-.85-25.07-4.21-36.97-8.94-7.25-2.88-14.2-6.38-21.13-9.95-2.14-1.1-2.76-2.41-2.83-4.62-.07-2.3-.28-4.61-2.46-6.3-2.66-2.07-4.8-2.39-7.92-.38-9.63,6.2-20.55,9.63-31.19,13.6-5.91,2.2-11.93,4.11-17.9,6.15-.7-2.79,1.02-5.81-.77-8.5,8.56-3.52,17.34-6.46,25.71-10.49,5.25-2.53,10.13-5.62,15.12-8.55,1.91-1.13,1.92-2.83,1.18-4.53-1.95-4.49-2.71-9.21-3.09-14.02-.35-4.52.2-8.87,2.74-12.78-.61,7.76-1.03,15.52,1.66,23.04h0c.27.28.54.55.8.82.26,1.2.21,2.59.82,3.57,1.72,2.76.61,4.15-1.9,5.4-2.72,1.36-4.63,4.01-7.78,4.83-1.19.31-1.14,2-.03,2.18,2.1.33,4.6,1.62,6.26-1.07.91-.9,2.43-1.31,2.41-2.96l.05-.04c2.16.04,3.58-1.03,4.41-2.97l.02-.03c3.83-2.79,7.4-4.09,10.54,1.09.28.47,1.09.91,1.98.91.13,0,.26-.01.39-.03.13-.02.27-.05.4-.1.08-.03.17-.06.26-.1.2-.1.39-.23.58-.4h.01c.12-.1.21-.2.28-.31.17-.21.29-.43.39-.65.03-.07.06-.15.08-.23.02-.07.04-.15.06-.22.03-.15.06-.31.08-.46.06-.54.04-1.11.04-1.66,0-.78.05-1.54.46-2.22.54.01,1.07.02,1.6.03.01.96.01,1.92.01,2.88.02,6.68,3.2,10.27,9.54,13.07,13.52,5.96,27.35,10.78,41.71,14,7.2,1.61,14.61,2.32,21.93,3.47.7.11,1.36.49,2.05.75.22,9.02.45,18.04.68,27.06Z"/>
      <path class="cls-2" d="m136.78,99.91c-4.49,5.29-10.4,8.57-16.39,11.67-2.48,1.29-5.23,2.32-8.2,1.78-1.57-.55-2.89-1.88-4.75-1.53-.22-1.11-.59-2.13-1.41-2.95-8.43-8.43-11.5-19.14-12.47-30.54-.74-8.78-2.54-17.37-4.23-25.97h0c-.25-1.3-.5-2.6-.75-3.9.08-.07.15-.13.23-.2h.01c4.29-3.72,9.29-6.05,14.92-6.34,2.18-.12,4.37-.2,6.55-.24h.02c5.92-.11,11.83.16,17.67,1.32,0,0,.01,0,.02,0,1.41.28,2.82.61,4.23,1,1.09,1.79,2.44,3.47,3.24,5.38,3.51,8.33,6.51,16.86,7.12,25.96.59,8.74.34,17.34-5.8,24.56Z"/>
      <path class="cls-4" d="m162.58,36.11c.02.86.02,1.72,0,2.6,0,.48-.03.96-.06,1.44,0,.26-.03.51-.05.77-.02.41-.06.82-.1,1.23-.06.67-.13,1.33-.19,2-.31,3.26-.6,6.53-.9,9.79-5.75-2.88-11.57-5.61-17.73-7.54-2.53-.97-5.41-.75-7.76-2.31-.41-.69-.85-.5-1.3-.04-.76-.01-1.51-.02-2.26-.04-1.41-.39-2.82-.72-4.23-1,0,0-.02,0-.02,0-5.84-1.16-11.75-1.43-17.67-1.32h-.02c-2.18.04-4.37.12-6.55.24-5.63.29-10.63,2.62-14.92,6.34h-.01c-.08.07-.15.13-.23.2,0-.03,0-.07,0-.1-.93-9,0-17.78,3.53-26.13C98.57,6.94,115.6-2.08,132.98.41c2.55.36,5.17.56,7.53,1.78,3.22,2.46,6.56,4.78,9.63,7.42.27.23.54.47.8.71.28.25.55.5.82.76.24.22.47.45.7.69.22.22.43.44.64.66.73.77,1.42,1.56,2.06,2.36.41.52.81,1.05,1.18,1.58.34.49.67.97.98,1.47.14.22.27.44.4.67.12.19.23.38.33.57.12.19.23.38.33.57.16.28.31.56.45.84.28.57.55,1.14.81,1.72.16.36.31.73.45,1.09.43,1.11.81,2.23,1.13,3.38.17.61.32,1.22.46,1.85.08.36.16.72.23,1.08.06.34.12.69.17,1.03.06.36.11.72.16,1.08.14,1.07.24,2.17.3,3.27,0,.37.03.74.04,1.12Z"/>
      <path class="cls-8" d="m222.49,266.18c5.41-11.67,3.76-23.94,3.05-36.12-.68-11.75-2.59-23.36-3.84-35.04-1.73-16.24-5.68-31.93-11.53-47.16-3.53-9.19-10.63-14.36-19.38-18.24-12.13-5.38-24.7-9.52-37.06-14.23.38-2.41,2.6-3.15,4.12-4.52,16.65,4.58,32.87,10.24,47.58,19.52,5.25,3.31,8.25,8.38,10.34,14.12,6.77,18.64,9.74,38.1,12.53,57.6,1.51,10.54,2.92,21.1,3.42,31.76.39,8.09.05,16.12-1.93,23.99-.98,3.89-2.62,7.54-7.3,8.34Z"/>
      <path class="cls-3" d="m135.78,44.09c2.35,1.56,5.23,1.34,7.76,2.3.02,2.61,2.01,4.4,2.82,6.7,1.89,5.35,3.27,10.82,4.33,16.58,8.04-9.15,10.31-9.88,15.8-5.26,1.91,8.82-1.27,16.01-9.07,20.66-.99.59-2.48.66-2.73,2.2-1.7-.01-2.87.59-3.05,2.48-.49,5.01-3.5,8.53-6.86,11.94-2.7,2.73-6.39,4.16-8.84,7.16-1.25.51-2.59.87-3.73,1.56-2.51,1.51-5.88.59-8.06,2.82-2.18,2.22-9.47,2.36-11.96.12,2.97.54,5.72-.49,8.2-1.77,5.99-3.11,11.91-6.38,16.4-11.67,6.13-7.22,6.39-15.83,5.8-24.56-.62-9.1-3.61-17.63-7.12-25.96-.8-1.91-2.15-3.59-3.25-5.37.75.01,1.51.02,2.26.03.44.01.87.03,1.31.04Z"/>
      <path class="cls-8" d="m112.19,113.36c2.49,2.24,9.79,2.1,11.96-.12,2.19-2.23,5.55-1.32,8.06-2.82,1.14-.69,2.48-1.05,3.73-1.56,1.98.22,3.76-.17,5.52-1.21,1.96-1.16,4.07-2.12,6.49-1.76-.03,3.54,1.95,6.81,1.45,10.42-6.07,4.64-13.11,6.71-20.56,7.4-3.78.35-7.63.18-11.44.02-4.91-.21-7.98-3.48-10.85-6.97.95-1.52.3-3.34.88-4.93,1.86-.35,3.18.98,4.75,1.53Z"/>
      <path class="cls-9" d="m170.11,41.56c0,1.34-.08,2.69-.19,4.05-.24,2.89-.68,5.81-1.26,8.76-.24,1.21-.45,2.42-.68,3.63-2.53-.86-4.54-2.59-6.71-4.06.3-3.26.59-6.53.9-9.79.06-.67.13-1.33.19-2,.04-.41.08-.82.1-1.23.02-.26.04-.51.05-.77.03-.48.06-.96.06-1.44.03-.88.04-1.74,0-2.6,0-.37-.02-.75-.04-1.12-.06-1.1-.16-2.2-.3-3.27-.04-.36-.1-.72-.16-1.08-.05-.35-.11-.69-.17-1.03-.07-.36-.15-.72-.23-1.08-.13-.62-.29-1.24-.46-1.85-.32-1.15-.69-2.28-1.13-3.38-.14-.36-.29-.73-.45-1.09-.25-.58-.52-1.15-.81-1.72-.14-.28-.29-.56-.45-.84-.1-.19-.21-.38-.33-.57-.1-.19-.21-.38-.33-.57-.12-.23-.26-.45-.4-.67-.31-.5-.64-.98-.98-1.47-.37-.53-.77-1.06-1.18-1.58-.64-.8-1.33-1.59-2.06-2.36-.21-.22-.42-.44-.64-.66-.23-.24-.46-.47-.7-.69-.27-.26-.54-.51-.82-.76-.26-.24-.53-.48-.8-.71-3.07-2.64-6.41-4.96-9.63-7.42,2.92.06,5.32,1.78,8.03,2.48,4.27,2.35,8.26,5.08,11.84,8.4,7.33,8.67,9.91,18.3,9.73,28.49Z"/>
      <path class="cls-5" d="m161.27,53.94c2.17,1.47,4.18,3.2,6.71,4.06-.35,2.17-1.57,4.13-1.49,6.41-5.5-4.61-7.76-3.88-15.8,5.26-1.06-5.76-2.43-11.23-4.33-16.58-.81-2.3-2.81-4.08-2.82-6.7,6.16,1.93,11.97,4.66,17.73,7.55Z"/>
      <path class="cls-6" d="m147.95,105.89c-2.42-.36-4.53.6-6.49,1.76-1.76,1.04-3.55,1.42-5.52,1.21,2.45-2.99,6.14-4.43,8.84-7.16,3.37-3.41,6.37-6.93,6.86-11.94.19-1.89,1.35-2.5,3.05-2.48,1.09,4.69-.03,9.5.72,14.2-2.63,1.23-6.78-.11-7.46,4.42Z"/>
      <path class="cls-1" d="m147.95,105.89c.68-4.52,4.83-3.19,7.46-4.42,1.56,2.94.82,6.47,2.42,9.39-1.53,1.37-3.74,2.11-4.12,4.52-1.44.31-2.88.62-4.31.92.51-3.61-1.47-6.88-1.45-10.42Z"/>
      <path class="cls-2" d="m154.63,229.53c3.7-3.75,3.58-4.81-.86-7.43-4.71-4-8.74-8.7-13.54-12.63-3.29-2.68-6.8-4.99-10.41-7.09-4.34-2.53-9.93-1.4-13.37,2.35-1.25,1.36-2.78.7-4.15,1.04l-.18-.07c-.61,7.76-1.03,15.52,1.66,23.04.87-.3,1.74-.59,2.6-.88,1.74-.59,3.48-1.17,5.2-1.79.86-.31,1.72-.62,2.58-.94,3.23-1.21,5.48-.5,6.59,2.93l.04.05c.56.32.77.8.71,1.42l.04.06c2.6.41,3.45,2.54,4.45,4.53.01.96.01,1.92.01,2.88,3.16,2.13,6.17,4.99,10.35,2.15-.75-.67-2.04-.68-2.35-1.9-1.2-.32-1.92-1.12-2.28-2.29-2.85-1.6-5.08-3.83-6.64-6.71-.43-.22-.94-.37-.88-1.01.01-.09.16-.23.25-.24.64-.05.77.48.99.91,2.89,1.56,5.03,3.87,6.68,6.68,1.12.38,1.88,1.13,2.22,2.28h.01c1.15.36,2.23,1.05,3.52.76.17-.16.33-.32.5-.48.33-.31.66-.63.99-.93.49-.47.98-.94,1.48-1.41-1.96,0-3.26-.9-3.86-2.78-2.05-.98-3.59-2.44-4.43-4.59-.24-.5-.49-.99-.74-1.49-.06-.08-.11-.15-.17-.23.13.01.26.01.39.02.28.48.57.95.86,1.42,2.11.87,3.52,2.44,4.47,4.47,1.77.28,3.63,2.91,5.22.55,1.42-2.1-.54-3.84-1.94-5.41-.88-.98-2.14-1.68-2.43-3.16,2.8.54,4.85,2.44,6.42,5.92Zm-15.6-6.17l-.23-.13.24-.12v.25Zm6.25-2.56l-.11-.3.29.04-.18.26Z"/>
      <path class="cls-8" d="m143.3,205.86c10.55-.27,20.99,1.02,31.38,2.53,7.88,1.15,10.43-.8,10.48-8.94.06-10.64-.51-21.32,1.53-31.86,1.1-5.7,2.33-11.37,3.61-17.03.25-1.1.35-2.45,1.72-3.21.15.4.43.75.37,1.01-3.56,14.19-1.91,28.53-1.35,42.86.33,8.53,1.12,17.03,1.94,25.52.27,2.82-1.3,2.49-2.96,2.11-7.37-1.66-14.73-3.32-22.07-5.08-5.41-1.3-10.98-1.96-16.19-4.07-1.05-.42-2.21-.37-3.09.6-.32-3.24-4.02-2.41-5.35-4.43Z"/>
      <path class="cls-8" d="m112.36,204.25c-12.52-.37-24.3,2.42-35.41,8.19-1.35.7-3,2.03-4.43.83-1.17-.98-.71-2.84-.42-4.26,1.13-5.62.75-11.35,1.13-17.01.83-12.43,1.81-24.83,3.93-37.2,0,2.38.04,4.77,0,7.15-.22,12.26.16,24.51.77,36.75.21,4.23.68,4.51,4.81,3.6,9.27-2.05,18.62-2.36,28.02-.98,1.14.17,2.15.58,2.91,1.48-.12.76-.5,1.29-1.3,1.44Z"/>
      <path class="cls-8" d="m122.83,125.73c-.36,23.48-.21,45.93-2.45,69.24-3.12-12.18-2.01-57.8,2.45-69.24Z"/>
      <path class="cls-6" d="m112.36,204.25c.8-.15,1.18-.68,1.3-1.44,2.51-.98,4.97-2.13,7.54-2.92,5.43-1.66,10.22.09,14.55,3.33,2.28,1.71,5.22,1.25,7.56,2.64,1.33,2.02,5.03,1.19,5.35,4.43-1.28,2.63-.69,4.57,1.71,6.37,1.71,1.29,3.47,2.89,3.41,5.44-4.71-4-8.74-8.71-13.55-12.63-3.29-2.68-6.79-5-10.41-7.1-4.34-2.52-9.93-1.39-13.37,2.35-1.25,1.36-2.77.69-4.15,1.04.02-.51.04-1.02.06-1.52Z"/>
      <path class="cls-6" d="m147.36,231.63c1.77.29,3.63,2.91,5.22.55,1.41-2.1-.55-3.84-1.95-5.41-.87-.98-2.14-1.68-2.43-3.16,2.8.53,4.85,2.44,6.42,5.92.39,2.95-.03,5.31-3.79,5.28-1.96,0-3.26-.9-3.86-2.78.12-.14.25-.28.38-.4Z"/>
      <path class="cls-6" d="m146.35,239.15c-.76-.67-2.04-.68-2.35-1.9.11-.13.22-.26.34-.38,1.15.37,2.23,1.06,3.53.76,0,1.01-.55,1.47-1.52,1.52Z"/>
      <path class="cls-8" d="m193.11,145.64c-.02-.3-.18-.7-.05-.94.21-.4.61-.98.92-.98.73.01.52.63.32,1.06-.2.44-.43.92-1.19.86Z"/>
      <path class="cls-2" d="m111.95,244.47c-1.66,2.7-4.16,1.4-6.25,1.07-1.11-.18-1.17-1.86.03-2.18,3.15-.82,5.05-3.47,7.77-4.83,2.51-1.26,3.62-2.65,1.9-5.4-.61-.98-.56-2.37-.81-3.57,1.44-.29,2.92-.5,4.34-.9,3.91-1.08,7.68-4.29,11.83-.61,0,0,.04.06.04.06-.05.62.15,1.11.71,1.42,0,0,.04.06.04.06.3,1.91,1.92,2.99,2.85,4.5-1.09,1.77.33,4.14-1.39,5.75-1.78-1.5-3.55-3-5.34-4.49-3.87-3.22-7.2-2.04-8.82,3.12,0,0-.03.03-.03.03-1.96.27-3.45,1.21-4.41,2.97,0,0-.05.04-.05.04-2.97,1.02-3.31,1.44-2.41,2.96Z"/>
      <path class="cls-6" d="m118.84,238.48c1.62-5.16,4.95-6.34,8.82-3.12,1.79,1.49,3.56,2.99,5.34,4.49-1.32,1.17-3.17.47-3.63-.28-3.14-5.19-6.71-3.88-10.53-1.09Z"/>
      <path class="cls-6" d="m130.75,228.06c-4.15-3.68-7.92-.47-11.83.61-1.42.39-2.89.6-4.34.9-.27-.27-.53-.54-.8-.81,3.46-1.2,6.95-2.32,10.38-3.61,3.23-1.21,5.48-.5,6.58,2.92Z"/>
      <path class="cls-6" d="m134.39,234.09c-.93-1.51-2.56-2.59-2.85-4.5,2.6.41,3.45,2.54,4.46,4.53-.53,0-1.07-.02-1.6-.03Z"/>
      <path class="cls-6" d="m114.41,241.47c.95-1.76,2.45-2.7,4.41-2.97-.83,1.94-2.24,3.01-4.41,2.97Z"/>
      <path class="cls-6" d="m111.95,244.47c-.9-1.52-.56-1.94,2.41-2.96.02,1.66-1.5,2.06-2.41,2.96Z"/>
      <path class="cls-2" d="m135.78,44.09c-.44-.01-.87-.03-1.31-.04.45-.46.89-.65,1.31.04Z"/>
      <path class="cls-6" d="m141.72,234.96c-2.86-1.6-5.08-3.83-6.64-6.71.11-.12.23-.23.35-.34,2.89,1.56,5.04,3.87,6.68,6.68-.13.13-.26.26-.4.37Z"/>
      <path class="cls-6" d="m142.89,227.16c2.11.87,3.52,2.44,4.47,4.46-.13.13-.26.26-.38.4-2.05-.98-3.59-2.44-4.43-4.59.11-.09.22-.18.34-.27Z"/>
      <path class="cls-6" d="m142.12,234.59c1.12.38,1.88,1.13,2.23,2.28-.12.12-.23.25-.34.38-1.2-.32-1.93-1.12-2.28-2.28.14-.12.27-.24.39-.37Z"/>
      <path class="cls-6" d="m135.08,228.25c-.43-.22-.95-.37-.89-1.01,0-.09.16-.23.25-.24.64-.05.77.48.99.91-.12.11-.24.22-.35.34Z"/>
      <polygon class="cls-6" points="145.28 220.8 145.17 220.5 145.46 220.54 145.28 220.8"/>
      <polygon class="cls-6" points="139.03 223.11 139.03 223.36 138.8 223.23 139.03 223.11"/>
      <path class="cls-6" d="m142.55,227.44c-.25-.5-.49-.99-.74-1.49,0,0,.21-.21.21-.21.29.47.57.95.86,1.42-.11.09-.22.18-.34.27Z"/>
      <path class="cls-6" d="m131.5,229.53c-.56-.31-.76-.8-.71-1.42.56.31.77.8.71,1.42Z"/>
      <path class="cls-6" d="m141.81,225.95c-.06-.08-.12-.16-.17-.23.13,0,.26.02.39.02,0,0-.21.21-.21.21Z"/>
    </g>
  </g>
</svg>