<?xml version="1.0" encoding="UTF-8"?>
<svg id="Layer_2" data-name="Layer 2" xmlns="http://www.w3.org/2000/svg" viewBox="0 0 281.05 319.48">
  <defs>
    <style>
      .cls-1 {
        fill: #a8a6a4;
      }

      .cls-1, .cls-2, .cls-3, .cls-4, .cls-5, .cls-6, .cls-7, .cls-8, .cls-9, .cls-10, .cls-11, .cls-12, .cls-13 {
        stroke-width: 0px;
      }

      .cls-2 {
        fill: #fac893;
      }

      .cls-3 {
        fill: #eae3df;
      }

      .cls-4 {
        fill: #f3bf8f;
      }

      .cls-5 {
        fill: #f9f7f3;
      }

      .cls-6 {
        fill: #928f8e;
      }

      .cls-7 {
        fill: #efede6;
      }

      .cls-8 {
        fill: #d1cfcc;
      }

      .cls-9 {
        fill: #e4b085;
      }

      .cls-10 {
        fill: #d1d3d4;
      }

      .cls-11 {
        fill: #c6c2bf;
      }

      .cls-12 {
        fill: #98644c;
      }

      .cls-13 {
        fill: #ddd8d4;
      }
    </style>
  </defs>
  <g id="Layer_1-2" data-name="Layer 1">
    <g>
      <path class="cls-10" d="m252.41,93.92c-18.13-23.82-43.86-41.53-72.44-49.87-.17-.05-.35-.1-.52-.15-2.55-.74-5.11-1.4-7.64-1.97-.11-.02-.21-.05-.32-.07-10.09-2.27-20.51-3.43-30.96-3.43-16.2,0-32.09,2.74-47.2,8.14-.19.06-.39.13-.58.2C37.27,66.82,0,119.94,0,178.95c0,50.75,27.52,97.73,71.81,122.62,20.87,11.72,44.64,17.91,68.72,17.91,22.44,0,44.76-5.42,64.56-15.67,5.48-2.84,10.83-6.08,15.91-9.64,37.6-26.31,60.05-69.38,60.05-115.22,0-31.01-9.9-60.41-28.64-85.03Zm-32.74,196.28c-.32.23-.64.46-.97.69-4.65,3.26-9.53,6.24-14.53,8.87-.31.17-.61.33-.92.49-19.51,10.11-40.61,15.23-62.72,15.23-23.4,0-46.48-6.02-66.76-17.39-.32-.18-.64-.36-.96-.55C30.33,273.22,4,227.88,4,178.95c0-57.14,35.97-108.59,89.57-128.22.15-.06.3-.11.45-.17.03-.01.06-.02.09-.03,8.96-3.24,18.21-5.52,27.64-6.81h.03c6.18-.86,12.44-1.29,18.75-1.29,10.27,0,20.49,1.14,30.4,3.4.09.02.18.04.27.06,2.53.58,5.1,1.25,7.65,2,.15.04.31.09.46.14,57.57,17.02,97.74,70.78,97.74,130.92,0,44.13-21.42,85.63-57.38,111.25Z"/>
      <g>
        <path class="cls-13" d="m216.52,95.79c-4.11,12.42-8.19,24.86-12.36,37.26-2.14,6.37-4.46,12.68-6.7,19.01-.06.27-.12.54-.19.81-.06.44-.13.89-.19,1.33-1.67,2.03-2.06,5.91-6.24,4.31-2.2-1.22-4.49-2.31-6.58-3.69-2.73-1.8-5.7-3.46-6.81-6.9,3.79-10.59,5.4-21.75,8.45-32.53,1.56-5.51,3.09-11.04,4.22-16.64.58-2.84,2.53-5.55,1.28-8.67,1.13-2.16,3.78-3.22,4.56-5.87-1.6-.09-2.11.97-2.81,1.65-8.08,7.9-16.96,14.47-27.52,18.94-22.23,9.43-42.85,6.06-62.65-6.61-5.17-3.31-9.59-7.56-14.61-11.04-1.44-2.92-4.06-4.76-6.36-6.89-.17-.76-.61-1.24-1.38-1.4-.13-.41-.19-.9-.78-.89-.08,0-.21.14-.21.22,0,.59.47.66.89.78.15.78.62,1.24,1.39,1.39.69,3.55,3.48,5.28,6.18,7.08.06.94.14,1.88.86,2.61.69,3.01,1.33,6.04,2.07,9.04,1.6,6.45,3.43,12.85,4.78,19.34.57,2.73,1.69,5.24,2.31,7.95,1.66,7.23,2.56,14.68,5.49,21.59-3.39,5.2-8.27,8.4-13.97,10.52-2.19.69-3.82.42-4.38-2.23-.15-.74-.8-1.37-1.21-2.05-.1-.43-.21-.86-.31-1.3-.08-.3-.16-.6-.24-.9-7.15-20.79-14.31-41.58-21.46-62.38-3.91-11.37-4.94-23.06-3.69-34.96.33-3.2.93-6.41,2.78-9.2,5.25-1.79,9.63-5.42,15.05-6.96,2.4-.68,4.82-1.56,7.19-2.4,5.6-1.98,11.27-4.12,17.41-3.89-.44,3.47-.88,6.95-1.32,10.42.06,5.01,1.68,9.71,2.96,14.47,1.28,4.77,5.2,8.14,6.76,12.76-1.84.72-1.66,2.28-.98,3.47,1.2,2.09,2.57,4.15,4.2,5.92,5.05,5.49,11.38,8.77,18.65,10.32,2.22.47,4.48.65,4.87,3.92.22,1.84,2.59,2.63,4.38,2.69,2.09.07,4.32-.75,5.01-2.9.69-2.17,2.22-3.01,3.98-3.43,4.09-.96,7.86-2.66,11.49-4.69,4.97-2.79,9.55-5.95,11.74-11.66,1.02-2.67.06-2.78-2.04-2.25.36-.7.62-1.48,1.09-2.09,5.68-7.45,9.64-15.57,10.03-25.13-.44-3.93-.88-7.86-1.31-11.79,4.82,1.14,9.71,2.04,14.44,3.48,5.08,1.54,9.93,3.78,15.14,4.95,2.45.55,4.27,2.28,6.23,3.58,1.34.9.7,3.2.48,4.94-.17,1.35.42,2,2.02,2.06,2.16.09,3.47,1.85,3.38,3.73-.32,7.12,1.32,14.33-1.13,21.36-.83,2.37-.73,4.92-.27,7.41-.03.25-.07.51-.1.76-3.1,3.14-4.08,7.01-3.94,11.28Zm-17.88-14.67c-.01-.1-.03-.3-.05-.3-.18,0-.37.02-.55.04.02.1.03.3.05.3.18,0,.37-.02.55-.04Z"/>
        <path class="cls-1" d="m95.01,256.58c-2.22-1.42-4.85-1.51-7.3-2.13-2.71-.69-3.65-2.02-3.64-4.88.07-19.15-.05-38.3-.12-57.45,2.22-.69,2.26-2.74,2.74-4.48.97-3.53,3.05-6.03,7.06-7.7-.72,2.13-1.38,3.7-1.78,5.33-.79,3.24-2.55,6.26-2.27,9.74.13,1.56.51,3.15,2.25,3.53,1.99.44,2.48-1.36,3.08-2.67.47-1.04.5-2.27.93-3.34,1.72-4.34,3.32-8.77,6.74-12.24.76.76.41,1.32.39,1.86-.15,4.98-.65,9.97.52,14.89.46,1.96,1.12,4.17,3.71,3.66,2.32-.46,2.2-2.54,2.07-4.5-.18-2.77-.31-5.57-.16-8.33.15-2.7.83-5.33,2.52-7.54,1,.45,1.11,1.2,1.3,1.83,1.08,3.54,2.08,7.11,3.17,10.65.56,1.8,1.88,2.72,3.73,2.29,1.99-.46,1.88-2.09,1.55-3.64-.24-1.13-.59-2.24-.89-3.36-1.71-6.47-2.19-13.07-2.4-19.99,2.23.94,3.82,2.27,5.91,2.13,1.01-.07,2.22.28,2.84-.81.71-1.27-.13-2.27-1.02-3.02-2.57-2.17-4.05-4.91-5.16-8.07-1.26-3.6-3.68-6.34-7.31-7.98-2.3-1.04-4.76-1.89-6.54-3.85.51-1.82.41-3.57-.04-5.44-.61-2.57-1.35-5.16-1.1-7.87,2.19.1,3.88,1.45,5.75,2.34,7.23,3.43,14.7,6.02,22.74,6.72-.81,10.16-1.56,20.33-2.46,30.48-1.22,13.85-2.57,27.68-3.82,41.53-1.03,11.42-2.05,22.85-2.94,34.28-.24,3.1-1.42,4.93-4.64,5.37-1.09.15-2.11.86-3.16,1.31-7.03-.97-13.88,2.27-20.93.94-.4-.07-.87.26-1.31.4Z"/>
        <path class="cls-1" d="m197.13,192.17c-.05,18.23-.16,36.46-.11,54.7.02,7.16.25,5.94-5.65,7.78-.88.28-1.8.44-2.7.65-7.5.59-15-.29-22.5-.09-.41-.21-.81-.48-1.24-.61-8.53-2.46-8.38-2.47-9.14-11.08-2.41-27.26-4.97-54.51-7.42-81.77-.58-6.47-.98-12.95-1.47-19.42,10.13-.94,19.38-4.62,28.37-9.12-.19,4.48-1.72,8.84-1.22,13.39-1.55,1.42-3.32,2.44-5.26,3.29-4.05,1.76-7.36,4.3-8.65,8.9-.79,2.83-2.59,5.15-4.65,7.25-.87.89-2.16,1.76-1.45,3.22.7,1.43,2.22,1.01,3.44.92.9-.06,1.9-.29,2.63-.79,2.66-1.82,2.88-.27,2.75,1.86-.06,1.04-.25,2.07-.32,3.11-.43,5.8-1.52,11.48-2.92,17.11-.42,1.68.07,3.07,1.83,3.59,1.62.47,2.77-.45,3.29-1.87.8-2.17,1.32-4.44,2.05-6.64.7-2.1.69-4.52,2.41-6.25,1.05.7,1.15,1.66,1.5,2.51,1.96,4.7,1.03,9.62,1.15,14.46.04,1.69.08,3.42,2.36,3.55,2.09.12,2.84-1.41,3.14-3.08.79-4.47,1.24-8.96.48-13.49-.24-1.43-.52-2.85.19-4.66.68.9,1.12,1.42,1.49,1.99,2.84,4.4,5.42,8.91,6.45,14.15.3,1.51.95,3.08,2.88,2.9,2.02-.19,2.53-1.75,2.54-3.54.01-1.63-.19-3.19-.66-4.79-.94-3.16-2.65-6.14-2.61-9.87,3.54,1.4,5.23,4.01,6.27,7.17.58,1.75.8,3.69,2.79,4.58Z"/>
        <path class="cls-11" d="m88.97,90.04c-.71-.73-.79-1.67-.86-2.61.09-.1.18-.19.27-.28,5.02,3.48,9.44,7.74,14.61,11.04,19.8,12.66,40.42,16.04,62.65,6.61,10.55-4.48,19.44-11.04,27.52-18.94.7-.69,1.21-1.74,2.81-1.65-.79,2.66-3.44,3.72-4.56,5.87-1.78,1.63-3.37,3.57-5.39,4.81-2.41,1.48-3.13,3.48-3.93,6.03-1.69,5.38-1.29,11.24-3.98,16.34-4.16,3.92-8.97,6.93-13.95,9.64-5.66,3.08-11.95,4.21-18.12,5.73-3.46-.03-6.93-.07-10.39-.1-11.33-1.3-20.96-6.51-30.03-13.02-1-.72-1.83-1.85-3.32-1.45.04-4.9-2.5-9.43-2.59-14.16-.14-7.63-6.15-10.05-10.74-13.86Z"/>
        <path class="cls-2" d="m106.92,146.53c1.78,1.95,4.24,2.81,6.54,3.85,3.62,1.63,6.04,4.38,7.31,7.98,1.11,3.15,2.59,5.9,5.16,8.07.89.75,1.73,1.75,1.02,3.02-.62,1.09-1.83.74-2.84.81-2.09.14-3.68-1.18-5.91-2.13.21,6.92.69,13.52,2.4,19.99.3,1.12.65,2.23.89,3.36.33,1.56.44,3.18-1.55,3.64-1.85.43-3.18-.48-3.73-2.29-1.09-3.54-2.09-7.11-3.17-10.65-.19-.63-.3-1.38-1.3-1.83-1.7,2.21-2.37,4.84-2.52,7.54-.15,2.77-.02,5.56.16,8.33.13,1.96.24,4.04-2.07,4.5-2.59.51-3.24-1.7-3.71-3.66-1.16-4.92-.67-9.92-.52-14.89.02-.54.37-1.11-.39-1.86-3.42,3.47-5.02,7.9-6.74,12.24-.42,1.07-.45,2.3-.93,3.34-.6,1.31-1.09,3.1-3.08,2.67-1.75-.38-2.13-1.97-2.25-3.53-.28-3.48,1.49-6.5,2.27-9.74.4-1.63,1.06-3.2,1.78-5.33-4.01,1.66-6.09,4.16-7.06,7.7-.48,1.74-.51,3.79-2.74,4.48-2.49-.24-2.83-1.94-2.72-3.98.19-3.41,1.65-6.44,2.8-9.57,1.74-1.35,2.48-3.21,2.81-5.32.53-3.28,1.13-6.54,2.73-9.51.93-1.74,1-3.5.06-5.27,5.7-2.12,10.59-5.33,13.97-10.52,1.23-.19,1.92-1.61,3.31-1.44Z"/>
        <path class="cls-2" d="m197.13,192.17c-1.99-.88-2.21-2.83-2.79-4.58-1.04-3.16-2.74-5.76-6.27-7.17-.03,3.73,1.67,6.71,2.61,9.87.47,1.6.67,3.16.66,4.79-.01,1.79-.52,3.35-2.54,3.54-1.93.18-2.58-1.39-2.88-2.9-1.04-5.24-3.61-9.75-6.45-14.15-.37-.57-.81-1.08-1.49-1.99-.71,1.81-.43,3.23-.19,4.66.76,4.53.32,9.03-.48,13.49-.3,1.67-1.05,3.2-3.14,3.08-2.28-.13-2.31-1.86-2.36-3.55-.12-4.84.82-9.76-1.15-14.46-.35-.85-.45-1.81-1.5-2.51-1.72,1.73-1.71,4.14-2.41,6.25-.73,2.2-1.25,4.47-2.05,6.64-.52,1.42-1.67,2.34-3.29,1.87-1.77-.51-2.25-1.9-1.83-3.59,1.41-5.63,2.5-11.31,2.92-17.11.08-1.04.26-2.07.32-3.11.13-2.13-.09-3.69-2.75-1.86-.72.5-1.73.72-2.63.79-1.21.09-2.74.51-3.44-.92-.71-1.46.58-2.34,1.45-3.22,2.06-2.1,3.86-4.41,4.65-7.25,1.29-4.6,4.6-7.14,8.65-8.9,1.95-.85,3.71-1.87,5.26-3.29.88,1.1,2.05,1.45,3.41,1.31,1.11,3.44,4.08,5.1,6.81,6.9,2.09,1.38,4.38,2.47,6.58,3.69,0,1.03-.29,2.16.04,3.07,1.65,4.65,3.16,9.32,3.95,14.22.19,1.16.94,2.08,2.07,2.59.81,3.19,2.77,6.04,2.89,9.44.07,2.03.03,4-2.66,4.34Z"/>
        <path class="cls-2" d="m117.6,259.36c1,8.88,2.64,17.55,5.84,26,2.23,5.86-2.27,10.69-8.4,9.31-3.28-.74-6.36-.5-9.56-.38-6.03.22-12.06.32-17.96-1.28-5.48-1.49-6.84-4.33-4.56-9.6,1.62-3.75,3.99-7.05,6.16-10.48,2.05-3.25,3.82-6.62,5.09-10.24,8.08.82,15.83-.62,23.4-3.34Z"/>
        <path class="cls-2" d="m189.24,262.9c2.07,6.25,6.09,11.43,9.33,17.04,4.98,8.62,3.77,12.52-6.36,13.83-4.29.55-8.55.64-12.83.57-3.77-.07-7.44-.37-11.29.36-6.52,1.24-10.47-3.82-7.89-10.25,3.24-8.09,4.67-16.46,5.53-25.01,7.59,2.87,15.56,3.15,23.52,3.47Z"/>
        <path class="cls-6" d="m146.04,132.63c6.16-1.52,12.46-2.65,18.12-5.73,4.99-2.72,9.79-5.72,13.95-9.64-.28,5.44-1.21,10.76-2.85,15.96-8.98,4.51-18.24,8.18-28.37,9.12-.63-3.2-.98-6.43-.85-9.7Z"/>
        <path class="cls-6" d="m102.3,118.07c1.49-.4,2.31.73,3.32,1.45,9.07,6.51,18.7,11.73,30.03,13.02-.46,3.25-.92,6.49-1.38,9.74-8.03-.7-15.51-3.29-22.74-6.72-1.87-.89-3.55-2.24-5.75-2.34-1.85-4.89-1.61-10.26-3.49-15.15Z"/>
        <path class="cls-3" d="m177.28,31.5c.86-3.61.48-1.98,1.34-5.59,11.14,2.43,21.48,6.99,31.73,11.8,1.78.84,3.55,1.7,5.33,2.54,1.99,1.39,3.31,3.4,4.76,5.27.08.1.15.19.21.27.37.45.61,1,.71,1.58,1.08,5.78,2.09,11.56,1.77,17.5-.34,6.37-.59,12.75-2.6,18.89-.46-2.49-.56-5.04.27-7.41,2.46-7.03.81-14.24,1.13-21.36.09-1.88-1.22-3.65-3.38-3.73-1.6-.06-2.19-.72-2.02-2.06.22-1.74.87-4.04-.48-4.94-1.95-1.3-3.78-3.04-6.23-3.58-5.21-1.16-10.06-3.41-15.14-4.95-5.71-1.73-11.66-2.69-17.43-4.22Zm41.74,16.81l-.09-.19-.1.19h.2Zm1.19,1.39l.2.02-.08-.21-.12.19Z"/>
        <path class="cls-3" d="m103.5,24.34c-.91,2.63-1.82,5.25-2.73,7.88-6.14-.23-11.81,1.91-17.41,3.89-2.37.84-4.79,1.71-7.19,2.4-5.41,1.54-9.79,5.17-15.05,6.96,1.02-2.87,3.14-4.69,5.68-6.2,11.48-6.84,23.79-11.61,36.7-14.93Z"/>
        <path class="cls-9" d="m189.24,262.9c-7.96-.32-15.93-.6-23.52-3.47-.12-1.43-.12-2.85.44-4.21,7.5-.2,15,.68,22.5.09-.13,2.56.13,5.08.58,7.59Z"/>
        <path class="cls-9" d="m117.6,259.36c-7.57,2.72-15.32,4.16-23.4,3.34.27-2.04.54-4.08.81-6.11.44-.14.92-.48,1.31-.41,7.06,1.32,13.9-1.91,20.94-.94.11,1.38.23,2.75.34,4.13Z"/>
        <path class="cls-1" d="m196.9,178.39c-1.13-.51-1.89-1.43-2.07-2.59-.79-4.89-2.3-9.56-3.95-14.22-.32-.91-.04-2.04-.04-3.07,4.18,1.61,4.57-2.28,6.24-4.3.68,8.07.83,16.13-.18,24.18Z"/>
        <path class="cls-1" d="m89.64,158.48c.94,1.77.87,3.53-.06,5.27-1.6,2.97-2.2,6.23-2.73,9.51-.34,2.11-1.07,3.97-2.81,5.32-.73-8.13-.67-16.25.01-24.38.42.68,1.06,1.31,1.21,2.05.56,2.65,2.19,2.92,4.38,2.23Z"/>
        <path class="cls-3" d="m216.52,95.79c-.15-4.27.83-8.15,3.94-11.28-.95,3.89-2.09,7.71-3.94,11.28Z"/>
        <path class="cls-1" d="m83.5,152.01c.08.3.16.6.24.9-.08-.3-.16-.6-.24-.9Z"/>
        <path class="cls-1" d="m197.28,152.88c.06-.27.12-.54.19-.81-.06.27-.12.54-.19.81Z"/>
        <polygon class="cls-12" points="60.38 36.39 60.55 36.24 60.39 36.41 60.38 36.39"/>
        <path class="cls-7" d="m99.45,42.64c.73-.22,1.11-.7,1.31-1.45,1.72-6.47,4.2-12.38,8.37-17.94,4.46-5.94,9.68-10.43,16.22-13.3,8.83-3.89,17.92-4.63,27.31-1.22,8.35,3.04,15.19,7.92,20.16,15.13,3.66,5.3,6.76,11.02,7.42,17.67.11,1.06.04,2.14,1.36,2.51-.39,9.56-4.35,17.68-10.03,25.13-.47.62-.73,1.39-1.09,2.09-.69.21-1.15.67-1.38,1.36-4.78,2.23-8.42,6.24-13.62,7.98-13.81,4.62-26.73,3.77-38.75-4.92-1.04-.75-2.06-1.49-3.38-1.64h0c-.26-1.6-1.2-2.54-2.81-2.8-.21-.7-.65-1.17-1.37-1.37-1.57-4.62-5.48-7.99-6.76-12.76-1.28-4.76-2.9-9.46-2.96-14.47Z"/>
        <path class="cls-4" d="m109.17,69.87c.71.2,1.15.67,1.37,1.37-.21,2.08.73,3.02,2.81,2.8,0,0,0,0,0,0,5.53,7.97,13.84,11.29,22.85,12.36,9.74,1.15,19.01-1.55,26.92-7.37,2.19-1.61,5.94-2.51,5.99-6.41.23-.69.69-1.14,1.38-1.36,2.1-.54,3.06-.42,2.04,2.25-2.19,5.71-6.77,8.87-11.74,11.66-3.62,2.03-7.39,3.72-11.49,4.69-1.76.41-3.3,1.26-3.98,3.43-.68,2.15-2.92,2.97-5.01,2.9-1.8-.06-4.16-.85-4.38-2.69-.39-3.27-2.65-3.44-4.87-3.92-7.27-1.55-13.6-4.83-18.65-10.32-1.63-1.77-3-3.83-4.2-5.92-.68-1.19-.86-2.74.98-3.47Z"/>
        <path class="cls-8" d="m102.3,118.07c1.88,4.88,1.64,10.26,3.49,15.15-.26,2.71.49,5.3,1.1,7.87.44,1.88.55,3.62.04,5.44-1.39-.18-2.08,1.25-3.31,1.44-2.93-6.91-3.83-14.36-5.49-21.59-.62-2.71-1.74-5.22-2.31-7.95-1.35-6.5-3.19-12.9-4.78-19.34-.74-3-1.38-6.02-2.07-9.04,4.59,3.81,10.6,6.23,10.74,13.86.09,4.74,2.62,9.26,2.59,14.16Z"/>
        <path class="cls-8" d="m175.26,133.21c1.64-5.19,2.58-10.52,2.85-15.96,2.69-5.1,2.29-10.96,3.98-16.34.8-2.55,1.53-4.55,3.93-6.03,2.02-1.24,3.61-3.18,5.39-4.81,1.24,3.12-.71,5.83-1.28,8.67-1.14,5.6-2.66,11.13-4.22,16.64-3.05,10.78-4.66,21.94-8.45,32.53-1.36.14-2.53-.22-3.41-1.31-.5-4.55,1.02-8.91,1.22-13.39Z"/>
        <path class="cls-11" d="m82.03,80.26c2.3,2.13,4.92,3.96,6.36,6.89-.09.09-.18.18-.27.28-2.71-1.79-5.49-3.52-6.18-7.08,0,0,.09-.09.09-.09Z"/>
        <path class="cls-11" d="m80.54,78.97c-.42-.12-.89-.19-.89-.78,0-.08.14-.22.21-.22.59,0,.65.48.78.89l-.1.1Z"/>
        <path class="cls-11" d="m198.64,81.12c-.18.02-.37.04-.55.04-.02,0-.03-.2-.05-.3.18-.02.37-.04.55-.04.02,0,.03.2.05.3Z"/>
        <path class="cls-11" d="m80.64,78.86c.77.16,1.22.64,1.38,1.4,0,0-.09.09-.09.09-.78-.15-1.24-.61-1.39-1.39,0,0,.1-.1.1-.1Z"/>
        <polygon class="cls-13" points="219.02 48.3 218.82 48.3 218.92 48.11 219.02 48.3"/>
        <polygon class="cls-13" points="220.21 49.69 220.33 49.5 220.41 49.71 220.21 49.69"/>
        <path class="cls-13" d="m169.09,72.61c-.05,3.89-3.8,4.8-5.99,6.41-7.91,5.82-17.18,8.52-26.92,7.37-9.01-1.06-17.32-4.39-22.85-12.36,1.32.15,2.34.88,3.38,1.64,12.02,8.69,24.95,9.55,38.75,4.92,5.2-1.74,8.84-5.75,13.62-7.98Z"/>
        <path class="cls-13" d="m113.34,74.04c-2.08.21-3.02-.72-2.81-2.8,1.61.26,2.55,1.19,2.81,2.8Z"/>
        <path class="cls-5" d="m180.28,32.24c.44,3.93.88,7.86,1.31,11.79-1.32-.37-1.25-1.45-1.36-2.51-.66-6.64-3.76-12.36-7.42-17.67-4.97-7.21-11.81-12.09-20.16-15.13-9.39-3.41-18.48-2.66-27.31,1.22-6.53,2.88-11.76,7.37-16.22,13.3-4.17,5.56-6.65,11.47-8.37,17.94-.2.76-.57,1.24-1.31,1.45.44-3.47.88-6.95,1.32-10.42.91-2.63,1.82-5.25,2.73-7.88,3.58-6.73,7.96-12.82,14.38-17.14,20.74-13.93,46.88-7.04,58.67,15.4.63,1.2.93,2.65,2.3,3.35.48,2.1.95,4.19,1.43,6.29Z"/>
      </g>
    </g>
  </g>
</svg>