<?xml version="1.0" encoding="UTF-8"?>
<svg id="Layer_2" data-name="Layer 2" xmlns="http://www.w3.org/2000/svg" viewBox="0 0 281.05 319.48">
  <defs>
    <style>
      .cls-1 {
        fill: #a8a6a4;
      }

      .cls-1, .cls-2, .cls-3, .cls-4, .cls-5, .cls-6, .cls-7, .cls-8, .cls-9, .cls-10, .cls-11, .cls-12 {
        stroke-width: 0px;
      }

      .cls-2 {
        fill: #fac893;
      }

      .cls-3 {
        fill: #eae3df;
      }

      .cls-4 {
        fill: #f3bf8f;
      }

      .cls-5 {
        fill: #f9f7f3;
      }

      .cls-6 {
        fill: #efede6;
      }

      .cls-7 {
        fill: #d1cfcc;
      }

      .cls-8 {
        fill: #603818;
      }

      .cls-9 {
        fill: #e4b085;
      }

      .cls-10 {
        fill: #d1d3d4;
      }

      .cls-11 {
        fill: #c6c2bf;
      }

      .cls-12 {
        fill: #ddd8d4;
      }
    </style>
  </defs>
  <g id="Layer_1-2" data-name="Layer 1">
    <g>
      <path class="cls-10" d="m171.81,41.93c-.11-.02-.21-.05-.32-.07-10.09-2.27-20.51-3.43-30.96-3.43-16.2,0-32.09,2.74-47.2,8.14.04,1.38.13,2.76.24,4.16.15-.06.3-.11.45-.17.03,0,.06-.02.09-.03,8.96-3.24,18.21-5.52,27.64-6.81h.03c6.18-.86,12.44-1.29,18.75-1.29,10.27,0,20.49,1.14,30.4,3.4.09.02.18.04.27.06,2.53.58,5.1,1.25,7.65,2,.15.04.31.09.46.14.09-1.38.14-2.75.14-4.13-2.55-.74-5.11-1.4-7.64-1.97Z"/>
      <path class="cls-10" d="m281.05,178.95c0,45.84-22.45,88.91-60.05,115.22-5.08,3.56-10.43,6.8-15.91,9.64-19.8,10.25-42.12,15.67-64.56,15.67-24.08,0-47.85-6.19-68.72-17.91C27.52,276.68,0,229.7,0,178.95,0,119.94,37.27,66.82,92.75,46.77c.19-.07.39-.14.58-.2.04,1.38.13,2.76.24,4.16C39.97,70.36,4,121.81,4,178.95c0,48.93,26.33,94.27,68.81,118.59.32.19.64.37.96.55,20.28,11.37,43.36,17.39,66.76,17.39,22.11,0,43.21-5.12,62.72-15.23.31-.16.61-.32.92-.49,5-2.63,9.88-5.61,14.53-8.87.33-.23.65-.46.97-.69,35.96-25.62,57.38-67.12,57.38-111.25,0-60.14-40.17-113.9-97.74-130.92.09-1.38.14-2.75.14-4.13.17.05.35.1.52.15,28.58,8.34,54.31,26.05,72.44,49.87,18.74,24.62,28.64,54.02,28.64,85.03Z"/>
    </g>
    <g>
      <path class="cls-12" d="m183.27,112.63c.24.2.49.41.73.61.01,1.86-.61,3.78.54,5.53.55,3.74,1.03,7.5,1.66,11.23,3.95,23.32,7.52,46.68,6.36,70.45-.46,9.33-.89,18.69-3.24,27.81-.46,1.34-1.74,2.4-1.39,4.02-2.35,1.88-1.04,5.13-2.71,7.27-.21.06-.48.06-.64.2-8.79,7.28-19.33,9.21-30.28,9.9-3.33.21-4.25-.88-3.55-4.01.36-1.61.86-3.55-.63-4.73-1.58-1.24-3.4-.51-5.03.4-.78.44-1.57.84-2.39,1.19-8.5,3.59-17.51,3.77-26.4,3.01-7.45-.64-14.79-2.65-20.39-8.25-7.19-7.19-9.52-16.44-10.71-26.1-1.71-13.9-1.15-27.88-1.48-41.83-.29-12.29,1.51-24.25,3.91-36.21.99-4.94,3.78-9.31,4.37-14.36,1.99-1.24,2.34-3.27,2.58-5.36,4.89-3.17,10.36-5.07,15.86-6.72,12.39-3.71,24.98-4.8,37.97-3.54,9.41.92,18.31,3.49,27.33,5.8,1.82.47,4.44,1.32,4.93,3.08.74,2.68,1.56,1.26,2.61.63Z"/>
      <path class="cls-6" d="m100.01,44.22c.24-2.91.49-5.81.73-8.72,1.49-.51,1.82-1.99,2.27-3.14,4.41-11.45,12.81-18.18,24.66-20.5,11.45-2.25,22.72-2.15,33.53,3.37,10.23,5.23,15.39,13.48,16,24.8.07,1.26-.5,2.77,1.16,3.53.04.33.09.66.13.99-.28.36-.56.71-.84,1.07-.15.24-.3.48-.45.72-3.2,6.89-8.92,11.08-15.67,13.76-12.76,5.07-25.93,5.16-39.12,1.95-10.14-2.46-18.1-7.91-22.39-17.84Z"/>
      <path class="cls-11" d="m92.01,118.75c-.59,5.05-3.38,9.42-4.37,14.36-2.39,11.96-4.19,23.92-3.91,36.21.33,13.95-.24,27.93,1.48,41.83,1.19,9.66,3.53,18.91,10.71,26.1,5.6,5.6,12.95,7.62,20.39,8.25,8.89.76,17.9.59,26.4-3.01.82-.35,1.62-.75,2.39-1.19,1.63-.92,3.45-1.64,5.03-.4,1.49,1.17.99,3.12.63,4.73-.71,3.13.22,4.22,3.55,4.01,10.95-.68,21.48-2.62,30.28-9.9.16-.13.42-.13.64-.19-1.85,5.45-1.02,11.1-1.29,16.67-.55.36-1.09.73-1.65,1.07-4.27,2.57-9.45,2.34-13.87,4.49-4.83.39-9.63.05-14.54,1.04-4.47.9-9.34.38-14.16-.58-5.7-1.13-11.79-.18-17.69-.5-4.28-.23-8.57-.87-12.78-1.68-4.19-.81-8.28-2.2-12.6-2.28-.72-1.33-2.17-1.49-3.37-1.96-2.74-1.07-5.24-2.49-7.07-4.81-2.27-2.89-4.12-6.06-5.09-9.63-1.18-4.37-2.22-8.77-3.32-13.16l-.02-2c1.02-.26.7-.88.76-1.71.28-4.14-1.41-7.98-1.48-12.09-.3-18.99,1.29-37.82,4.12-56.57,1.6-10.59,3.48-21.11,7.44-31.12.83-2.1,1.19-4.59,3.39-5.97Z"/>
      <path class="cls-8" d="m100.01,44.22c4.29,9.93,12.25,15.38,22.39,17.84,13.19,3.2,26.36,3.12,39.12-1.95,6.75-2.69,12.47-6.87,15.67-13.76.15-.24.3-.48.45-.72.28-.36.56-.71.84-1.07.22,1.41.44,2.82.66,4.23-1.02.18-1.1.95-1.1,1.75.05,6.62-1.55,12.96-3.21,19.3-.42,3.64-3.38,6.33-3.72,10-3.62,4.79-6.78,10.01-12.2,13.14-1.14.66-2.13,1.57-2.69,2.83-10.91-6.04-22.01-6.2-33.28-1.05-9.99-4.53-15.89-12.6-19.57-22.6-.31-.84-.56-1.7-.84-2.54-.12-.27.09-.87-.59-.58l.08.06c-.69-6.71-2.19-13.34-2.08-20.13.38-1.58-1.04-3.18.07-4.74Z"/>
      <path class="cls-4" d="m187.93,232.28c-.35-1.62.93-2.68,1.39-4.02,2.53-2.01,5.09-3.98,7.99-5.46,4.08-.21,8.06-.05,11.57,2.47.38.27,1.06.14,1.6.19,7.26,9.73,6.62,21.15,6.98,32.38.2,6.36.83,12.69,1.71,18.99.62,4.47-.97,7.46-5.28,8.3-8.72,1.71-17.55,1.71-26.25-.13-4.93-1.04-6.6-4.41-5.4-9.37.47-1.95,1.05-3.87,1.58-5.81,0,0,.24-.01.24-.01,2.77-.39,2.44-2.84,2.38-4.42-.39-11.08.83-22.07,1.48-33.1Z"/>
      <path class="cls-7" d="m210.48,225.46c-.54-.05-1.22.08-1.6-.19-3.51-2.52-7.49-2.68-11.57-2.47-.26-10.48.25-20.95-.53-31.44-.87-11.67-2.32-23.24-3.91-34.81-1.43-10.39-3.9-20.58-5.89-30.86-.44-2.29-.04-5.2-2.45-6.91-1.15-1.75-.52-3.67-.54-5.53,6.99,4.04,11.12,10.59,14.75,17.4,7.99,14.97,11.1,31.3,12.61,48,1.26,13.96,1.07,27.93.05,41.89-.12,1.65-.61,3.28-.93,4.92Z"/>
      <path class="cls-4" d="m96.65,257.77c4.33.09,8.41,1.47,12.6,2.28,4.21.82,8.5,1.45,12.78,1.68,5.9.32,11.98-.62,17.69.5,4.82.95,9.7,1.48,14.16.58,4.91-.99,9.71-.66,14.54-1.04,1.62,1.83,2.13,4.07,2.36,6.41-.3,4.65-2.38,8.14-6.84,9.76-2.44.88-3.15,4.19-6.16,4.08,3.24-4.04,6.48-8.08,4.88-14.63-.31,2.36-.91,3.9-1.34,5.44-1.11,3.97-4.31,6.42-6.43,9.64-.66.24-1.33.48-1.99.72-.19.1-.38.2-.56.3.32.43.49-.02.71-.12.74-.02,1.45-.13,2.02-.66.91-.23,1.81-.45,2.72-.68-2.49,2.79-5.97,2.91-9.27,3.27-6.3.69-12.28-1.23-18.33-2.56-1.31-.45-2.63-.9-4.05-.8-6.8-1.69-13.95-1.17-20.68-3.35-5.88-1.91-10.89-4.69-12.28-11.41-.01-3.56,1.15-6.69,3.46-9.41Z"/>
      <path class="cls-7" d="m92.01,118.75c-2.19,1.38-2.55,3.86-3.39,5.97-3.97,10.01-5.84,20.53-7.44,31.12-2.83,18.75-4.41,37.59-4.12,56.57.06,4.11,1.76,7.95,1.48,12.09-.06.84.26,1.45-.76,1.71-5.75-4.59-8.93-10.9-10.94-17.68-7.07-23.91-7.61-47.62,3.6-70.6,3.79-7.78,8.84-14.74,15.38-20.51.71.61,1.19.12,1.72-.32,2.08-1.75,4.55-2.74,7.04-3.71-.23,2.09-.58,4.12-2.58,5.36Z"/>
      <path class="cls-5" d="m178.35,43.55c-1.65-.76-1.09-2.27-1.16-3.53-.61-11.32-5.77-19.57-16-24.8-10.8-5.52-22.07-5.62-33.53-3.37-11.85,2.32-20.25,9.05-24.66,20.5-.44,1.15-.78,2.63-2.27,3.14C102.37,12.93,120.28-1.95,143.24.21c21.57,2.02,34.15,15.73,35.15,38.32.07,1.67-.02,3.35-.04,5.02Z"/>
      <path class="cls-1" d="m96.65,257.77c-2.3,2.71-3.47,5.84-3.46,9.41-4.5-.28-8.79-1.52-12.9-3.25-7.89-3.32-10.6-7.67-10.55-16.32.03-5.92,1.14-11.52,4.63-16.44.88-1.24,1.71-2.65,3.43-2.95,1.1,4.39,2.14,8.79,3.32,13.16.97,3.57,2.82,6.74,5.09,9.63,1.83,2.32,4.33,3.74,7.07,4.81,1.2.47,2.65.63,3.37,1.96Z"/>
      <path class="cls-3" d="m94.58,113.39c-2.49.97-4.96,1.96-7.04,3.71-.52.44-1.01.93-1.72.32,8.01-7.79,17.03-13.8,28.16-16.12,1.39-.29,2.88-.36,3.99-1.43,2.02.27,3.98-.07,5.99-.32,11.09-1.38,22.2-2.54,33.22.54.84.23,1.53.32,2-.57.69,1.07,1.65,1.44,2.93,1.79,7.9,2.15,15.47,5.02,21.15,11.34-1.05.64-1.86,2.05-2.61-.63-.49-1.76-3.1-2.61-4.93-3.08-9.02-2.31-17.92-4.88-27.33-5.8-12.99-1.26-25.58-.17-37.97,3.54-5.49,1.65-10.97,3.55-15.86,6.72Z"/>
      <path class="cls-11" d="m159.19,99.51c-.47.89-1.16.81-2,.57-11.02-3.08-22.13-1.92-33.22-.54-2.01.25-3.97.59-5.99.32.97-2.37,3.17-3.55,4.97-5.11,11.27-5.15,22.37-5,33.28,1.05.7,1.46,2.65,1.93,2.96,3.71Z"/>
      <path class="cls-1" d="m170.78,268.18c-.23-2.34-.74-4.58-2.36-6.41,4.41-2.15,9.59-1.91,13.86-4.49.56-.34,1.1-.71,1.65-1.06,1.57.72,1.29,2.16,1.22,3.42-.13,2.5-.4,5-.61,7.5-.17.44-.34.88-.52,1.31.01.45.02.89.03,1.34,0,0-.24.01-.24.01-4.34-.64-8.63-1.64-13.05-1.63Z"/>
      <path class="cls-2" d="m174.85,69.82c1.66-6.33,3.25-12.68,3.21-19.3,0-.81.08-1.58,1.1-1.75,4.41,4.46,4.43,9.53,2.04,14.92-1.75,2.42-2.87,5.49-6.34,6.13Z"/>
      <path class="cls-2" d="m99.94,48.96c-.11,6.79,1.39,13.42,2.08,20.13-5.56-3.97-7.95-10.96-5.57-16.33.73-1.65,1.61-3.19,3.49-3.8Z"/>
      <path class="cls-2" d="m101.95,69.03c.67-.29.47.31.59.58-.2-.19-.39-.39-.59-.58Z"/>
      <path class="cls-11" d="m184.54,118.77c2.41,1.72,2,4.62,2.45,6.91,1.99,10.28,4.45,20.46,5.89,30.86,1.59,11.57,3.04,23.14,3.91,34.81.78,10.5.27,20.97.53,31.44-2.89,1.48-5.46,3.45-7.99,5.46,2.35-9.12,2.78-18.48,3.24-27.81,1.16-23.77-2.41-47.13-6.36-70.45-.63-3.73-1.11-7.49-1.66-11.23Z"/>
      <path class="cls-2" d="m184.07,269.79c-.01-.45-.02-.89-.04-1.34.17-.44.34-.88.52-1.31.21-2.5.47-5,.61-7.5.07-1.26.35-2.7-1.22-3.42.27-5.57-.56-11.23,1.29-16.67,1.67-2.14.36-5.39,2.71-7.27-.65,11.02-1.87,22.02-1.48,33.1.06,1.57.38,4.03-2.38,4.42Z"/>
      <path class="cls-5" d="m177.65,45.61c-.15.24-.3.48-.45.72.15-.24.3-.48.45-.72Z"/>
      <path class="cls-9" d="m154.89,282.45c2.12-3.22,5.33-5.67,6.43-9.64.43-1.54,1.03-3.08,1.34-5.44,1.6,6.55-1.64,10.59-4.88,14.63,0,0,.01,0,.01,0-.91.23-1.81.45-2.72.68l-.18-.24Z"/>
      <path class="cls-9" d="m155.08,282.7c-.57.53-1.28.64-2.02.66l-.15-.18c.66-.24,1.33-.48,1.99-.72,0,0,.18.24.18.24Z"/>
      <path class="cls-9" d="m153.06,283.36c-.23.11-.39.56-.71.12.19-.1.38-.2.56-.3,0,0,.15.18.15.18Z"/>
      <path class="cls-4" d="m184.55,267.14c-.17.44-.35.88-.52,1.31.17-.44.34-.88.52-1.31Z"/>
    </g>
  </g>
</svg>