<?xml version="1.0" encoding="UTF-8"?>
<svg id="Layer_2" data-name="Layer 2" xmlns="http://www.w3.org/2000/svg" viewBox="0 0 281.05 319.48">
  <defs>
    <style>
      .cls-1 {
        fill: #a8a6a4;
      }

      .cls-1, .cls-2, .cls-3, .cls-4, .cls-5, .cls-6, .cls-7, .cls-8, .cls-9, .cls-10, .cls-11 {
        stroke-width: 0px;
      }

      .cls-2 {
        fill: #fac893;
      }

      .cls-3 {
        fill: #f3bf8f;
      }

      .cls-4 {
        fill: #f9f7f3;
      }

      .cls-5 {
        fill: #928f8e;
      }

      .cls-6 {
        fill: #efede6;
      }

      .cls-7 {
        fill: #603818;
      }

      .cls-8 {
        fill: #e4b085;
      }

      .cls-9 {
        fill: #d1d3d4;
      }

      .cls-10 {
        fill: #c6c2bf;
      }

      .cls-11 {
        fill: #ddd8d4;
      }
    </style>
  </defs>
  <g id="Layer_1-2" data-name="Layer 1">
    <g>
      <path class="cls-9" d="m171.81,41.93c-.11-.02-.21-.05-.32-.07-10.09-2.27-20.51-3.43-30.96-3.43-16.2,0-32.09,2.74-47.2,8.14.04,1.38.13,2.76.24,4.16.15-.06.3-.11.45-.17.03,0,.06-.02.09-.03,8.96-3.24,18.21-5.52,27.64-6.81h.03c6.18-.86,12.44-1.29,18.75-1.29,10.27,0,20.49,1.14,30.4,3.4.09.02.18.04.27.06,2.53.58,5.1,1.25,7.65,2,.15.04.31.09.46.14.09-1.38.14-2.75.14-4.13-2.55-.74-5.11-1.4-7.64-1.97Z"/>
      <path class="cls-9" d="m281.05,178.95c0,45.84-22.45,88.91-60.05,115.22-5.08,3.56-10.43,6.8-15.91,9.64-19.8,10.25-42.12,15.67-64.56,15.67-24.08,0-47.85-6.19-68.72-17.91C27.52,276.68,0,229.7,0,178.95,0,119.94,37.27,66.82,92.75,46.77c.19-.07.39-.14.58-.2.04,1.38.13,2.76.24,4.16C39.97,70.36,4,121.81,4,178.95c0,48.93,26.33,94.27,68.81,118.59.32.19.64.37.96.55,20.28,11.37,43.36,17.39,66.76,17.39,22.11,0,43.21-5.12,62.72-15.23.31-.16.61-.32.92-.49,5-2.63,9.88-5.61,14.53-8.87.33-.23.65-.46.97-.69,35.96-25.62,57.38-67.12,57.38-111.25,0-60.14-40.17-113.9-97.74-130.92.09-1.38.14-2.75.14-4.13.17.05.35.1.52.15,28.58,8.34,54.31,26.05,72.44,49.87,18.74,24.62,28.64,54.02,28.64,85.03Z"/>
    </g>
    <g>
      <g>
        <path class="cls-11" d="m72.39,211.06c-.06-14.38.47-28.72,2.15-43.01,1.63-13.84,3.64-27.58,7.38-41.05,2.44-8.76,6.89-15.67,15.54-19.41,3.13-1.35,6.1-3.07,9.14-4.63,1.27-.1,1.95.87,2.82,1.52,2.33,1.76,7.45,1.82,9.15-.4,2.82-3.7,6.39-4.33,10.56-3.68.28,1.52,1.46,1.69,2.71,1.92,5.27.98,10.55.96,15.79-.08,3.71-.73,7.17-2.04,9.7-5.17.87-1.07,1.55-2.48,3.1-2.86,12.1,3.92,23.85,8.63,35.1,14.66,6.42,3.44,10.07,8.68,12.24,15.34,4,12.26,5.95,24.91,7.6,37.64,2.89,22.33,3.93,44.7,1.49,67.15-.42,3.83-1.37,7.63-.92,11.53-.15-.1-.31-.14-.48-.13-.52-1.48-2.3-1.63-3.06-2.79-2.99-4.56-6.72-7.37-12.37-8.78-6.65-1.66-12.44-.38-18.41,1.82.02-1.55-.04-3.11.09-4.65,1.45-17.42,4.97-34.53,7.69-51.75,1.96-12.42,2.99-24.91,1.66-37.71-1.17,1.11-.79,2.29-.77,3.33.2,8.96-1.72,17.59-4.11,26.11-4.21,15.04-6.88,30.35-8.62,45.85-.46,4.14-.97,8.35-3.05,12.15-4.31,7.89-10.58,13.48-19.01,16.64-6.78,2.55-13.84,4.77-20.99,3.22-8.5-1.84-14.12-7.71-17.65-15.69-3.54-8.01-3.34-16.6-4.38-25.01-.89-7.22-.86-14.63-3.52-21.52-5.26-13.61-9.23-27.45-8.47-42.26.03-.65.35-1.61-.84-1.84-.76,1.12-.45,2.37-.44,3.55.06,6.86-.05,13.7.53,20.56.74,8.83,1.77,17.6,3.78,26.2,3.39,14.48,3.67,34.11,4.99,48.84-11.93-9.16-26.97-4.49-32.61,4.69-.66-3.32-1.92-6.64-1.86-9.95.13-6.88-1.06-13.59-1.67-20.37Zm96.54-11.83c-1.57.33-2.77,1.35-4.07,2.18-10.06,6.44-20.7,7.68-32.02,3.79-4.95-1.71-9.24-4.57-13.65-7.24-.12-.38-.16-.84-.71-.84-.07,0-.2.13-.2.2,0,.55.46.59.84.7.11,1.08.8,1.81,1.56,2.45,10.23,8.5,21.71,12.06,34.72,7.99,5.29-1.66,10.65-3.73,13.71-9.03.47-.21.93-.41,1.38-.64.03-.01-.08-.48-.19-.51-.84-.26-1.1.37-1.37.96Zm-5.96,13.1c-2.29,2.9-4.82,5.58-7.47,8.17-5.73,5.61-11.83,6.37-18.5,1.92-2.45-1.63-4.93-3.37-6.62-5.92-.5-.76-1-1.68-2.42-1.43,1.2,3.77,3.87,6.13,6.48,8.44,6.57,5.83,14.75,6.09,20.67.59,3.48-3.23,6.26-7.06,7.85-11.77Zm-18.74-62.96c1.48-3.7,2.16-38.06.9-43.39-2.3,14.88-2.82,29.09-.9,43.39Zm-16.83,64.01c-.1-.13-.2-.27-.31-.39-.01-.01-.15.09-.23.15.1.13.2.27.31.39.01.01.15-.09.23-.15Zm44.32-16.49l-.2.1.2.1v-.2Z"/>
        <path class="cls-1" d="m215.96,240.54c2.23,3.19,2.45,6.99,2.79,10.62.63,6.7.43,13.42-1.58,19.95-.15.15-.27.32-.36.52,0,0-.09.06-.09.06-1.89-.01-2,1.86-2.93,2.84-4.05,4.27-9.18,6.27-14.78,7.59-6.87,1.62-13.8,2.14-20.63.62-9.53-2.12-18.26-6.36-26.51-11.54-1.14-.71-2.79-.58-3.59-1.93,2.32-2.68,6.15-1.56,8.85-4-1.65,0-2.85-.01-4.06,0-6.78.08-12.41,4.25-18.92,5.36-1.59.27-3.01,1.33-4.49,2.06-6.58,3.23-12.46,7.88-20.13,8.9-9.36,1.24-18.43,1.66-27.1-3.15-3.41-1.89-5.35-5.2-8.37-7.38,0,0-.07-.07-.07-.07-.18-.18-.35-.37-.53-.56-1.15-2.58-1.18-5.39-1.59-8.11.23-4.34-.41-8.73.78-13.03.59-2.12.8-4.39,3.25-5.35.01,1.08,2.09-.05,2.1,1.03,2.06-2.21.66.36.67.4.04.15.34,0,.4.13.23,4.26,3.24-3.33,5.79.13,1.65,2.25-.48,3.38,3.23,3.5,2.57.08,4.97,7.78,7.4,5.25.11-.11-.8,9.27-.48,9.34,3.37.74,4.43-.09,4.23-3.59-.1-1.64-.63-3.25-.85-4.89-.61-4.46-1.9-8.91-.46-13.44,2.52,1.71,5.98,1.84,7.83,4.68,1.89,2.99,3.16,3.3,5.53,1.39,1.93-.13,3.68.64,5.5,1.06,6.22,1.44,12.36,3.69,18.88,2.79,14.51-1.99,29.07-3.76,43.21-7.86.04.44.1.88.11,1.32.06,1.53-.21,3.25,1.85,3.77,2.01.51,3-.99,4.1-2.22.79-.89.74-2.06.94-3.13.48-2.61,2.12-3.86,4.67-3.74,2.8.13,2.81,2.46,2.95,4.4.15,2.2.24,4.42-.28,6.61-.68,2.9-1.32,5.82-1.87,8.75-.68,3.65.67,4.96,4.29,4.26.74-.14,1.65-.71,2.16.07,1.48,2.24,2.95,1.81,4.6.25.58-.55,1.31-.83,2.13-.38,1.49.8,2.41-.17,3.51-1,3.77-2.84,5.31-6.78,6.33-11.22.86-3.72-.12-7.55,1.11-11.19.18,0,.34.03.48.13Z"/>
        <path class="cls-2" d="m129.14,100.4c-4.17-.65-7.74-.02-10.56,3.68-1.7,2.22-6.81,2.16-9.15.4-.87-.65-1.55-1.62-2.82-1.52-3.12-2.5-5.93-5.35-8.33-8.52-2.23-2.94-4.55-5.64-8.07-7.14-2-.86-2.45-2.28-.97-4.2,2.28-2.99,2.19-6.23,1.15-9.77-2.28-7.75-4.01-15.63-5.03-23.66,4.19-2.72,8.79-4.58,13.42-6.36.39,1.32,1.71,1.29,2.65,1.7,6.04,2.65,10.96,6.66,14.57,12.16,1.63,2.49,2.93,5.19,4.39,7.79.4.71.39,2,1.6,1.7,1.16-.29.64-1.44.73-2.28.17-1.65.26-3.32.65-4.92,1.03-4.18,3.45-6.37,7.2-6.73,3.26-.31,5.89,1.4,7.72,5.16,1.67,3.43,2.32,7.14,2.67,10.89.12,1.3.49,2.24,1.6,3.03,3.69,2.63,7.31,5.36,10.96,8.06.37,2.32.74,4.65,1.11,6.97-1.23,2.31-2.85,5.01-4.54,6.26-5.32,3.94-10.87,8.27-18.32,7.25-.86-.12-1.76.02-2.64.04Z"/>
        <path class="cls-7" d="m153.52,79.88c-3.65-2.69-7.26-5.43-10.96-8.06-1.12-.79-1.48-1.73-1.6-3.03-.35-3.75-1-7.46-2.67-10.89-1.83-3.76-4.46-5.47-7.72-5.16-3.75.36-6.17,2.55-7.2,6.73-.39,1.6-.49,3.27-.65,4.92-.08.84.43,1.98-.73,2.28-1.21.31-1.21-.99-1.6-1.7-1.46-2.6-2.76-5.31-4.39-7.79-3.61-5.5-8.53-9.51-14.57-12.16-.94-.41-2.26-.38-2.65-1.7,21.21-5.08,42.17-4.08,62.9,2.52l1.9.96c.85.33,1.5,1.36,2.62.74-.86,9.26-2.5,18.3-7.57,26.36-1.42,2.26-2.93,4.4-5.11,5.99Z"/>
        <path class="cls-5" d="m74.06,271.05c3.02,2.18,4.96,5.49,8.37,7.38,8.67,4.8,17.73,4.39,27.1,3.15,7.67-1.02,13.55-5.66,20.13-8.9,1.48-.73,2.9-1.78,4.49-2.06,6.51-1.11,12.14-5.28,18.92-5.36,1.2-.01,2.4,0,4.06,0-2.7,2.43-6.53,1.32-8.85,4,.8,1.35,2.45,1.22,3.59,1.93,8.25,5.19,16.98,9.42,26.51,11.54,6.83,1.52,13.76,1,20.63-.62,5.6-1.32,10.73-3.32,14.78-7.59.93-.98,1.04-2.85,2.93-2.84-1.96,7.79-7.68,12.1-14.68,14.42-7.1,2.36-14.56,3.56-22.1,1.48-.5-.14-1.09.08-1.64.14-1.78-.42-3.57-.84-5.35-1.26-6.15-1.66-11.82-4.29-17.07-7.93-9.73-6.74-19.22-5.73-28.68.82-11.26,7.8-23.77,10.03-37,6.79-7.97-1.95-13.72-6.9-16.16-15.09Z"/>
        <path class="cls-4" d="m161.68,45.83c-20.74-6.6-41.7-7.61-62.9-2.52-4.63,1.78-9.23,3.64-13.42,6.36C81.64,21.55,98.29-.48,127.52,0c17.54.29,34.13,15.69,37.53,33.99.83,4.49.66,9.03,1.15,13.53-1.12.61-1.77-.42-2.62-.74,0-.73.27-1.62-.62-1.98-.84-.33-1.07.39-1.28,1.02Zm-75.49,1.15c.53-2.47,1.87-2.32,3.17-2.6,4.69-1,9.32-2.29,14-3.34,3.41-.76,6.68-2.5,10.22-2.2,6.3.53,12.6.05,18.89.3,1.77.07,3.46-1.1,5.23-.36,5.9,2.48,12.51,1.66,18.45,4.12,1.85.76,4.13.62,6.22.62,1.61,0,2.35-1.14,2.06-2.72-.45-2.52-.27-4.97-1.32-7.65-1.16-2.98-1.87-5.96-3.59-8.96-3.35-5.84-7.7-10.31-13.1-14.08-4.28-2.99-9.1-4.81-14.04-5.4-9.65-1.16-19.16-.07-27.85,4.88-3.65,2.08-7.35,4.36-9.95,7.55-6.81,8.35-9.59,18.1-8.38,29.84Z"/>
        <path class="cls-3" d="m75.9,243.93c-2.45.96-2.66,3.23-3.25,5.35-1.19,4.3-.55,8.69-.78,13.03-.66-.03-1.33-.03-1.99-.11-7.27-.89-8.64-2.75-7.58-10.08.24-1.63.23-3.3.34-4.95.97-5.75,1.12-11.54.83-17.36.77-3.51.68-7.21,2.03-10.59,1.39-3.46,2.87-6.91,6.9-8.16.61,6.78,1.8,13.49,1.67,20.37-.06,3.3,1.2,6.63,1.86,9.95,0,.85-.02,1.7-.03,2.55Z"/>
        <path class="cls-10" d="m129.14,100.4c.88-.02,1.78-.16,2.64-.04,7.45,1.02,12.99-3.31,18.32-7.25,1.68-1.25,3.31-3.94,4.54-6.26,2.3,2.17,2.93,5.66,5.81,7.37-1.55.38-2.24,1.79-3.1,2.86-2.53,3.13-5.99,4.44-9.7,5.17-5.24,1.03-10.52,1.05-15.79.08-1.26-.23-2.43-.4-2.71-1.92Z"/>
        <path class="cls-5" d="m216.82,271.63c.09-.2.21-.37.36-.52-.12.17-.24.35-.36.52Z"/>
        <path class="cls-5" d="m73.46,270.43c.18.19.35.37.53.56-.18-.19-.35-.37-.53-.56Z"/>
        <path class="cls-10" d="m178.87,243.86c-14.13,4.1-28.69,5.87-43.21,7.86-6.52.89-12.66-1.35-18.88-2.79-1.82-.42-3.57-1.19-5.5-1.06-.04-3.7-4.53-4.32-4.45-8.02.05-2-.49-3.63-1.99-4.94-1.32-14.73,2.09-32.58-1.3-47.06-2.01-8.6-3.04-17.38-3.78-26.2-.58-6.86-.47-13.71-.53-20.56,0-1.17-.32-2.42.44-3.55,1.18.22.87,1.19.84,1.84-.75,14.81,3.21,28.65,8.47,42.26,2.66,6.89,2.63,14.3,3.52,21.52,1.04,8.41.84,17,4.38,25.01,3.53,7.98,9.15,13.84,17.65,15.69,7.14,1.55,14.21-.67,20.99-3.22,8.43-3.17,14.7-8.75,19.01-16.64,2.08-3.8,2.58-8.01,3.05-12.15,1.74-15.5,4.4-30.81,8.62-45.85,2.39-8.53,4.31-17.16,4.11-26.11-.02-1.03-.4-2.22.77-3.33,1.34,12.81.31,25.29-1.66,37.71-2.72,17.23-6.24,34.34-7.69,51.75-.13,1.54-.06,3.1-.09,4.65-1.79,4.22-2.6,8.64-2.77,13.2Z"/>
        <path class="cls-2" d="m178.87,243.86c.17-4.56.98-8.98,2.77-13.2,5.97-2.2,11.76-3.47,18.41-1.82,5.65,1.41,9.38,4.23,12.37,8.78.76,1.16,2.53,1.31,3.06,2.79-1.23,3.63-.25,7.47-1.11,11.19-1.02,4.44-2.56,8.38-6.33,11.22-1.1.82-2.02,1.8-3.51,1-.82-.44-1.55-.16-2.13.38-1.65,1.56-3.11,1.99-4.6-.25-.51-.78-1.42-.21-2.16-.07-3.62.7-4.97-.61-4.29-4.26.55-2.93,1.18-5.85,1.87-8.75.52-2.2.43-4.42.28-6.61-.14-1.95-.15-4.27-2.95-4.4-2.55-.12-4.19,1.14-4.67,3.74-.2,1.07-.14,2.25-.94,3.13-1.1,1.23-2.09,2.73-4.1,2.22-2.06-.52-1.79-2.23-1.85-3.77-.02-.44-.07-.88-.11-1.32Zm18.69,17.14c2.33-4.27,2.74-9.91,1.03-13.78-.36,4.74-.66,8.85-1.03,13.78Zm7.01-12.74c.13,4.03-1.12,7.97-.66,11.99,1.99-3.9,2.23-7.9.66-11.99Zm5.52.57c-.27-.03-.55-.05-.82-.08-.3,3.63-.61,7.26-.91,10.89,2.33-3.44,2.08-7.12,1.73-10.81Z"/>
        <path class="cls-10" d="m119.19,197.95c4.42,2.67,8.7,5.54,13.65,7.24,11.32,3.89,21.96,2.65,32.02-3.79,1.3-.83,2.5-1.85,4.07-2.18l.19.2c-3.06,5.29-8.43,7.37-13.72,9.02-13,4.08-24.49.51-34.72-7.99-.77-.64-1.45-1.37-1.56-2.45l.07-.07Z"/>
        <path class="cls-10" d="m162.97,212.33c-1.59,4.71-4.38,8.54-7.85,11.77-5.93,5.51-14.1,5.25-20.67-.59-2.6-2.31-5.28-4.67-6.48-8.44,1.42-.25,1.92.67,2.42,1.43,1.7,2.55,4.18,4.29,6.62,5.92,6.66,4.45,12.76,3.68,18.5-1.92,2.64-2.58,5.17-5.26,7.47-8.17Z"/>
        <path class="cls-10" d="m144.24,149.37c-1.91-14.3-1.4-28.51.9-43.39,1.26,5.33.57,39.69-.9,43.39Z"/>
        <path class="cls-10" d="m168.93,199.23c.27-.6.53-1.22,1.37-.96.11.04.22.5.19.51-.45.24-.92.44-1.38.65,0,0-.19-.2-.19-.2Z"/>
        <path class="cls-10" d="m119.12,198.02c-.39-.11-.84-.15-.84-.7,0-.07.13-.2.2-.2.55,0,.59.45.72.84,0,0-.07.07-.07.07Z"/>
        <path class="cls-10" d="m127.4,213.38c-.08.05-.22.16-.23.15-.12-.12-.21-.26-.31-.39.08-.05.22-.16.23-.15.12.12.21.26.31.39Z"/>
        <polygon class="cls-10" points="171.73 196.89 171.72 197.09 171.53 196.99 171.73 196.89"/>
        <path class="cls-10" d="m97.93,241.79c1.01-2.54,2.66-3.24,4.63-1.75,2.08,1.57,3.66,3.53,3.2,6.43-1.85-2.83-5.31-2.97-7.83-4.68Z"/>
        <path class="cls-3" d="m75.93,247.17c.01.2.02.41.03.61-.06-.14-.15-.28-.18-.42-.01-.05.1-.13.16-.19Z"/>
        <path class="cls-6" d="m161.68,45.83c.2-.63.44-1.36,1.28-1.02.9.36.63,1.25.62,1.98l-1.9-.96Z"/>
        <path class="cls-6" d="m86.19,46.98c-1.21-11.74,1.57-21.49,8.38-29.84,2.6-3.19,6.3-5.47,9.95-7.55,8.69-4.95,18.2-6.04,27.85-4.88,4.95.59,9.76,2.42,14.04,5.4,5.41,3.78,9.75,8.24,13.1,14.08,1.72,3,2.43,5.99,3.59,8.96,1.04,2.68.86,5.12,1.32,7.65.28,1.58-.45,2.72-2.06,2.72-2.08,0-4.37.14-6.22-.62-5.94-2.45-12.55-1.64-18.45-4.12-1.76-.74-3.45.43-5.23.36-6.29-.25-12.59.23-18.89-.3-3.54-.3-6.81,1.44-10.22,2.2-4.68,1.04-9.31,2.34-14,3.34-1.31.28-2.64.13-3.17,2.6Zm71.29-23.11l-.09-.18-.09.17h.18Z"/>
        <path class="cls-8" d="m197.55,261c.37-4.93.68-9.04,1.03-13.78,1.7,3.87,1.3,9.51-1.03,13.78Z"/>
        <path class="cls-8" d="m204.57,248.26c1.56,4.09,1.33,8.09-.66,11.99-.45-4.02.8-7.96.66-11.99Z"/>
        <path class="cls-8" d="m210.09,248.83c.35,3.69.59,7.37-1.73,10.81.3-3.63.61-7.26.91-10.89.27.03.55.05.82.08Z"/>
        <path class="cls-3" d="m77.01,247.09c-.08-.04-.19-.05-.22-.11-.04-.08,0-.19,0-.29.12.05.25.1.37.15-.05.08-.1.17-.14.25Z"/>
        <polygon class="cls-4" points="157.47 23.87 157.29 23.87 157.39 23.69 157.47 23.87"/>
      </g>
      <path class="cls-2" d="m111.17,247.89c-.03.4-.21.77-.47,1.06-2.28,2.5-4.49,5.05-7.86,6.27-1.34.49-1.03,2.1-1.24,3.24-.44,2.49-.67,5.02-1.09,7.52-.24,1.43-.64,3.02-2.48,2.99-1.6-.03-2.52-1.08-2.82-2.74-.3-1.62-1.08-3.19-1.16-4.81-.19-4.08-2.31-5.6-6.21-6.07-6.55-.78-9.78-2.68-11.63-7.42-.62-1.59-2.9-1.49-3.4.14-1.23,4.06-1.58,8.15-1.55,12.3.01,1.06-.91,1.88-1.96,1.79-.87-.08-1.74-.17-2.59-.36-3.74-.87-5.14-2.53-4.64-6.38,1.18-9.23,1.17-18.53,1.93-27.78.31-3.77,1.2-7.44,3.34-10.65.67-1.01,1.4-2,2.34-2.72,1.07-.83,2.75-.19,2.86,1.16,0,.1,0,.2,0,.3-.7,6.63,1.67,13.01,1.47,19.59-.04,1.4.07,2.73,1.97,2.75.03.1.05.22.1.31.05.09.18.24.2.23,1.1-.57,1.67-1.64,2.37-2.58,6.14-8.26,17.37-9.77,25.52-3.45.42.33.96.51,1.47.73.19.08.36.2.51.34.49.46.98.92,1.47,1.38.16.15.29.32.38.51,1.94,3.9,3.53,7.88,3.19,12.35Zm-35.61-7.18l.19.02-.08-.2-.11.18Z"/>
    </g>
  </g>
</svg>