<?xml version="1.0" encoding="UTF-8"?>
<svg id="Layer_2" data-name="Layer 2" xmlns="http://www.w3.org/2000/svg" viewBox="0 0 281.05 319.48">
  <defs>
    <style>
      .cls-1 {
        fill: #a8a6a4;
      }

      .cls-1, .cls-2, .cls-3, .cls-4, .cls-5, .cls-6, .cls-7, .cls-8, .cls-9, .cls-10, .cls-11 {
        stroke-width: 0px;
      }

      .cls-2 {
        fill: #fac893;
      }

      .cls-3 {
        fill: #f3bf8f;
      }

      .cls-4 {
        fill: #f9f7f3;
      }

      .cls-5 {
        fill: #928f8e;
      }

      .cls-6 {
        fill: #efede6;
      }

      .cls-7 {
        fill: #603818;
      }

      .cls-8 {
        fill: #e4b085;
      }

      .cls-9 {
        fill: #d1d3d4;
      }

      .cls-10 {
        fill: #c6c2bf;
      }

      .cls-11 {
        fill: #ddd8d4;
      }
    </style>
  </defs>
  <g id="Layer_1-2" data-name="Layer 1">
    <g>
      <g>
        <path class="cls-9" d="m171.81,41.93c-.11-.02-.21-.05-.32-.07-10.09-2.27-20.51-3.43-30.96-3.43-16.2,0-32.09,2.74-47.2,8.14.04,1.38.13,2.76.24,4.16.15-.06.3-.11.45-.17.03,0,.06-.02.09-.03,8.96-3.24,18.21-5.52,27.64-6.81h.03c6.18-.86,12.44-1.29,18.75-1.29,10.27,0,20.49,1.14,30.4,3.4.09.02.18.04.27.06,2.53.58,5.1,1.25,7.65,2,.15.04.31.09.46.14.09-1.38.14-2.75.14-4.13-2.55-.74-5.11-1.4-7.64-1.97Z"/>
        <path class="cls-9" d="m281.05,178.95c0,45.84-22.45,88.91-60.05,115.22-5.08,3.56-10.43,6.8-15.91,9.64-19.8,10.25-42.12,15.67-64.56,15.67-24.08,0-47.85-6.19-68.72-17.91C27.52,276.68,0,229.7,0,178.95,0,119.94,37.27,66.82,92.75,46.77c.19-.07.39-.14.58-.2.04,1.38.13,2.76.24,4.16C39.97,70.36,4,121.81,4,178.95c0,48.93,26.33,94.27,68.81,118.59.32.19.64.37.96.55,20.28,11.37,43.36,17.39,66.76,17.39,22.11,0,43.21-5.12,62.72-15.23.31-.16.61-.32.92-.49,5-2.63,9.88-5.61,14.53-8.87.33-.23.65-.46.97-.69,35.96-25.62,57.38-67.12,57.38-111.25,0-60.14-40.17-113.9-97.74-130.92.09-1.38.14-2.75.14-4.13.17.05.35.1.52.15,28.58,8.34,54.31,26.05,72.44,49.87,18.74,24.62,28.64,54.02,28.64,85.03Z"/>
      </g>
      <g>
        <path class="cls-11" d="m212.96,214.08c-.5,2.02-.49,4.09-.47,6.15-.02.8-.78,1.76.48,2.3-1.28.73-.63,1.97-.77,2.99-.77,4.9-1.38,9.82-1.61,14.78-3.58-2.91-6.04-7.16-10.19-9.31-7.88-4.07-15.94-3.81-23.94-.1.03-1.99-.08-4,.13-5.97,1.75-16.8,4.78-33.41,7.57-50.06,2.1-12.5,3.06-25.09,1.68-38.75-.44,1.33-.69,1.72-.69,2.1.26,13.36-3.76,25.95-6.92,38.7-2.79,11.26-4.58,22.73-5.7,34.27-.95,9.71-4.56,17.74-12.42,23.91-6.43,5.04-13.78,7.13-21.57,8.64-11.86,2.3-18.67-2.44-24.48-11.05-4.47-6.62-5.58-14.46-6.14-22.4-.7-9.89-1.14-19.86-4.46-29.38-1.2-3.42-2.36-6.86-3.53-10.29-3.47-10.15-4.82-20.61-4.6-31.3.01-.72.47-1.83-.91-2.1-.12.35-.3.65-.32.96-.48,11.4-.06,22.8,1.5,34.08,1.48,10.69,3.91,21.25,5.48,31.94,1.36,9.27,3.22,26.97,3.47,36.37-12.3-9.01-27.42-8.82-33.8,1.08-.65-3.43-1.88-6.87-1.84-10.29.08-6.92-.96-13.69-1.66-20.52-.28-16.39.74-32.7,2.84-48.95,1.63-12.61,3.63-25.14,7.48-37.32,2.32-7.34,6.48-12.79,13.48-16.33,11.26-5.71,22.85-10.52,34.89-14.3,1.53,3,3.56,5.45,6.77,6.83,5.42,2.33,11.11,2.89,16.87,2.36,2.38-.22,5.07-.27,6.9-2.41,3.83-.43,7.81-.68,10.08,3.12,1.53,2.56,3.67,2.43,5.62,1.89,2.25-.62,4.7-.94,6.67-2.43,4.09,1.86,8.13,3.8,12.09,5.95,5.33,2.9,8.82,7.15,10.87,12.83,4.81,13.32,6.77,27.22,8.54,41.16,2.12,16.7,3.18,33.47,2.65,50.31-.17.18-.18.36-.03.55Zm-55.1-1.14c-.4.1-.85.13-.89.68,0,.07.13.21.2.2.56-.04.58-.5.69-.89Zm8.63-15.97c-1.2.13-1.88,1.07-2.75,1.74-7.68,5.89-16.25,9.59-26.05,8.77-8.42-.7-15.98-4.1-22.74-9.22-.53-.4-.97-1.34-2.08-.47,1.17,2.17,3.44,3.03,5.22,4.41,11.57,8.94,24.02,10.67,37.22,4.09,4.38-2.18,8.77-4.64,11.21-9.3l.16-.19-.19.16Zm-10.27,17.56c-5.14,5.36-9.3,11.04-17.21,10.45-7.61-.56-11.43-6.61-16.73-11.3,2.18,7.6,11.61,14.84,18.38,14.53,5.69-.27,14.16-7.31,15.56-13.68Zm-15.92-108.88c-2.62,14.64-3.18,29.32-1.08,44.07,1.62-14.66,1.45-29.36,1.08-44.07Z"/>
        <path class="cls-1" d="m212.27,242.84c1.24,5.63,1.78,11.31,1.54,17.09-.15,3.67-.72,7.24-1.76,10.76-8.29,10.7-19.75,13.42-32.44,12.64-13.6-.84-25.11-7.31-36.5-14.07,2.38-2.1,5.69-2.04,8.89-3.7-3.03-.13-5.5-.11-8.01.17-3.81.42-6.79,3.13-10.66,3.44-2.75.22-5.33,1.45-7.64,2.93-10.75,6.85-22.02,11.37-35.21,10.11-7.32-.7-13.5-2.99-18.38-8.49-.9-1.01-1.72-2.02-3.11-2.33-1.64-2.86-1.52-6.27-2.86-9.23.7-1.31.76-2.76.59-4.15-.34-2.94.06-5.79.79-8.6.45-1.72.58-3.84,3.19-3.82-.3,2.69,3.29.09,4.05,2.56,1.06,3.5,1.39-.81,4.79,1.65,2.01,1.46,5.49-.29,7.1.99,1.54,1.23,1.01,6.11,2.48,4.62.72-.74-.06,8.39.85,8.5,3.55.45,4.35-.31,4.07-3.95-.12-1.53-.63-3.02-.83-4.55-.58-4.44-2.42-8.84-.56-13.39,2.93,1.12,6.06,1.91,7.97,4.74,1.58,1.84,3.09,4.12,5.48.86,2.42.65,4.81,1.57,7.27,1.89,5.01.66,9.85,2.99,14.91,2.47,8.41-.86,16.79-2.18,25.13-3.62,6.82-1.17,13.56-2.79,20.34-4.22.38,1.77-.74,4.5,2.35,4.62,2.68.1,4.24-1.55,4.5-4.31.06-.65.3-1.29.51-1.92.65-1.98,2.27-2.74,4.12-2.72,1.86.02,2.59,1.49,2.89,3.12.41,2.3.41,4.6-.06,6.91-.71,3.46-1.3,6.95-2.01,10.41-.36,1.77.03,3.5,1.83,3.63,2.47.19,4.86-.29,7.18,1.36,1.08.77,2.1-1.58,3.45-1.49,4.98.34,7.19-2.74,8.83-6.75,1.61-3.94,2.59-7.97,2.46-12.25-.04-1.24-.43-2.77,1.33-3.36.38.48.76.96,1.14,1.44Z"/>
        <path class="cls-2" d="m178.85,103.27c-1.97,1.48-4.42,1.8-6.67,2.43-1.95.54-4.09.68-5.62-1.89-2.27-3.8-6.25-3.55-10.08-3.12-4.48-.4-8.81.15-13.29-2.39-5.37-3.05-9.39-6.77-12.16-12.1.27-2.09.55-4.17.82-6.26,3.46-2.58,6.87-5.22,10.39-7.72,1.39-.98,2.05-2.11,2.19-3.81.31-3.76,1.04-7.44,2.78-10.86,1.58-3.1,3.82-5.13,7.56-4.83,3.34.27,5.88,2.46,7.07,6.1.66,2.03.74,4.13.72,6.24,0,.67.01,1.43.84,1.58.86.16,1.06-.61,1.33-1.2.37-.8.73-1.61,1.12-2.4,4.47-8.95,10.86-15.81,20.68-18.91,4.94.73,9.46,2.46,13.38,5.62-.95,7.89-2.59,15.64-4.86,23.24-1.11,3.73-1.22,7.15,1.16,10.36,1.21,1.62.98,2.92-.76,3.76-7.36,3.52-10.57,11.29-16.6,16.17Z"/>
        <path class="cls-7" d="m186.53,44.13c-9.82,3.1-16.21,9.96-20.68,18.91-.39.79-.75,1.6-1.12,2.4-.28.6-.47,1.37-1.33,1.2-.82-.16-.84-.92-.84-1.58.02-2.11-.06-4.2-.72-6.24-1.19-3.64-3.73-5.84-7.07-6.1-3.75-.3-5.99,1.73-7.56,4.83-1.74,3.41-2.46,7.1-2.78,10.86-.14,1.7-.8,2.83-2.19,3.81-3.52,2.49-6.93,5.13-10.39,7.72-4.49-3.4-6.87-8.26-8.81-13.31-2.3-5.98-3.64-12.2-3.66-18.65,9.13-4.66,19.03-6.23,29.07-7.28,11.41-1.19,22.73-.51,34,1.45,0,0,.13.17.13.17l.2-.09c1.09.94,3.06.15,3.74,1.9Z"/>
        <path class="cls-5" d="m69,271.37c1.39.31,2.21,1.32,3.11,2.33,4.88,5.5,11.06,7.8,18.38,8.49,13.19,1.25,24.46-3.26,35.21-10.11,2.32-1.48,4.89-2.71,7.64-2.93,3.86-.31,6.85-3.02,10.66-3.44,2.51-.28,4.98-.3,8.01-.17-3.2,1.65-6.51,1.6-8.89,3.7,11.38,6.76,22.9,13.23,36.5,14.07,12.7.79,24.16-1.94,32.44-12.64-2.03,8.26-8.03,12.68-15.42,15.5-6.9,2.64-14.19,2.39-21.34,1.59-9.02-1.01-17.37-4.18-24.88-9.38-9.43-6.53-18.67-5.53-27.79.66-9.1,6.17-19.08,9.07-30.1,8.34-9.23-.61-16.99-3.81-21.98-12.07-.73-1.21-1.64-2.4-1.55-3.95Z"/>
        <path class="cls-4" d="m186.53,44.13c-.68-1.75-2.65-.96-3.74-1.9,1.76-.07,3.59.12,5.27-.29,2.09-.51,3.73-.21,4.99,1.49,1.23,1.64,3.27,1.1,4.79,1.94.84.47,1.22-.31,1.18-1.01-.21-3.25.48-6.49-.74-9.79-.72-1.96-2.62-3.53-2.16-6.01.64-3.46-.72-6.2-3.56-8.2-.54-.38-.88-.73-1.2-1.39-1.03-2.16-2.91-3.57-4.92-4.79h0c-2.15-2.09-3.46-6.11-7.73-3.33-.12.08-.66-.16-.73-.35-1.63-4.45-6.1-4.73-9.48-5.39-11.84-2.32-23.07-.27-32.77,7.33-2.34,1.84-5.22,3.34-6.46,6.38h0c-5.46,5.71-7.4,12.92-8.55,20.41-.55,3.63.84,5.05,4.22,3.86,7.51-2.64,15.95-.8,23.1-5.01,2.24-1.32,4.18.71,6.26.93,5.92.61,11.88.58,17.84.25,3.69-.2,7.22.66,10.31,2.89-11.27-1.96-22.6-2.64-34-1.45-10.04,1.05-19.94,2.62-29.07,7.28-.6-13.96,2.72-26.45,13.11-36.52,17.15-16.6,44.7-15,59.55,3.7,5.31,6.69,7.62,14.65,8.23,23.07.28,3.82.66,7.71-.37,11.52-3.92-3.16-8.44-4.89-13.38-5.62Z"/>
        <path class="cls-3" d="m70.72,245.58c-2.61-.02-2.74,2.09-3.19,3.82-.74,2.81-1.13,5.66-.79,8.6.16,1.39.11,2.84-.59,4.15-1.54-.17-3.1-.2-4.6-.54-3.53-.81-5.15-2.57-4.68-6.12,1.35-10.12.97-20.35,2.18-30.45.69-5.74,2.1-11.44,8.23-14.21.7,6.83,1.74,13.6,1.66,20.52-.04,3.42,1.19,6.86,1.84,10.29-.02,1.32-.03,2.64-.05,3.96Z"/>
        <path class="cls-10" d="m131.03,86.2c2.77,5.33,6.8,9.05,12.16,12.1,4.48,2.54,8.81,2,13.29,2.39-1.83,2.13-4.52,2.19-6.9,2.41-5.76.53-11.45-.02-16.87-2.36-3.21-1.38-5.24-3.83-6.77-6.83,1.7-2.57,3.39-5.14,5.09-7.72Z"/>
        <path class="cls-11" d="m212.96,214.08c-.15-.19-.14-.38.03-.55.05.19.04.37-.03.55Z"/>
        <path class="cls-10" d="m173.74,244.15c-6.78,1.42-13.52,3.04-20.34,4.22-8.34,1.43-16.72,2.75-25.13,3.62-5.06.52-9.89-1.81-14.91-2.47-2.46-.32-6.47-1.05-8.89-1.7.82-3.5-2.58-5.26-2.48-8.75.06-2.02,3.01-3.96,1.49-5.28-.25-9.4-1.03-20.33-2.39-29.61-1.57-10.68-4-21.24-5.48-31.94-1.56-11.28-1.98-22.68-1.5-34.08.01-.31.2-.61.32-.96,1.38.27.92,1.38.91,2.1-.22,10.7,1.13,21.15,4.6,31.3,1.17,3.43,2.33,6.87,3.53,10.29,3.32,9.51,3.76,19.49,4.46,29.38.56,7.95,1.67,15.78,6.14,22.4,5.81,8.61,12.62,13.34,24.48,11.05,7.79-1.51,15.14-3.6,21.57-8.64,7.86-6.17,11.47-14.19,12.42-23.91,1.13-11.54,2.91-23.01,5.7-34.27,3.16-12.76,7.18-25.34,6.92-38.7,0-.38.24-.77.69-2.1,1.38,13.67.42,26.25-1.68,38.75-2.8,16.65-5.83,33.26-7.57,50.06-.21,1.97-.09,3.98-.13,5.97-1.62,4.27-2.32,8.73-2.71,13.26Z"/>
        <path class="cls-2" d="m173.74,244.15c.38-4.52,1.09-8.98,2.71-13.26,8-3.71,16.06-3.97,23.94.1,4.15,2.14,6.61,6.4,10.19,9.31.18.37.36.73.54,1.1-1.76.59-1.37,2.12-1.33,3.36.13,4.29-.85,8.31-2.46,12.25-1.64,4.01-3.86,7.09-8.83,6.75-1.35-.09-2.37,2.26-3.45,1.49-2.32-1.65-4.71-1.17-7.18-1.36-1.79-.14-2.19-1.87-1.83-3.63.71-3.46,1.3-6.95,2.01-10.41.48-2.31.48-4.61.06-6.91-.29-1.64-1.03-3.1-2.89-3.12-1.86-.02-3.47.73-4.12,2.72-.21.63-.45,1.27-.51,1.92-.26,2.76-1.82,4.41-4.5,4.31-3.09-.11-1.98-2.85-2.35-4.62Zm25.71,4.71c.07,4.05-1.29,7.97-1.19,12.39,2.31-3.31,2.85-7.98,1.19-12.39Zm-7.05,11.52c2.38-4.62,2.69-10.02,1.01-13.01-.36,4.56-.68,8.78-1.01,13.01Zm12.37-11.1c-.9,3.37-1.59,6.75-1.1,10.21,1.89-3.27,1.42-6.76,1.1-10.21Z"/>
        <path class="cls-10" d="m166.52,196.99c-2.44,4.66-6.83,7.11-11.21,9.3-13.2,6.59-25.65,4.86-37.22-4.09-1.78-1.38-4.05-2.24-5.22-4.41,1.11-.87,1.56.07,2.08.47,6.76,5.12,14.32,8.52,22.74,9.22,9.8.82,18.37-2.88,26.05-8.77.87-.67,1.54-1.61,2.75-1.74l.03.03Z"/>
        <path class="cls-10" d="m156.21,214.51c-1.4,6.37-9.86,13.41-15.56,13.68-6.77.32-16.2-6.93-18.38-14.53,5.29,4.69,9.12,10.73,16.73,11.3,7.91.59,12.07-5.08,17.21-10.45Z"/>
        <path class="cls-10" d="m140.3,105.63c.37,14.71.53,29.41-1.08,44.07-2.1-14.75-1.54-29.44,1.08-44.07Z"/>
        <path class="cls-10" d="m157.85,212.93c-.11.39-.13.86-.68.89-.07,0-.2-.14-.2-.2.04-.55.49-.59.89-.68h0Z"/>
        <polygon class="cls-10" points="166.49 196.96 166.68 196.8 166.52 196.99 166.49 196.96"/>
        <path class="cls-10" d="m92.65,242.02c0-1.83.34-3.23,2.72-3.11,2.84.15,4.38,1.81,5.14,4.25.34,1.11.09,2.4.11,3.6-1.91-2.84-5.04-3.62-7.97-4.75Z"/>
        <path class="cls-6" d="m129.27,18.82c1.23-3.04,4.12-4.55,6.46-6.38,9.7-7.6,20.93-9.65,32.77-7.33,3.38.66,7.85.94,9.48,5.39.07.19.61.43.73.35,4.27-2.78,5.58,1.25,7.73,3.33-.07.19-.62.26-.17.6.06-.2.11-.4.17-.59,2.01,1.22,3.9,2.63,4.92,4.79.31.66.66,1.01,1.2,1.39,2.84,2.01,4.2,4.74,3.56,8.2-.46,2.48,1.43,4.04,2.16,6.01,1.22,3.31.53,6.54.74,9.79.05.7-.34,1.48-1.18,1.01-1.53-.85-3.57-.3-4.79-1.94-1.27-1.69-2.91-1.99-4.99-1.49-1.68.41-3.51.22-5.27.29,0,0-.2.09-.2.09,0,0-.13-.17-.13-.17-3.08-2.22-6.61-3.09-10.31-2.89-5.96.33-11.92.36-17.84-.25-2.08-.21-4.01-2.25-6.26-.93-7.15,4.22-15.59,2.37-23.1,5.01-3.38,1.19-4.78-.24-4.22-3.86,1.14-7.49,3.08-14.7,8.54-20.41Z"/>
        <path class="cls-8" d="m199.45,248.86c1.65,4.41,1.12,9.08-1.19,12.39-.1-4.42,1.26-8.34,1.19-12.39Z"/>
        <path class="cls-8" d="m192.4,260.38c.33-4.22.66-8.45,1.01-13.01,1.68,2.99,1.37,8.38-1.01,13.01Z"/>
        <path class="cls-8" d="m204.77,249.28c.32,3.45.79,6.94-1.1,10.21-.48-3.46.2-6.83,1.1-10.21Z"/>
        <path class="cls-4" d="m186.44,14.18c-.06.2-.11.4-.17.59-.46-.34.09-.4.17-.6h0Z"/>
      </g>
      <path class="cls-2" d="m106.12,247.65c-.03.4-.21.77-.47,1.06-2.28,2.5-4.49,5.05-7.86,6.27-1.34.49-1.03,2.1-1.24,3.24-.44,2.49-.67,5.02-1.09,7.52-.24,1.43-.64,3.02-2.48,2.99-1.6-.03-2.52-1.08-2.82-2.74-.3-1.62-1.08-3.19-1.16-4.81-.19-4.08-2.31-5.6-6.21-6.07-6.55-.78-9.78-2.68-11.63-7.42-.62-1.59-2.9-1.49-3.4.14-1.23,4.06-1.58,8.15-1.55,12.3.01,1.06-.91,1.88-1.96,1.79-.87-.08-1.74-.17-2.59-.36-3.74-.87-5.14-2.53-4.64-6.38,1.18-9.23,1.17-18.53,1.93-27.78.31-3.77,1.2-7.44,3.34-10.65.67-1.01,1.4-2,2.34-2.72,1.07-.83,2.75-.19,2.86,1.16,0,.1,0,.2,0,.3-.7,6.63,1.67,13.01,1.47,19.59-.04,1.4.07,2.73,1.97,2.75.03.1.05.22.1.31.05.09.18.24.2.23,1.1-.57,1.67-1.64,2.37-2.58,6.14-8.26,17.37-9.77,25.52-3.45.42.33.96.51,1.47.73.19.08.36.2.51.34.49.46.98.92,1.47,1.38.16.15.29.32.38.51,1.94,3.9,3.53,7.88,3.19,12.35Zm-35.61-7.18l.19.02-.08-.2-.11.18Z"/>
    </g>
  </g>
</svg>